SplineFontDB: 3.0
FontName: Heuristica-BoldItalic
FullName: Heuristica Bold Italic
FamilyName: Heuristica
Weight: Bold
Copyright: Copyright (c) 1989, 1991 Adobe Systems Incorporated.  All Rights Reserved. Utopia is either a registered trademark or trademark of Adobe Systems Incorporated in the United States and/or other countries. Used under license. The Utopia fonts are freely available; see http://tug.org/fonts/utopia.\n\nCopyright (c) 2008, 2009, 2010 Andrey V. Panov (panov@canopus.iacp.dvo.ru).\n
Version: 0.4
ItalicAngle: -13
UnderlinePosition: -100
UnderlineWidth: 50
Ascent: 750
Descent: 250
LayerCount: 2
Layer: 0 0 "Back"  1
Layer: 1 0 "Fore"  0
NeedsXUIDChange: 1
UniqueID: 36546
FSType: 8
OS2Version: 0
OS2_WeightWidthSlopeOnly: 0
OS2_UseTypoMetrics: 1
CreationTime: 1164221255
ModificationTime: 1292328395
PfmFamily: 17
TTFWeight: 700
TTFWidth: 5
LineGap: 200
VLineGap: 0
OS2TypoAscent: 750
OS2TypoAOffset: 0
OS2TypoDescent: -250
OS2TypoDOffset: 0
OS2TypoLinegap: 200
OS2WinAscent: 950
OS2WinAOffset: 0
OS2WinDescent: 250
OS2WinDOffset: 0
HheadAscent: 950
HheadAOffset: 0
HheadDescent: -250
HheadDOffset: 0
OS2Vendor: 'PfEd'
Lookup: 258 0 0 "LGC kerning"  {"LGC kerning subtable"  } ['kern' ('cyrl' <'dflt' > 'grek' <'dflt' > 'latn' <'dflt' > ) ]
MarkAttachClasses: 1
DEI: 91125
LangName: 1033 "" "" "Bold Italic" "" "" "" "" "" "" "" "" "" "" "+AAoA-Copyright (c) 2008, 2009 Andrey V. Panov (panov@canopus.iacp.dvo.ru), +AAoA-with Reserved Font Name Heuristica.+AAoACgAA-This Font Software is licensed under the SIL Open Font License, Version 1.1.+AAoA-This license is copied together with this font package in OFL.txt, +AAoA-and is also available with a FAQ at:+AAoA-http://scripts.sil.org/OFL" 
LangName: 1049 "" "+BC0EMgRABDgEQQRCBDgEOgQw" 
Encoding: UnicodeBmp
UnicodeInterp: none
NameList: Adobe Glyph List
DisplaySize: -48
AntiAlias: 1
FitToEm: 1
WinInfo: 1024 16 14
BeginPrivate: 9
BlueValues 41 [ -15 0 692 707 490 502 668 680 742 742 ]

StartChar: exclam
Encoding: 33 33 1
Width: 285
Flags: HMW
HStem: -12 178<139.5 182.5> 687 20G<258 340.5>
VStem: 70 180<57.5 97.5>
LayerCount: 2
Fore
SplineSet
160 217 m 1
 196 603 l 2
 203 673 217 707 299 707 c 0
 382 707 382 673 356 603 c 2
 215 217 l 1
 160 217 l 1
EndSplineSet
Refer: 14 46 S 1 0 0 1 3 0 2
EndChar

StartChar: quotedbl
Encoding: 34 34 2
Width: 455
Flags: HMW
HStem: 687 20G<237 299 440 502>
VStem: 181 147 384 147
LayerCount: 2
Fore
SplineSet
177 407 m 1
 185 630 l 2
 186 682 206 707 268 707 c 0
 330 707 340 683 318 630 c 2
 223 407 l 1
 177 407 l 1
380 407 m 1
 388 630 l 2
 389 682 409 707 471 707 c 0
 533 707 543 683 521 630 c 2
 426 407 l 1
 380 407 l 1
EndSplineSet
EndChar

StartChar: numbersign
Encoding: 35 35 3
Width: 560
Flags: HMW
HStem: 0 21G<102 179 102 102 291 367 291 291> 219 72<98 179 72 204 281 368 98 256 469 552> 398 72<161 242 135 267 344 431 161 319 532 615> 648 20G<337 413 413 413 526 601 601 601>
VStem: 72 569<219 470>
LayerCount: 2
Fore
SplineSet
72 219 m 1
 98 291 l 1
 204 291 l 1
 242 398 l 1
 135 398 l 1
 161 470 l 1
 267 470 l 1
 337 668 l 1
 413 668 l 1
 344 470 l 1
 456 470 l 1
 526 668 l 1
 601 668 l 1
 532 470 l 1
 641 470 l 1
 615 398 l 1
 507 398 l 1
 469 291 l 1
 578 291 l 1
 552 219 l 1
 444 219 l 1
 367 0 l 1
 291 0 l 1
 368 219 l 1
 256 219 l 1
 179 0 l 1
 102 0 l 1
 179 219 l 1
 72 219 l 1
281 291 m 1
 393 291 l 1
 431 398 l 1
 319 398 l 1
 281 291 l 1
EndSplineSet
EndChar

StartChar: dollar
Encoding: 36 36 4
Width: 560
Flags: HW
HStem: -104 153<260 260 260 282 227 260> 0 21G<305 305> 267 21G<364 364> 619 47<445 456> 622 46<365 391>
VStem: 158 123 440 129
LayerCount: 2
Fore
SplineSet
67 120 m 0
 68 164 103 190 140 190 c 0
 168 190 179 174 184 157 c 0
 207 77 236 50 260 49 c 1
 315 291 l 1
 191 347 157 412 158 473 c 0
 160 590 259 668 402 668 c 1
 421 748 l 1
 475 748 l 1xae
 456 666 l 1
 528 661 624 621 623 551 c 0
 622 522 588 499 552 499 c 0
 529 499 517 521 513 534 c 0
 497 585 473 615 445 619 c 1x76
 396 405 l 1
 495 362 571 311 569 198 c 0
 568 108 504 -1 305 0 c 1x6e
 282 -104 l 1
 227 -104 l 1
 250 2 l 1
 143 8 66 59 67 120 c 0
281 522 m 0
 281 481 301 453 347 431 c 1x6e
 391 622 l 1
 339 622 282 586 281 522 c 0
314 46 m 1
 369 41 438 70 440 155 c 0
 441 207 418 242 364 267 c 1
 314 46 l 1
EndSplineSet
EndChar

StartChar: percent
Encoding: 37 37 5
Width: 896
Flags: W
HStem: -12 40<650.777 727.57 650.777 727.57> 308 40<261.095 336.986> 320 40<703.154 775.422 703.154 775.422> 588 45<499.198 690.862> 640 40<313.154 386.123> 682 20G<768.2 808.889>
VStem: 141 109<363.284 541.711> 396 109<437.528 587.641> 531 109<43.2836 221.711 43.2836 221.711> 787 109<118.735 306.141 118.735 306.141>
DStem2: 214 7 255 -31 0.635047 0.772474<0 752.36 797.688 898.979>
LayerCount: 2
Fore
SplineSet
141 447 m 0xdfc0
 141 485 154 569 213 626 c 0
 253 665 303 680 357 680 c 0
 395 680 435 667 467 647 c 0
 480 639 498 633 545 633 c 2
 667 633 l 2
 705 633 735 643 764 677 c 2
 785 702 l 1
 828 666 l 1
 255 -31 l 1
 214 7 l 1
 692 588 l 1
 499 588 l 1
 503 567 505 549 505 539 c 0
 505 506 499 456 467 402 c 0
 434 346 383 308 287 308 c 0
 175 308 141 375 141 447 c 0xdfc0
250 417 m 0
 250 381 260 348 295 348 c 0
 377 348 396 528 396 568 c 0
 396 603 390 640 353 640 c 0
 273 640 250 452 250 417 c 0
EndSplineSet
Refer: 234 61698 S 1 0 0 1 451 0 2
EndChar

StartChar: ampersand
Encoding: 38 38 6
Width: 752
Flags: HW
HStem: -12 69<340.5 345> -6 21G<719 719> 634 46<425 460.5>
VStem: 97 139<156.5 234.5> 244 123<500 541> 497 106<529.5 585.5 491.5 586> 648 123
LayerCount: 2
Fore
SplineSet
97 171 m 0xb6
 97 298 205 344 271 374 c 1
 256 404 244 445 244 480 c 0xbe
 244 602 332 680 439 680 c 0
 532 680 603 628 603 543 c 0
 603 440 508 401 423 373 c 1
 459 314 518 234 575 173 c 1
 626 233 642 340 648 417 c 1
 681 441 732 448 761 444 c 1
 779 412 772 361 755 330 c 0
 721 266 684 206 608 138 c 1
 655 88 698 49 751 26 c 1
 746 -7 l 1
 719 -6 l 2x76
 621 -3 566 19 518 57 c 1
 465 12 381 -12 309 -12 c 0
 169 -12 97 75 97 171 c 0xb6
236 199 m 0
 236 114 299 57 382 57 c 0
 418 57 462 71 481 89 c 1
 395 160 326 266 293 328 c 1
 277 318 236 275 236 199 c 0
367 520 m 0xbe
 367 480 384 441 401 414 c 1
 450 435 497 491 497 568 c 0xb6
 497 604 476 634 445 634 c 0
 405 634 367 593 367 520 c 0xbe
EndSplineSet
EndChar

StartChar: quoteright
Encoding: 8217 8217 7
Width: 246
Flags: HMW
HStem: 687 20G<234 255>
VStem: 179 150<614.5 647 574 653.5>
LayerCount: 2
Back
SplineSet
129.184 414 m 5
 167.243 450 195.725 489 202.049 534 c 4
 208.232 578 173.903 597 179.946 640 c 4
 184.865 675 212.362 707 257.362 707 c 4
 305.362 707 336.741 667 327.465 601 c 4
 315.52 516 222.416 437 153.39 387 c 5
 129.184 414 l 5
EndSplineSet
Fore
SplineSet
130 414 m 1
 165 449 202 494 202 542 c 0
 202 579 179 597 179 632 c 0
 179 675 213 707 255 707 c 0
 305 708 329 669 329 625 c 0
 329 523 227 440 153 387 c 1
 130 414 l 1
EndSplineSet
EndChar

StartChar: parenleft
Encoding: 40 40 8
Width: 350
Flags: HMW
HStem: 665 34<472 473>
VStem: 122 99
LayerCount: 2
Fore
SplineSet
128 37 m 0
 114 123 128 225 145 301 c 0
 161 371 186 471 236 554 c 0
 293 645 371 704 473 699 c 1
 472 665 l 1
 339 642 266 385 244 282 c 0
 220 179 191 -65 292 -101 c 1
 280 -135 l 1
 192 -125 144 -59 128 37 c 0
EndSplineSet
EndChar

StartChar: parenright
Encoding: 41 41 9
Width: 350
Flags: MW
HStem: -135 34<3 4> 679 20G<196 196>
VStem: 255 99
LayerCount: 2
Fore
SplineSet
3 -135 m 1
 4 -101 l 1
 137 -78 210 179 232 282 c 0
 256 385 285 629 184 665 c 1
 196 699 l 1
 284 689 332 623 348 527 c 0
 362 441 348 339 331 263 c 0
 315 193 290 93 240 10 c 0
 183 -81 105 -140 3 -135 c 1
EndSplineSet
EndChar

StartChar: asterisk
Encoding: 42 42 10
Width: 500
Flags: HW
HStem: 474 29 474 86 483 20G<299 299> 528 29 550 90 687 20G<378.5 418>
VStem: 317 86 331 41.5 352 39
LayerCount: 2
Fore
SplineSet
164 413 m 0
 150 441 154 468 183 475 c 2x85
 299 503 l 2
 323 509 324 525 298 532 c 2
 219 553 l 2
 189 561 190 596 206 618 c 0
 225 644 255 650 270 633 c 2x26
 325 569 l 2
 341 551 355 562 352 585 c 2x4480
 344 665 l 2
 342 693 359 707 398 707 c 0
 438 707 455 689 440 662 c 2
 395 580 l 2
 384 559 400 549 419 566 c 2x3480
 494 631 l 2
 515 648 541 640 555 614 c 0
 571 584 563 556 537 550 c 2x2c80
 425 528 l 2
 400 523 395 506 417 500 c 2x37
 498 475 l 2
 532 465 530 433 509 405 c 0
 491 381 468 377 445 404 c 2x36
 393 466 l 2
 380 482 367 472 369 447 c 2
 376 357 l 2
 379 324 356 315 327 315 c 0
 285 315 266 336 282 366 c 2
 327 452 l 2
 338 472 322 483 303 465 c 2
 234 398 l 2
 206 372 179 383 164 413 c 0
EndSplineSet
EndChar

StartChar: plus
Encoding: 43 43 11
Width: 600
Flags: MW
HStem: 0 21G<312 408 312 312> 210 80<118 312 118 312 408 602> 470 20G<312 408 408 408>
VStem: 312 96<0 210 0 210 290 490>
LayerCount: 2
Fore
SplineSet
118 210 m 1
 118 290 l 1
 312 290 l 1
 312 490 l 1
 408 490 l 1
 408 290 l 1
 602 290 l 1
 602 210 l 1
 408 210 l 1
 408 0 l 1
 312 0 l 1
 312 210 l 1
 118 210 l 1
EndSplineSet
EndChar

StartChar: comma
Encoding: 44 44 12
Width: 280
Flags: HMW
HStem: -167 347<52 162>
VStem: 80 162<89 115 36 122>
LayerCount: 2
Fore
SplineSet
26 -138 m 1
 65 -100 105 -51 105 1 c 0
 105 20 98 39 93 50 c 0
 85 67 80 79 80 99 c 0
 80 145 116 180 162 180 c 0
 216 181 242 139 242 91 c 0
 242 -19 132 -109 52 -167 c 1
 26 -138 l 1
EndSplineSet
EndChar

StartChar: hyphen
Encoding: 45 45 13
Width: 392
Flags: HMW
HStem: 203 95<126 369 106 389>
VStem: 106 283<203 298>
LayerCount: 2
Fore
SplineSet
106 203 m 1
 126 298 l 1
 389 298 l 1
 369 203 l 1
 106 203 l 1
EndSplineSet
EndChar

StartChar: period
Encoding: 46 46 14
Width: 280
Flags: HMW
HStem: -12 178<136.5 179.5>
VStem: 67 180<57.5 97.5>
LayerCount: 2
Fore
SplineSet
67 67 m 0
 67 128 110 166 163 166 c 0
 221 166 247 129 247 88 c 0
 247 27 205 -12 154 -12 c 0
 94 -12 67 24 67 67 c 0
EndSplineSet
EndChar

StartChar: slash
Encoding: 47 47 15
Width: 260
Flags: HMW
HStem: -15 21G<19 119 19 19> 687 20G<305 405 405 405>
VStem: 19 386
LayerCount: 2
Fore
SplineSet
19 -15 m 1
 305 707 l 1
 405 707 l 1
 119 -15 l 1
 19 -15 l 1
EndSplineSet
EndChar

StartChar: zero
Encoding: 48 48 16
Width: 560
Flags: HMW
HStem: -12 46<277.5 328.5 277.5 376.5> 634 46<393 440>
VStem: 92 140<161 190.5 100 260> 478 140<422 564.5>
LayerCount: 2
Back
SplineSet
101 334 m 0
 140 517 237 680 424 680 c 0
 611 680 638 517 599 334 c 0
 560 151 463 -12 276 -12 c 0
 89 -12 62 151 101 334 c 0
259 334 m 0
 235 220 204 34 286 34 c 0
 368 34 417 220 441 334 c 0
 465 448 496 634 414 634 c 0
 332 634 283 448 259 334 c 0
EndSplineSet
Fore
SplineSet
92 218 m 0
 92 302 109 401 149 488 c 0
 201 599 283 680 407 680 c 0
 590 680 618 543 618 456 c 0
 618 388 607 294 565 193 c 0
 516 78 447 -12 306 -12 c 0
 142 -12 92 104 92 218 c 0
232 133 m 0
 232 67 258 34 297 34 c 0
 360 34 398 135 430 251 c 0
 463 368 478 491 478 538 c 0
 478 591 463 634 417 634 c 0
 369 634 329 568 296 474 c 0
 263 379 232 248 232 133 c 0
EndSplineSet
EndChar

StartChar: one
Encoding: 49 49 17
Width: 560
Flags: W
HStem: 0 40.5 653 20G<505 505> 660 20G<497 497>
VStem: 107 398
LayerCount: 2
Fore
SplineSet
107 0 m 1xb0
 115 38 l 1
 187 43 l 2
 210 45 222 52 228 81 c 2
 334 556 l 2
 340 586 335 593 318 596 c 2
 242 609 l 1
 250 642 l 1
 497 680 l 1
 505 673 l 1xd0
 374 81 l 2
 368 52 378 44 402 43 c 2
 475 38 l 1
 467 0 l 1
 107 0 l 1xb0
EndSplineSet
EndChar

StartChar: two
Encoding: 50 50 18
Width: 560
Flags: HMW
HStem: 0 116<205 439 439 461.5 205 506> 634 46<373 418>
VStem: 457 156<497.5 558.5 447.5 577.5>
LayerCount: 2
Back
SplineSet
34 18 m 1
 50 85 117 168 281 283 c 0
 412 375 444 450 458 516 c 0
 473 585 460 634 409 634 c 0
 360 634 318 581 284 502 c 0
 272 475 253 464 232 464 c 0
 198 464 151 486 160 529 c 0
 178 616 295 680 426 680 c 0
 554 680 640 628 611 490 c 0
 589 386 512 333 383 271 c 0
 259 212 214 156 191 121 c 1
 446 121 l 2
 488 121 502 128 542 180 c 1
 576 175 l 1
 499 0 l 1
 44 0 l 1
 34 18 l 1
EndSplineSet
Fore
SplineSet
39 16 m 1
 58 116 145 191 268 277 c 0
 378 354 457 440 457 555 c 0
 457 600 440 634 396 634 c 0
 350 634 318 591 284 509 c 0
 273 481 261 459 229 459 c 0
 194 459 156 485 156 530 c 0
 156 602 245 680 391 680 c 0
 535 680 613 613 613 504 c 0
 613 391 535 326 411 274 c 0
 353 250 220 175 205 116 c 1
 439 116 l 2
 484 116 496 126 526 173 c 1
 566 169 l 1
 506 0 l 1
 52 0 l 1
 39 16 l 1
EndSplineSet
EndChar

StartChar: three
Encoding: 51 51 19
Width: 560
Flags: HW
HStem: -12 46<262.5 316.5 262.5 322.5> 335 53<305.5 345> 634 46<366 407.5>
VStem: 402 160<164 238 164 260.5> 451 151<517.5 565.5 471.5 580>
LayerCount: 2
Fore
SplineSet
56 118 m 0
 54 165 100 195 133 195 c 0
 165 195 176 170 182 149 c 0
 207 60 239 34 286 34 c 0
 347 34 402 100 402 216 c 0
 402 305 367 335 323 335 c 0xf0
 278 335 243 321 224 321 c 0
 205 321 199 334 199 352 c 0
 199 377 210 403 230 403 c 0
 251 403 284 388 327 388 c 0
 402 388 451 477 451 558 c 0
 451 602 427 634 388 634 c 0
 344 634 312 597 280 525 c 0
 271 505 261 488 233 488 c 0
 198 488 163 512 161 550 c 0
 159 601 233 680 383 680 c 0
 526 680 602 614 602 517 c 0xe8
 602 426 531 377 427 367 c 1xf0
 427 363 l 1xf0
 519 340 562 276 562 200 c 0
 562 128 528 72 477 37 c 0
 426 2 357 -12 288 -12 c 0
 135 -12 58 56 56 118 c 0
EndSplineSet
EndChar

StartChar: four
Encoding: 52 52 20
Width: 560
Flags: MW
HStem: 0 40.5 174 65<175 341 497 575> 648 20G<474 592 592 592>
VStem: 63 529<205 668>
DStem2: 319 72 460 72 0.216237 0.976341<4.88569 104.344 201.539 482.994>
LayerCount: 2
Fore
SplineSet
63 205 m 1
 189 367 322 520 474 668 c 1
 592 668 l 1
 497 239 l 1
 590 239 l 1
 575 174 l 1
 483 174 l 1
 460 72 l 2
 455 51 463 43 479 42 c 2
 527 38 l 1
 518 0 l 1
 212 0 l 1
 221 38 l 1
 286 43 l 2
 303 44 314 51 319 72 c 2
 341 174 l 1
 77 174 l 1
 63 205 l 1
175 239 m 1
 355 239 l 1
 426 543 l 1
 424 543 l 1
 336 445 252 342 175 239 c 1
EndSplineSet
EndChar

StartChar: five
Encoding: 53 53 21
Width: 560
Flags: HW
HStem: -12 46<262.5 316 262.5 357.5> 368 63<332.5 336> 552 116<281 292 292 567> 656 12<228 628>
VStem: 406 159<176 279>
LayerCount: 2
Back
SplineSet
71 119 m 4
 79 163 128 192 160 192 c 4
 188 192 199 176 202 154 c 4
 215 66 240 34 284 34 c 4
 346 34 384 99 402 200 c 4
 422 316 383 366 314 366 c 4
 266 366 222 346 175 298 c 5
 139 328 l 5
 217 659 l 5
 227 668 l 5xe8
 610 668 l 5xe8
 617 654 l 5xd8
 559 547 l 5
 293 547 l 6
 266 547 263 542 252 508 c 6
 209 374 l 5
 253 401 312 431 380 431 c 4
 559 431 580 305 564 215 c 4
 542 93 459 -12 272 -12 c 4
 95 -12 65 84 71 119 c 4
EndSplineSet
Fore
SplineSet
58 118 m 0
 56 162 98 195 139 195 c 0
 168 195 177 174 185 146 c 0
 210 58 240 34 285 34 c 0
 347 34 406 110 406 242 c 0
 406 316 369 368 303 368 c 0
 256 368 219 348 182 304 c 1
 146 329 l 1
 213 657 l 1
 228 668 l 1
 621 668 l 1xe8
 628 656 l 1xd8
 567 552 l 1xe8
 292 552 l 2
 270 552 263 548 254 521 c 2
 209 382 l 1
 211 380 l 1
 250 407 301 431 364 431 c 0
 502 431 565 350 565 238 c 0
 565 70 433 -12 282 -12 c 0
 128 -12 60 57 58 118 c 0
EndSplineSet
EndChar

StartChar: six
Encoding: 54 54 22
Width: 560
Flags: HMW
HStem: -12 46<290 353.5 290 407.5> 353 77 634 46<393 446>
VStem: 91 145<161 192 127 291.5> 434 153<187.5 281>
LayerCount: 2
Fore
SplineSet
91 222 m 0
 91 361 143 529 240 612 c 0
 286 652 347 680 429 680 c 0
 571 680 621 596 621 558 c 0
 621 511 578 493 548 493 c 0
 522 493 510 512 506 534 c 0
 493 599 466 634 426 634 c 0
 360 634 295 516 259 360 c 1
 261 360 l 1
 295 399 354 430 401 430 c 0
 523 430 587 354 587 239 c 0
 587 104 492 -12 323 -12 c 0
 145 -12 91 100 91 222 c 0
236 162 m 0
 236 92 260 34 320 34 c 0
 387 34 434 129 434 246 c 0
 434 316 400 353 351 353 c 0
 315 353 285 332 264 300 c 0
 244 269 236 222 236 162 c 0
EndSplineSet
EndChar

StartChar: seven
Encoding: 55 55 23
Width: 560
Flags: HW
HStem: -12 21G<231 282> 552 116<250.5 275 275 527> 656 12<205 667>
VStem: 147 520<507 656>
LayerCount: 2
Back
SplineSet
133 499 m 1
 206 668 l 1xe8
 646 668 l 1xe8
 657 656 l 1xd8
 624 559 573 492 453 353 c 0
 394 285 358 174 333 51 c 0
 322 -4 281 -12 246 -12 c 0
 204 -12 164 -4 174 54 c 0
 189 138 265 241 364 340 c 0
 462 438 499 514 515 547 c 1
 253 547 l 2
 210 547 196 531 180 508 c 2
 166 489 l 1
 133 499 l 1
EndSplineSet
Fore
SplineSet
147 507 m 1
 205 668 l 1
 657 668 l 1xd0
 667 656 l 1xb0
 643 569 560 469 462 358 c 0
 386 272 351 177 334 47 c 0
 329 7 307 -12 257 -12 c 0
 205 -12 176 9 176 47 c 0
 176 147 280 251 390 364 c 0
 468 444 519 529 527 552 c 1
 275 552 l 2
 226 552 208 538 194 515 c 2
 182 496 l 1
 147 507 l 1
EndSplineSet
EndChar

StartChar: eight
Encoding: 56 56 24
Width: 560
Flags: HW
HStem: -12 46<280 340 280 356> 333 46<353 375> 634 46<380.5 436.5>
VStem: 72 155<123 191.5 103 222.5> 164 146<457 496 430.5 518.5> 424 155<181 250.5 179 265.5> 473 146<512.5 558 469 582>
LayerCount: 2
Back
SplineSet
74 189 m 0xf2
 90 279 153 337 237 362 c 1
 237 364 l 1
 179 382 141 426 154 501 c 0
 174 615 274 680 414 680 c 0
 556 680 631 618 610 501 c 0xec
 597 426 543 382 479 363 c 1
 479 361 l 1
 556 337 596 279 580 189 c 0
 554 39 425 -12 292 -12 c 0
 160 -12 48 40 74 189 c 0xf2
232 186 m 0xf2
 216 97 237 34 300 34 c 0
 363 34 406 97 422 186 c 0
 436 268 415 332 353 332 c 0
 291 332 246 268 232 186 c 0xf2
303 506 m 0xec
 290 434 312 380 361 380 c 0
 413 380 450 434 463 506 c 0
 476 579 459 634 406 634 c 0
 356 634 316 579 303 506 c 0xec
EndSplineSet
Fore
SplineSet
72 171 m 0xf4
 72 274 147 358 254 366 c 1
 254 369 l 1
 213 381 164 421 164 493 c 0
 164 544 183 589 220 623 c 0
 261 661 319 680 403 680 c 0xea
 572 680 619 596 619 520 c 0xf2
 619 418 540 375 470 363 c 1
 470 359 l 1
 529 343 579 290 579 211 c 0
 579 147 558 92 514 52 c 0
 469 12 403 -12 309 -12 c 0
 139 -12 72 75 72 171 c 0xf4
227 133 m 0
 227 73 255 34 305 34 c 0
 375 34 424 126 424 236 c 0
 424 295 402 333 348 333 c 0xf4
 287 333 227 250 227 133 c 0
310 459 m 0
 310 402 335 379 371 379 c 0xea
 426 379 473 458 473 567 c 0
 473 597 458 634 415 634 c 0
 346 634 310 533 310 459 c 0
EndSplineSet
EndChar

StartChar: nine
Encoding: 57 57 25
Width: 560
Flags: HMW
HStem: -12 48<267.5 307.5 267.5 354.5> 256 72<334.5 339.5> 638 42<357.5 418>
VStem: 130 146<407 462.5> 467 138
LayerCount: 2
Fore
SplineSet
83 112 m 0
 82 151 119 181 159 181 c 0
 187 181 198 159 205 133 c 0
 223 60 249 36 286 36 c 0
 329 36 369 83 399 154 c 0
 423 210 438 285 448 321 c 1
 446 322 l 1
 412 285 369 256 310 256 c 0
 211 256 130 324 130 430 c 0
 130 495 152 560 196 606 c 0
 239 649 298 680 381 680 c 0
 545 680 605 580 605 434 c 0
 605 355 585 237 535 139 c 0
 487 44 419 -12 290 -12 c 0
 163 -12 85 52 83 112 c 0
276 438 m 0
 276 376 306 328 363 328 c 0
 399 328 425 348 442 377 c 0
 458 404 467 464 467 521 c 0
 467 587 445 638 391 638 c 0
 324 638 276 544 276 438 c 0
EndSplineSet
EndChar

StartChar: less
Encoding: 60 60 28
Width: 600
Flags: HMW
HStem: 475 20G<579 579>
VStem: 101 478<5 291 5 291>
LayerCount: 2
Fore
SplineSet
101 209 m 1
 101 291 l 1
 579 495 l 1
 579 404 l 1
 198 250 l 1
 579 96 l 1
 579 5 l 1
 101 209 l 1
EndSplineSet
EndChar

StartChar: greater
Encoding: 62 62 30
Width: 600
Flags: HMW
HStem: 475 20G<121 121>
VStem: 121 478<5 209 96 209 209 495 209 495>
LayerCount: 2
Fore
SplineSet
121 5 m 1
 121 96 l 1
 502 250 l 1
 121 404 l 1
 121 495 l 1
 599 291 l 1
 599 209 l 1
 121 5 l 1
EndSplineSet
EndChar

StartChar: question
Encoding: 63 63 31
Width: 454
Flags: W
HStem: -12 178<219.5 262.5> 218 64<314.504 380.295> 661 46<328.526 396.392>
VStem: 150 180<57.5 97.5> 153 125<540.291 599.334> 162 144<292.088 372.817> 401 149<535.724 643.892>
LayerCount: 2
Fore
SplineSet
153 585 m 0xea
 153 634 215 707 355 707 c 0
 487 707 550 655 550 573 c 0
 550 496 489 455 412 425 c 0
 351 402 306 373 306 329 c 0xe6
 306 299 334 284 355 282 c 0
 373 280 386 280 398 282 c 1
 405 253 l 1
 371 230 318 218 278 218 c 0xea
 210 218 162 256 162 313 c 0xe6
 162 364 202 401 269 437 c 0
 353 482 401 541 401 615 c 0
 401 639 391 661 367 661 c 0
 338 661 309 627 278 556 c 0
 269 535 255 522 229 522 c 0
 200 522 153 539 153 585 c 0xea
EndSplineSet
Refer: 14 46 S 1 0 0 1 83 0 2
EndChar

StartChar: at
Encoding: 64 64 32
Width: 828
Flags: HMW
HStem: -15 54<403.5 524.5> 161 52<358 468 672.5 723.5> 507 37<536 580 470.5 584> 647 60<456.5 614.5>
VStem: 125 109<252.5 397 252.5 432> 304 122<238.5 285.5 238.5 289> 556 103 802 75<375.5 487.5>
LayerCount: 2
Fore
SplineSet
125 307 m 0
 125 557 328 707 552 707 c 0
 753 707 877 574 877 414 c 0
 877 302 803 161 644 161 c 0
 558 161 548 211 559 255 c 2
 571 309 l 1
 568 311 l 1
 522 214 464 161 384 161 c 0
 332 161 304 199 304 251 c 0
 304 327 370 544 571 544 c 0
 589 544 606 540 618 534 c 1
 621 540 l 1
 731 540 l 1
 705 446 680 353 659 259 c 0
 654 237 655 213 690 213 c 0
 761 213 802 342 802 409 c 0
 802 566 685 647 544 647 c 0
 369 647 234 487 234 307 c 0
 234 198 297 39 510 39 c 0
 579 39 645 54 692 74 c 1
 703 39 l 1
 650 1 554 -15 495 -15 c 0
 295 -15 125 87 125 307 c 0
426 253 m 0
 426 224 435 213 449 213 c 0
 487 213 551 336 572 400 c 2
 608 498 l 1
 600 504 589 507 579 507 c 0
 493 507 426 318 426 253 c 0
EndSplineSet
EndChar

StartChar: A
Encoding: 65 65 33
Width: 634
Flags: HMW
HStem: 0 40 246 48<260 429 260 434 234 429> 672 20G<420 538 538 538>
VStem: -24 698<0 38>
LayerCount: 2
Fore
SplineSet
-24 0 m 1
 -17 38 l 1
 10 41 l 2
 40 44 55 54 75 87 c 0
 103 133 166 243 226 349 c 2
 420 692 l 1
 538 692 l 1
 572 375 l 2
 580 302 594 159 602 86 c 0
 606 58 610 43 633 41 c 2
 674 38 l 1
 666 0 l 1
 366 0 l 1
 374 38 l 1
 426 42 l 2
 446 43 451 55 449 79 c 2
 434 246 l 1
 234 246 l 1
 202 188 176 132 148 79 c 0
 138 59 139 43 161 42 c 2
 217 38 l 1
 210 0 l 1
 -24 0 l 1
260 294 m 1
 429 294 l 1
 405 555 l 1
 403 555 l 1
 386 528 273 319 260 294 c 1
EndSplineSet
EndChar

StartChar: B
Encoding: 66 66 34
Width: 680
Flags: W
HStem: 0 46<294.66 442.484> 0 38<49 94> 343 46<357 472.176> 646 46<410.255 534.643> 654 38<189 230>
VStem: 520 165<126.026 280.521> 569 155<460.708 612.315>
DStem2: 115.375 0 269.374 0 0.224951 0.97437<97.1724 386.313 433.384 658.375>
LayerCount: 2
Fore
SplineSet
40 0 m 1x64
 49 38 l 1
 94 42 l 2
 123 44 130 62 138 98 c 2
 249 594 l 2
 257 630 258 647 230 649 c 2
 179 654 l 1
 189 692 l 1x6c
 456 692 l 2
 566 693 632 677 670 647 c 0
 707 619 724 579 724 533 c 0x32
 724 450 665 379 534 365 c 1
 534 363 l 1
 603 351 685 304 685 196 c 0
 685 134 655 79 605 46 c 0
 551 11 470 0 373 0 c 2xb4
 40 0 l 1x64
295 111 m 2
 286 71 291 46 351 46 c 0xa4
 469 46 520 126 520 220 c 0
 520 299 473 343 388 343 c 2
 347 343 l 1
 295 111 l 2
357 389 m 1
 401 389 l 2
 499 389 569 446 569 544 c 0
 569 617 525 646 461 646 c 0x32
 417 646 413 639 406 609 c 2
 357 389 l 1
EndSplineSet
EndChar

StartChar: C
Encoding: 67 67 35
Width: 672
Flags: HMW
HStem: -15 46<389 468.5> 661 46<458.5 583 458.5 615.5>
VStem: 111 169<229 310> 700 38<480 480>
LayerCount: 2
Fore
SplineSet
111 275 m 0
 111 345 128 444 180 524 c 0
 250 631 362 707 555 707 c 0
 611 707 717 696 777 659 c 1
 738 480 l 1
 700 480 l 1
 699 571 674 661 557 661 c 0
 354 661 280 412 280 235 c 0
 280 96 344 31 434 31 c 0
 546 31 601 116 665 220 c 1
 703 220 l 1
 648 26 l 1
 584 -7 503 -15 434 -15 c 0
 142 -15 111 183 111 275 c 0
EndSplineSet
EndChar

StartChar: D
Encoding: 68 68 36
Width: 774
Flags: HW
HStem: 0 40 0 46<336 361> 646 46<458 464 189 561.5> 651.5 40.5
VStem: 254 151 656 163<395 456.5 382.5 501.5>
LayerCount: 2
Fore
SplineSet
40 0 m 1x6c
 49 38 l 1
 94 42 l 2
 123 44 130 62 138 98 c 2
 249 594 l 2
 257 630 258 647 230 649 c 2
 179 654 l 1x9c
 189 692 l 1
 464 692 l 2
 583 691 668 672 727 627 c 0
 786 582 819 510 819 403 c 0
 819 362 807 266 753 182 c 0
 684 73 579 0 361 0 c 2
 40 0 l 1x6c
292 97 m 2
 282 54 312 46 360 46 c 0x6c
 592 46 656 336 656 454 c 0
 656 549 633 646 490 646 c 0
 426 646 412 639 405 606 c 2
 292 97 l 2
EndSplineSet
EndChar

StartChar: E
Encoding: 69 69 37
Width: 622
Flags: MW
HStem: 0 46<293.262 500.5> 339 48<357 500.06> 646 46<410.388 610.188>
DStem2: 115.375 0 269.221 0 0.224951 0.97437<97.1724 382.191 431.435 658.375>
LayerCount: 2
Fore
SplineSet
40 0 m 1
 49 38 l 1
 94 42 l 2
 123 44 130 62 138 98 c 2
 249 594 l 2
 257 630 258 647 230 649 c 2
 179 654 l 1
 190 692 l 1
 722 692 l 1
 682 507 l 1
 644 507 l 1
 639 562 l 2
 635 609 613 646 525 646 c 2
 456 646 l 2
 421 646 414 642 407 613 c 2
 357 387 l 1
 451 387 l 2
 514 387 530 404 562 477 c 1
 600 477 l 1
 550 249 l 1
 512 249 l 1
 515 311 504 339 440 339 c 2
 346 339 l 1
 293 103 l 2
 280 48 310 46 401 46 c 0
 480 46 528 67 579 154 c 2
 611 208 l 1
 649 208 l 1
 590 0 l 1
 40 0 l 1
EndSplineSet
EndChar

StartChar: F
Encoding: 70 70 38
Width: 585
Flags: W
HStem: 0 38<49 94 319 366> 320 48<353 517.125> 646 46<410.086 607.875> 654 38<189 230>
VStem: 528 38<229 261.2> 578 38<426.8 459> 640 38<509 541.025>
DStem2: 115.375 0 268.068 0 0.224951 0.97437<87.5677 362.553 412.022 658.375>
LayerCount: 2
Fore
SplineSet
40 0 m 1xee
 49 38 l 1
 94 42 l 2
 123 44 130 62 138 98 c 2
 249 594 l 2
 257 630 258 647 230 649 c 2
 179 654 l 1
 189 692 l 1
 718 692 l 1xde
 678 509 l 1
 640 509 l 1
 635 562 l 2
 631 612 609 646 521 646 c 2
 447 646 l 2
 422 646 413 639 408 617 c 2
 353 368 l 1
 466 368 l 2
 529 368 546 386 578 459 c 1
 616 459 l 1
 566 229 l 1
 528 229 l 1
 531 292 520 320 456 320 c 2
 341 320 l 1
 290 95 l 2
 282 59 287 45 319 42 c 2
 374 38 l 1
 366 0 l 1
 40 0 l 1xee
EndSplineSet
EndChar

StartChar: G
Encoding: 71 71 39
Width: 726
Flags: HW
HStem: -15 46<381.5 464.5> 270 44<741 741> 271 43<535 535> 661 46<466.5 584 466.5 601>
VStem: 111 169<178.5 328.5 173 329>
LayerCount: 2
Fore
SplineSet
111 284 m 0
 111 374 138 473 203 558 c 0
 267 642 382 707 551 707 c 0
 617 707 714 697 775 655 c 1
 740 480 l 1xb8
 702 480 l 1
 693 582 653 661 549 661 c 0
 355 661 280 416 280 241 c 0
 280 105 326 31 437 31 c 0
 497 31 509 43 518 82 c 2
 551 216 l 2
 560 251 555 269 535 271 c 2
 471 276 l 1
 479 314 l 1
 791 314 l 1xb8
 782 276 l 1
 741 270 l 2
 717 267 713 249 705 216 c 2xd8
 663 38 l 1
 591 -3 502 -15 427 -15 c 0
 237 -15 111 73 111 284 c 0
EndSplineSet
EndChar

StartChar: H
Encoding: 72 72 40
Width: 800
Flags: HMW
HStem: 0 40 339 48<357 606 346 617> 652 40
VStem: 40 875<0 692>
LayerCount: 2
Fore
SplineSet
40 0 m 1
 49 38 l 1
 94 42 l 2
 123 44 130 62 138 98 c 2
 249 594 l 2
 257 630 258 647 230 649 c 2
 179 654 l 1
 189 692 l 1
 501 692 l 1
 491 654 l 1
 447 650 l 2
 418 648 411 630 403 594 c 2
 357 387 l 1
 617 387 l 1
 663 594 l 2
 671 630 672 647 644 649 c 2
 593 654 l 1
 603 692 l 1
 915 692 l 1
 905 654 l 1
 861 650 l 2
 832 648 825 630 817 594 c 2
 706 98 l 2
 698 62 697 45 725 42 c 2
 775 38 l 1
 766 0 l 1
 454 0 l 1
 463 38 l 1
 508 42 l 2
 537 44 544 62 552 98 c 2
 606 339 l 1
 346 339 l 1
 292 98 l 2
 284 62 283 45 311 42 c 2
 361 38 l 1
 352 0 l 1
 40 0 l 1
EndSplineSet
EndChar

StartChar: I
Encoding: 73 73 41
Width: 386
Flags: HW
HStem: 0 38<49 94 311 352> 654 38<189 230 447 491>
DStem2: 138 98 292 98 0.224951 0.97437<-14.5234 557.423>
LayerCount: 2
Fore
SplineSet
40 0 m 1
 49 38 l 1
 94 42 l 2
 123 44 130 62 138 98 c 2
 249 594 l 2
 257 630 258 647 230 649 c 2
 179 654 l 1
 189 692 l 1
 501 692 l 1
 491 654 l 1
 447 650 l 2
 418 648 411 630 403 594 c 2
 292 98 l 2
 284 62 283 45 311 42 c 2
 361 38 l 1
 352 0 l 1
 40 0 l 1
EndSplineSet
EndChar

StartChar: J
Encoding: 74 74 42
Width: 388
Flags: MW
HStem: -114 35 652 40
VStem: -15 527
DStem2: 161 158 303 106 0.221794 0.975094<-155.296 495.778>
LayerCount: 2
Fore
SplineSet
-15 -79 m 1
 23 -73 61 -58 84 -31 c 0
 114 3 138 57 161 158 c 2
 260 594 l 2
 268 630 269 647 241 649 c 2
 190 654 l 1
 200 692 l 1
 512 692 l 1
 502 654 l 1
 458 650 l 2
 429 648 422 630 414 594 c 2
 303 106 l 2
 287 36 263 -19 224 -54 c 0
 169 -104 88 -114 28 -114 c 0
 14 -114 1 -115 -13 -112 c 1
 -15 -79 l 1
EndSplineSet
EndChar

StartChar: K
Encoding: 75 75 43
Width: 688
Flags: HW
HStem: -6 38 0 40 652 40
VStem: 40 818<0 692>
LayerCount: 2
Fore
SplineSet
40 0 m 1
 49 38 l 1
 94 42 l 2
 123 44 130 62 138 98 c 2x70
 249 594 l 2
 257 630 258 647 230 649 c 2
 179 654 l 1
 189 692 l 1
 501 692 l 1
 491 654 l 1
 447 650 l 2
 418 648 411 630 403 594 c 2
 351 362 l 1
 353 360 l 1
 478 481 l 2
 534 534 582 586 612 614 c 0
 635 636 638 647 607 651 c 2
 582 654 l 1
 589 692 l 1
 858 692 l 1
 851 654 l 1
 790 648 772 646 725 614 c 0
 663 572 587 507 514 439 c 2
 474 403 l 1
 485 377 l 2
 516 300 579 173 636 96 c 0
 662 60 685 42 707 34 c 2
 719 30 l 1
 713 -6 l 1
 671 -5 l 2xb0
 532 -2 491 31 445 115 c 0
 405 187 377 253 347 336 c 1
 345 336 l 1
 292 98 l 2
 284 62 283 45 311 42 c 2
 361 38 l 1
 352 0 l 1x70
 40 0 l 1
EndSplineSet
EndChar

StartChar: L
Encoding: 76 76 44
Width: 586
Flags: W
HStem: 0 46<293.698 476.64> 0 38<49 94> 654 38<189 230 447 491>
DStem2: 115.375 0 269.682 0 0.224951 0.97437<97.5987 657.951>
LayerCount: 2
Fore
SplineSet
40 0 m 1x60
 49 38 l 1x60
 94 42 l 2
 123 45 130 62 138 98 c 2
 249 594 l 2
 257 630 258 648 230 650 c 2
 179 654 l 1
 189 692 l 1
 501 692 l 1
 491 654 l 1
 447 650 l 2
 418 647 411 630 403 594 c 2
 293 101 l 2
 282 52 310 46 384 46 c 0xa0
 458 46 506 70 558 153 c 2
 588 201 l 1
 626 201 l 1
 568 0 l 1
 40 0 l 1x60
EndSplineSet
EndChar

StartChar: M
Encoding: 77 77 45
Width: 921
Flags: MW
HStem: 0 39.5 652 40
VStem: 35 998<0 692>
LayerCount: 2
Fore
SplineSet
35 0 m 1
 42 38 l 1
 79 41 l 2
 102 43 118 57 128 91 c 0
 138 125 148 164 163 239 c 2
 239 594 l 2
 247 630 248 647 220 649 c 2
 169 654 l 1
 179 692 l 1
 422 692 l 1
 434 615 448 538 462 461 c 2
 507 206 l 1
 510 206 l 1
 655 461 l 2
 699 538 744 615 782 692 c 1
 1033 692 l 1
 1023 654 l 1
 979 650 l 2
 950 648 943 630 935 594 c 2
 825 98 l 2
 817 62 816 45 844 42 c 2
 894 38 l 1
 885 0 l 1
 583 0 l 1
 592 38 l 1
 636 42 l 2
 665 44 672 62 680 98 c 2
 789 585 l 1
 786 585 l 1
 458 12 l 1
 393 12 l 1
 299 585 l 1
 296 585 l 1
 224 239 l 2
 208 165 201 126 198 91 c 0
 195 58 204 43 233 41 c 2
 286 38 l 1
 278 0 l 1
 35 0 l 1
EndSplineSet
EndChar

StartChar: N
Encoding: 78 78 46
Width: 741
Flags: W
HStem: 0 38<38 75 230 276> 654 38<182 222 627 673 828 865>
DStem2: 107.823 0 167.823 0 0.224951 0.97437<73.0622 588.727> 404 692 299 561 0.389158 -0.921171<79.8118 551.767> 577.751 0 640 0 0.224951 0.97437<187.814 648.587>
LayerCount: 2
Fore
SplineSet
30 0 m 1
 38 38 l 1
 75 41 l 2
 99 43 114 57 125 91 c 0
 136 125 146 164 163 239 c 2
 241 594 l 2
 249 630 250 647 222 649 c 2
 172 654 l 1
 182 692 l 1
 404 692 l 1
 474 522 545 353 617 183 c 1
 620 183 l 1
 679 453 l 2
 695 527 704 566 707 601 c 0
 710 634 702 649 673 651 c 2
 619 654 l 1
 627 692 l 1
 873 692 l 1
 865 654 l 1
 828 651 l 2
 804 649 789 635 778 601 c 0
 767 567 757 528 740 453 c 2
 640 0 l 1
 536 0 l 1
 458 187 379 374 299 561 c 1
 295 561 l 1
 223 239 l 2
 208 165 200 126 196 91 c 0
 193 58 202 43 230 41 c 2
 284 38 l 1
 276 0 l 1
 30 0 l 1
EndSplineSet
EndChar

StartChar: O
Encoding: 79 79 47
Width: 761
Flags: HMW
HStem: -15 46<361 477 361 510> 661 46<439.5 566.5>
VStem: 113 165<179.5 269.5 139 290> 638 165<409 520 392.5 550>
LayerCount: 2
Fore
SplineSet
113 264 m 0
 113 316 117 406 170 508 c 0
 224 611 326 707 507 707 c 0
 675 707 803 621 803 419 c 0
 803 366 795 274 744 176 c 0
 691 74 600 -15 420 -15 c 0
 219 -15 113 95 113 264 c 0
278 190 m 0
 278 88 319 31 403 31 c 0
 551 31 638 312 638 506 c 0
 638 594 611 661 522 661 c 0
 357 661 278 349 278 190 c 0
EndSplineSet
EndChar

StartChar: P
Encoding: 80 80 48
Width: 660
Flags: W
HStem: 0 38<49 94 313 370> 264 46<346.031 469.594> 646 46<411.858 533.867> 654 38<190 231>
VStem: 570 159<425.566 591.97>
DStem2: 115.375 0 269.375 0 0.224951 0.97437<86.0544 305.514 360.225 658.751>
LayerCount: 2
Fore
SplineSet
40 0 m 1xd8
 49 38 l 1
 94 42 l 2
 123 44 130 62 138 98 c 2
 250 594 l 2
 258 630 259 647 231 649 c 2
 180 654 l 1
 190 692 l 1xd8
 442 692 l 2xe8
 527 692 596 684 647 654 c 0
 695 626 729 576 729 500 c 0
 729 427 695 364 642 325 c 0
 580 279 480 264 393 264 c 2
 330 264 l 1
 292 98 l 2
 284 64 283 45 313 43 c 2
 378 38 l 1
 370 0 l 1
 40 0 l 1xd8
348 343 m 2
 343 323 344 310 391 310 c 0
 511 310 570 429 570 531 c 0
 570 607 533 646 464 646 c 0xe8
 420 646 414 637 407 608 c 2
 348 343 l 2
EndSplineSet
EndChar

StartChar: Q
Encoding: 81 81 49
Width: 761
Flags: HMW
HStem: -193 43 -4 21G 661 46<439.5 566.5>
VStem: 113 165<191 269.5 139 290> 638 165<409 520 392.5 550>
LayerCount: 2
Fore
SplineSet
113 264 m 0
 113 316 117 406 170 508 c 0
 224 611 326 707 507 707 c 0
 675 707 803 621 803 419 c 0
 803 366 795 274 744 176 c 0
 701 93 632 19 515 -4 c 1
 529 -31 547 -55 569 -79 c 0
 622 -136 665 -150 686 -150 c 2
 698 -150 l 1
 703 -174 l 1
 681 -186 645 -193 610 -193 c 0
 460 -193 370 -87 342 -8 c 1
 192 16 113 118 113 264 c 0
278 190 m 0
 278 88 319 31 403 31 c 0
 551 31 638 312 638 506 c 0
 638 594 611 661 522 661 c 0
 357 661 278 349 278 190 c 0
EndSplineSet
EndChar

StartChar: R
Encoding: 82 82 50
Width: 681
Flags: MW
HStem: 0 40 317 46<351 399 341 414> 646 46<444 471 471 501.5> 651.5 40.5
VStem: 254 153 572 159<485.5 557 475 578>
DStem2: 138 98 292 98 0.219149 0.975691<-16.0109 258.164 305.237 558.355>
LayerCount: 2
Fore
SplineSet
40 0 m 1
 49 38 l 1
 94 42 l 2
 123 44 130 62 138 98 c 2
 249 594 l 2
 257 630 258 647 230 649 c 2
 179 654 l 1xdc
 189 692 l 1xec
 471 692 l 2
 550 692 620 681 661 657 c 0xec
 706 630 731 587 731 527 c 0
 731 423 644 351 519 343 c 1
 519 341 l 1
 621 317 624 254 621 174 c 0
 618 122 626 90 640 66 c 0
 651 48 675 41 701 38 c 1
 692 0 l 1
 596 0 l 2
 529 0 486 27 475 83 c 0
 463 151 478 229 471 264 c 0
 463 302 448 317 399 317 c 2
 341 317 l 1
 292 98 l 2
 284 62 283 45 311 42 c 2
 361 38 l 1
 352 0 l 1
 40 0 l 1
351 363 m 1
 414 363 l 2
 493 363 572 428 572 543 c 0
 572 613 535 646 468 646 c 0
 420 646 413 635 407 610 c 2
 351 363 l 1
EndSplineSet
EndChar

StartChar: S
Encoding: 83 83 51
Width: 551
Flags: W
HStem: -15 46<228.062 370.829> 492 21G<531.5 575.224> 661 46<341.137 474.569>
VStem: 89 37<193.13 247> 157 140<492.411 589.034> 418 145<111.162 224.193> 533 38<492 525.147>
LayerCount: 2
Fore
SplineSet
66 70 m 1xfc
 89 247 l 1
 126 247 l 1
 140 105 221 31 298 31 c 0
 378 31 418 85 418 151 c 0xfc
 418 218 374 265 315 299 c 0
 225 351 157 406 157 497 c 0
 157 583 212 707 412 707 c 0
 467 707 552 695 605 653 c 1
 571 492 l 1
 533 492 l 1xfa
 530 608 479 661 408 661 c 0
 335 661 297 606 297 553 c 0
 297 494 351 455 412 420 c 0
 512 364 563 302 563 210 c 0
 563 85 481 -13 300 -15 c 0
 221 -15 118 8 66 70 c 1xfc
EndSplineSet
EndChar

StartChar: T
Encoding: 84 84 52
Width: 616
Flags: MW
HStem: 0 40 646 46<293 326 326 378 532 580 532 532>
VStem: 126 631<501 692>
DStem2: 254 98 408 98 0.220698 0.975342<-16.0113 561.854>
LayerCount: 2
Fore
SplineSet
126 501 m 1
 169 692 l 1
 757 692 l 1
 714 501 l 1
 676 501 l 1
 673 562 l 2
 670 614 646 646 580 646 c 2
 532 646 l 1
 408 98 l 2
 400 62 399 45 427 43 c 2
 491 38 l 1
 482 0 l 1
 142 0 l 1
 151 38 l 1
 210 42 l 2
 239 44 246 62 254 98 c 2
 378 646 l 1
 326 646 l 2
 260 646 222 615 195 562 c 2
 164 501 l 1
 126 501 l 1
EndSplineSet
EndChar

StartChar: U
Encoding: 85 85 53
Width: 776
Flags: MW
HStem: -15 46<367.5 441.5> 652 40
VStem: 150 152
DStem2: 159 241 312 233 0.216358 0.976314<-99.3876 411.06> 575 258 726 253 0.22298 0.974823<-131.112 393.126>
LayerCount: 2
Fore
SplineSet
159 241 m 2
 238 594 l 2
 246 630 247 647 219 649 c 2
 168 654 l 1
 178 692 l 1
 490 692 l 1
 480 654 l 1
 436 650 l 2
 407 648 400 630 392 594 c 2
 312 233 l 2
 279 82 328 31 407 31 c 0
 495 31 541 104 575 258 c 2
 650 594 l 2
 658 630 659 647 631 649 c 2
 580 654 l 1
 590 692 l 1
 902 692 l 1
 892 654 l 1
 848 650 l 2
 819 648 812 630 804 594 c 2
 726 253 l 2
 701 142 662 74 612 38 c 0
 557 -1 481 -15 402 -15 c 0
 306 -15 227 9 185 55 c 0
 148 97 141 161 159 241 c 2
EndSplineSet
EndChar

StartChar: V
Encoding: 86 86 54
Width: 630
Flags: MW
HStem: 0 21G<259 379 259 259> 652 40
VStem: 127 691<654 692>
DStem2: 340 617 191 604 0.105854 -0.994382<-28.487 483.59> 392 136 379 0 0.483633 0.875271<0 566.526>
LayerCount: 2
Fore
SplineSet
127 654 m 1
 134 692 l 1
 426 692 l 1
 419 654 l 1
 359 648 l 2
 340 646 338 633 340 617 c 0
 342 597 362 399 364 377 c 2
 390 136 l 1
 392 136 l 1
 424 190 487 309 515 361 c 0
 571 467 618 557 645 616 c 0
 654 636 651 648 632 650 c 2
 576 654 l 1
 584 692 l 1
 818 692 l 1
 811 654 l 1
 774 650 l 2
 751 647 737 628 717 598 c 0
 677 538 622 439 563 333 c 2
 379 0 l 1
 259 0 l 1
 226 310 l 2
 213 438 199 539 191 604 c 0
 187 634 180 647 161 650 c 2
 127 654 l 1
EndSplineSet
EndChar

StartChar: W
Encoding: 87 87 55
Width: 920
Flags: MW
HStem: 0 21G<212 212 212 335 590 590 590 713> 0 146<212 345 212 345> 651.5 40.5 656 20G<576 688 688 688>
VStem: 201 133
DStem2: 345 146 335 0 0.399548 0.916712<0 406.47> 688 676 562 497 0.0583908 -0.998294<171.337 530.906> 724 146 713 0 0.426486 0.904494<0 466.586>
LayerCount: 2
Fore
SplineSet
115 654 m 1
 122 692 l 1
 410 692 l 1
 403 654 l 1
 348 649 l 2
 329 647 327 634 328 615 c 2xa8
 340 146 l 1
 345 146 l 1
 576 676 l 1
 688 676 l 1
 719 146 l 1
 724 146 l 1x58
 751 204 805 325 827 374 c 0
 867 463 899 539 924 605 c 0
 934 632 934 647 912 649 c 2
 859 654 l 1
 866 692 l 1
 1097 692 l 1
 1090 654 l 1
 1062 651 l 2
 1031 648 1017 634 994 588 c 0
 960 517 910 419 862 316 c 2
 713 0 l 1
 590 0 l 1
 562 497 l 1
 557 497 l 1
 335 0 l 1
 212 0 l 1xa8
 190 398 l 2
 187 456 181 561 177 610 c 0
 175 638 171 648 155 650 c 2
 115 654 l 1
EndSplineSet
EndChar

StartChar: X
Encoding: 88 88 56
Width: 630
Flags: MW
HStem: 0 40 652 40<740 740>
VStem: -21 800<0 692>
DStem2: 370 614 209 614 0.377023 -0.926204<-26.3134 176.027 221.331 251.873 303.836 543.331>
LayerCount: 2
Fore
SplineSet
-21 0 m 1
 -14 38 l 1
 21 42 l 2
 50 45 78 59 104 86 c 0
 159 141 253 249 324 334 c 1
 286 426 248 527 209 614 c 0
 198 638 184 648 167 650 c 2
 124 654 l 1
 134 692 l 1
 441 692 l 1
 434 654 l 1
 383 647 l 2
 364 645 362 634 370 614 c 2
 434 450 l 1
 437 450 l 1
 485 508 539 571 576 620 c 0
 588 636 587 648 571 650 c 2
 524 654 l 1
 533 692 l 1
 779 692 l 1
 770 654 l 1
 740 652 l 2
 708 650 686 636 664 615 c 0
 607 564 520 473 457 399 c 1
 502 297 543 184 584 91 c 0
 598 60 613 45 641 42 c 2
 679 38 l 1
 672 0 l 1
 344 0 l 1
 352 38 l 1
 406 44 l 2
 426 46 435 58 428 76 c 2
 348 277 l 1
 346 277 l 1
 291 209 232 134 189 74 c 0
 177 56 178 44 193 43 c 2
 255 38 l 1
 247 0 l 1
 -21 0 l 1
EndSplineSet
EndChar

StartChar: Y
Encoding: 89 89 57
Width: 622
Flags: W
HStem: 0 38<152 211 427 482> 654 38<135 161 382.167 428 548 593 764 793>
DStem2: 232.375 0 385.375 0 0.224951 0.97437<86.0544 319.307> 426 347 285 311 0.249232 -0.968444<-304.96 0>
LayerCount: 2
Fore
SplineSet
127 656 m 1
 135 692 l 1
 436 692 l 1
 428 654 l 1
 373 648 l 2
 353 646 352 636 356 619 c 2
 426 347 l 1
 428 347 l 1
 492 438 576 565 606 615 c 0
 618 635 615 647 593 649 c 2
 540 654 l 1
 548 692 l 1
 800 692 l 1
 793 654 l 1
 764 651 l 2
 727 647 715 633 688 603 c 0
 638 547 543 420 477 323 c 0
 459 297 449 278 443 251 c 2
 408 98 l 2
 400 62 399 45 427 43 c 2
 491 38 l 1
 482 0 l 1
 143 0 l 1
 152 38 l 1
 211 42 l 2
 240 44 247 62 255 98 c 2
 287 246 l 2
 293 273 290 292 285 311 c 0
 260 414 231 516 202 609 c 0
 192 642 183 651 161 653 c 2
 127 656 l 1
EndSplineSet
EndChar

StartChar: Z
Encoding: 90 90 58
Width: 618
Flags: MW
HStem: 0 46<211 409 409 447.5 211 596> 646 46<355 399 399 540> 673 19<207 749>
VStem: 5 744<20 673>
DStem2: 5 20 211 46 0.65119 0.758915<153.877 823.467>
LayerCount: 2
Fore
SplineSet
5 20 m 1
 185 228 363 436 540 646 c 1
 399 646 l 2
 311 646 260 625 227 552 c 2
 206 505 l 1
 168 505 l 1
 207 692 l 1
 741 692 l 1xd0
 749 673 l 1xb0
 568 465 389 256 211 46 c 1
 409 46 l 2
 486 46 534 69 585 154 c 2
 617 208 l 1
 655 208 l 1
 596 0 l 1xd0
 12 0 l 1
 5 20 l 1
EndSplineSet
EndChar

StartChar: bracketleft
Encoding: 91 91 59
Width: 350
Flags: MW
HStem: -128 37.5 654.5 37.5
VStem: 91 372
DStem2: 91 -128 207 -40 0.22121 0.975226<69.8769 823.756>
LayerCount: 2
Fore
SplineSet
91 -128 m 1
 277 692 l 1
 463 692 l 1
 455 658 l 1
 393 651 l 2
 365 648 359 633 352 604 c 2
 207 -40 l 2
 200 -69 202 -84 227 -87 c 2
 285 -94 l 1
 277 -128 l 1
 91 -128 l 1
EndSplineSet
EndChar

StartChar: backslash
Encoding: 92 92 60
Width: 460
Flags: HMW
HStem: -15 21G<360 360 360 460> 687 20G<149 249 249 249>
VStem: 149 311
LayerCount: 2
Fore
SplineSet
149 707 m 1
 249 707 l 1
 460 -15 l 1
 360 -15 l 1
 149 707 l 1
EndSplineSet
EndChar

StartChar: bracketright
Encoding: 93 93 61
Width: 350
Flags: MW
HStem: -128 37.5 654.5 37.5
VStem: 13 372
DStem2: 124 -40 199 -128 0.22121 0.975226<-51.6583 701.638>
LayerCount: 2
Fore
SplineSet
13 -128 m 1
 21 -94 l 1
 83 -87 l 2
 111 -84 117 -69 124 -40 c 2
 269 604 l 2
 276 633 274 648 249 651 c 2
 191 658 l 1
 199 692 l 1
 385 692 l 1
 199 -128 l 1
 13 -128 l 1
EndSplineSet
EndChar

StartChar: asciicircum
Encoding: 94 94 62
Width: 600
Flags: HW
HStem: 556 112<360 360> 648 20G<311 410 410 410>
VStem: 114 488<215 215>
LayerCount: 2
Fore
SplineSet
114 215 m 1
 311 668 l 1
 410 668 l 1
 602 215 l 1x60
 498 215 l 1
 360 556 l 1xa0
 218 215 l 1
 114 215 l 1
EndSplineSet
EndChar

StartChar: underscore
Encoding: 95 95 63
Width: 500
Flags: HMW
HStem: -125 50<0 500 0 500>
VStem: 0 500<-125 -75 -125 -75>
LayerCount: 2
Fore
SplineSet
0 -75 m 1
 500 -75 l 1
 500 -125 l 1
 0 -125 l 1
 0 -75 l 1
EndSplineSet
EndChar

StartChar: quoteleft
Encoding: 8216 8216 64
Width: 246
Flags: HMW
HStem: 672 20G<348 348>
VStem: 149 150<459 491.5 452.5 532>
LayerCount: 2
Fore
SplineSet
149 481 m 0
 149 583 251 666 325 719 c 1
 348 692 l 1
 313 657 276 612 276 564 c 0
 276 527 299 509 299 474 c 0
 299 431 265 399 223 399 c 0
 173 398 149 437 149 481 c 0
EndSplineSet
EndChar

StartChar: a
Encoding: 97 97 65
Width: 596
Flags: W
HStem: -12 80<152.787 258.094 450.338 549> 456 46<363.992 466.252> 474 20G<480 621>
VStem: 61 154<68.8618 225.672>
DStem2: 386 114 520 115 0.257504 0.966277<-4.09972 91.47 158.461 341.465 382.694 392.421>
LayerCount: 2
Fore
SplineSet
61 108 m 0xb0
 61 239 171 502 409 502 c 0xd0
 436 502 462 496 480 485 c 1
 484 494 l 1
 621 494 l 1
 520 115 l 2
 513 88 513 68 531 68 c 0
 555 68 593 121 618 165 c 1
 647 149 l 1
 605 65 543 -12 448 -12 c 0
 385 -12 362 29 386 114 c 2
 411 202 l 1
 405 202 l 1
 352 111 278 -12 159 -12 c 0
 88 -12 61 47 61 108 c 0xb0
215 115 m 0
 215 87 221 68 244 68 c 0
 276 68 315 116 364 194 c 0
 413 274 449 371 467 442 c 1
 454 451 437 456 418 456 c 0
 305 456 215 220 215 115 c 0
EndSplineSet
EndChar

StartChar: b
Encoding: 98 98 66
Width: 586
Flags: HW
HStem: -12 46<280.5 357.5 280.5 365.5> 0 21G<117 117> 422 80<413.5 554> 722 20G<373 373>
VStem: 473 154<354.5 383.5>
LayerCount: 2
Fore
SplineSet
69 5 m 1x78
 210 626 l 2
 218 662 214 674 195 676 c 2
 145 683 l 1
 150 715 l 1
 373 742 l 1
 379 736 l 1
 267 304 l 1
 272 304 l 1
 341 430 425 502 515 502 c 0
 593 502 627 449 627 375 c 0
 627 334 611 242 562 154 c 0
 513 66 434 -12 297 -12 c 0
 229 -12 181 12 154 44 c 1xb8
 117 0 l 1
 69 5 l 1x78
243 109 m 0
 243 65 259 34 302 34 c 0
 413 34 473 284 473 363 c 0
 473 404 462 422 437 422 c 0xb8
 390 422 339 361 297 284 c 0
 266 226 243 152 243 109 c 0
EndSplineSet
EndChar

StartChar: c
Encoding: 99 99 67
Width: 456
Flags: HMW
HStem: -12 66<270.5 271.5> 456 46<329.5 371>
VStem: 73 153<131.5 230 131.5 232.5>
LayerCount: 2
Fore
SplineSet
73 155 m 0
 73 310 179 502 384 502 c 0
 476 502 533 462 533 405 c 0
 533 369 481 342 446 342 c 0
 419 342 411 364 405 389 c 0
 392 442 381 456 361 456 c 0
 298 456 226 298 226 162 c 0
 226 101 244 54 297 54 c 0
 363 54 410 119 448 180 c 1
 478 159 l 1
 406 16 309 -12 234 -12 c 0
 146 -12 73 34 73 155 c 0
EndSplineSet
EndChar

StartChar: d
Encoding: 100 100 68
Width: 609
Flags: W
HStem: -13 81<155.538 289.529 470.861 568> 456 46<361.564 473.441> 684 31<461 505> 722 20G<517.518 686>
VStem: 64 154<71.9766 230.035>
DStem2: 373.219 -13 510.449 -13 0.224951 0.97437<118.958 231.032 279.758 469.621 511.356 701.887>
LayerCount: 2
Back
SplineSet
64 120 m 0
 64 238 166 502 403 502 c 0
 436 502 464 496 483 485 c 1
 485 486 l 1
 520 635 l 2
 526 662 523 674 505 677 c 2
 454 684 l 1
 461 715 l 1
 679 742 l 1
 686 736 l 1
 540 115 l 2
 533 88 533 68 552 68 c 0
 574 68 612 121 637 166 c 1
 666 152 l 1
 626 65 564 -12 470 -12 c 4
 405 -14 378 21 400 103 c 2
 430 211 l 1
 426 212 l 1
 369 111 298 -12 171 -12 c 0
 87 -12 64 55 64 120 c 0
218 126 m 0
 218 90 230 68 256 68 c 0
 293 68 333 116 379 192 c 0
 423 265 459 371 474 440 c 1
 462 450 443 456 421 456 c 0
 302 456 218 220 218 126 c 0
EndSplineSet
Fore
SplineSet
64 120 m 0
 64 238 166 502 403 502 c 0
 436 502 464 496 483 485 c 1
 485 486 l 1
 520 635 l 2
 526 662 523 674 505 677 c 2
 454 684 l 1
 461 715 l 1
 679 742 l 1
 686 736 l 1
 540 115 l 2
 533 88 533 68 552 68 c 0
 574 68 612 121 637 166 c 1
 666 152 l 1
 626 65 562 -13 470 -13 c 0
 406 -13 378 21 400 103 c 2
 430 211 l 1
 426 212 l 1
 369 111 298 -12 171 -12 c 0
 87 -12 64 55 64 120 c 0
218 126 m 0
 218 90 230 68 256 68 c 0
 322.652 68 433.976 255.889 474 440 c 1
 462 450 443 456 421 456 c 0
 302 456 218 220 218 126 c 0
EndSplineSet
EndChar

StartChar: e
Encoding: 101 101 69
Width: 476
Flags: HMW
HStem: -12 66<270.5 279.5> 456 46<337.5 379>
VStem: 73 149<136 163 163 187 136 199.5> 404 128<373 421.5 370.5 426>
LayerCount: 2
Fore
SplineSet
73 161 m 0
 73 238 100 320 154 388 c 0
 208 456 285 502 384 502 c 0
 469 502 532 457 532 386 c 0
 532 355 525 322 486 286 c 0
 443 248 372 216 222 187 c 1
 222 163 l 2
 222 109 241 54 300 54 c 0
 360 54 407 100 460 176 c 1
 490 152 l 1
 417 20 323 -12 236 -12 c 0
 164 -12 73 23 73 161 c 0
226 232 m 1
 342 255 404 334 404 412 c 0
 404 440 391 456 367 456 c 0
 308 456 240 347 226 232 c 1
EndSplineSet
EndChar

StartChar: f
Encoding: 102 102 70
Width: 348
Flags: HMW
HStem: -242 46<-12.5 56> 442 48<119 194 105 205 351 467> 696 46
VStem: -94 682
LayerCount: 2
Back
SplineSet
-94 -168 m 0
 -94 -137 -66 -109 -34 -109 c 0
 -12 -109 -4 -125 5 -140 c 0
 29 -182 42 -196 52 -196 c 0
 60 -196 67 -187 71 -169 c 2
 194 442 l 1
 105 442 l 1
 119 490 l 1
 205 490 l 1
 212 516 l 2
 227 571 248 629 287 674 c 0
 323 715 374 743 445 742 c 0
 532 741 588 700 588 654 c 0
 588 618 550 594 519 594 c 0
 495 594 485 608 477 624 c 0
 450 682 437 696 422 696 c 0
 406 696 396 678 386 636 c 2
 351 490 l 1
 479 490 l 1
 467 442 l 1
 342 442 l 1
 245 28 l 2
 203 -151 147 -239 26 -242 c 0
 -51 -242 -94 -210 -94 -168 c 0
EndSplineSet
Fore
SplineSet
-94 -168 m 0
 -94 -137 -66 -109 -34 -109 c 0
 -12 -109 -4 -125 5 -140 c 0
 29 -182 42 -196 52 -196 c 0
 60 -196 67 -187 71 -169 c 2
 194 442 l 1
 105 442 l 1
 119 490 l 1
 205 490 l 1
 212 516 l 2
 243.351 630.953 298.817 742 445 742 c 0
 531 742 588 700 588 654 c 0
 588 618 550 594 519 594 c 0
 495 594 485 608 477 624 c 0
 450 682 437 696 422 696 c 0
 406 696 396 678 386 636 c 2
 351 490 l 1
 479 490 l 1
 467 442 l 1
 342 442 l 1
 245 28 l 2
 203 -151 143 -242 26 -242 c 0
 -51 -242 -94 -210 -94 -168 c 0
EndSplineSet
EndChar

StartChar: g
Encoding: 103 103 71
Width: 522
Flags: HW
HStem: -242 46<252 310.5 252 340.5> 0 21G 177 46<305 315> 456 46<326.5 372>
VStem: 21 137<-93 -64.5> 106 152 202 21 398 127 418 136<297.5 395>
LayerCount: 2
Fore
SplineSet
21 -105 m 0
 21 -24 110 9 179 18 c 1
 179 20 l 1
 122 38 88 68 88 100 c 0
 88 134 121 157 162 174 c 0
 172 178 191 185 202 189 c 1
 202 191 l 1xfb
 160 204 107 243 106 313 c 0xf5
 104 390 160 502 355 502 c 0
 406 502 461 489 494 472 c 1
 638 512 l 1
 644 503 l 1
 613 428 l 1xf9
 537 416 l 1
 547 401 554 379 554 352 c 0xf480
 554 243 456 178 315 177 c 0
 295 177 280 177 255 179 c 1
 238 173 223 164 223 147 c 0
 224 124 251 116 345 94 c 0
 448 70 525 23 525 -70 c 0
 525 -186 421 -242 260 -242 c 0
 116 -242 23 -186 21 -105 c 0
158 -93 m 0xf9
 159 -162 220 -196 284 -196 c 0
 337 -196 399 -169 398 -105 c 0
 396 -27 292 -9 233 0 c 1
 210 -4 158 -29 158 -93 c 0xf9
258 291 m 0
 258 252 276 223 316 223 c 0
 344 223 369 240 387 271 c 0
 406 304 418 349 418 395 c 0
 416 443 385 456 359 456 c 0
 294 456 258 361 258 291 c 0
EndSplineSet
EndChar

StartChar: h
Encoding: 104 104 72
Width: 629
Flags: MW
HStem: -12 80<438 562.5> 422 80<428.5 575.5> 722 20G<385 385>
VStem: 391 144 478 145
DStem2: 79 -12 218 0 0.227271 0.973831<43.2767 301.083 345.33 698.466> 399 113 540 115 0.282787 0.959183<-0.780947 310.638>
LayerCount: 2
Fore
SplineSet
79 -12 m 1
 222 633 l 2
 229 662 225 674 206 676 c 2
 148 683 l 1
 156 715 l 1
 385 742 l 1
 390 737 l 1
 283 295 l 1
 288 295 l 1
 342 397 431 502 536 502 c 0
 615 502 641 439 612 347 c 2xe8
 540 115 l 2
 532 87 532 68 551 68 c 0
 574 68 612 121 637 167 c 1
 666 152 l 1
 626 65 565 -12 470 -12 c 0
 406 -12 375 30 399 113 c 2xf0
 473 364 l 2
 485 401 475 422 453 422 c 0
 404 422 322 314 283 213 c 0
 260 156 245 102 218 0 c 1xe8
 79 -12 l 1
EndSplineSet
EndChar

StartChar: i
Encoding: 105 105 73
Width: 339
Flags: W
HStem: -12 80<144.5 280> 440 33<118 168> 482 20<189.379 354> 559 161<253.121 365.718>
VStem: 225 167<585.291 691.631>
DStem2: 108 107 251 115 0.260973 0.965346<2.15056 331.873>
LayerCount: 2
Fore
SplineSet
225 632 m 0
 225 675 253 720 312 720 c 0
 356 720 392 696 392 647 c 0
 392 592 357 559 306 559 c 0
 258 559 225 587 225 632 c 0
EndSplineSet
Refer: 144 305 N 1 0 0 1 0 0 2
EndChar

StartChar: j
Encoding: 106 106 74
Width: 333
Flags: W
HStem: -242 46<32.975 74.8154> 440 33<128 184> 482 20<200 367> 559 161<260.121 372.718>
VStem: 232 167<585.291 691.631>
DStem2: 59.5305 -242 197.284 -242 0.224951 0.97437<107.433 686.856>
LayerCount: 2
Fore
SplineSet
232 632 m 0
 232 675 260 720 319 720 c 0
 363 720 399 696 399 647 c 0
 399 592 364 559 313 559 c 0
 265 559 232 587 232 632 c 0
EndSplineSet
Refer: 232 567 S 1 0 0 1 0 0 2
EndChar

StartChar: k
Encoding: 107 107 75
Width: 570
Flags: W
HStem: -12 80<417 518.844> 404 98<478.5 601.579> 683 32<159 206> 722 20G<217.074 388>
DStem2: 74 -12 213.23 -12 0.224951 0.97437<43.6355 700.362>
LayerCount: 2
Fore
SplineSet
74 -12 m 1
 222 633 l 2
 229 662 225 674 206 676 c 2
 148 683 l 1
 159 715 l 1
 383 742 l 1
 388 737 l 1
 216 0 l 1
 74 -12 l 1
285 254 m 1
 300 278 318 299 335 318 c 0
 407 400 499 502 577 502 c 0
 618 502 639 473 639 443 c 0
 639 401 615 365 578 365 c 0
 560 365 547 373 533 383 c 0
 512 399 501 404 489 404 c 0
 468 404 432 370 399 332 c 1
 416 264 446 173 468 117 c 0
 480 86 493 68 509 68 c 0
 528 68 552 102 582 153 c 1
 613 137 l 1
 574 45 521 -12 445 -12 c 0
 389 -12 358 22 337 79 c 0
 316 134 296 207 285 254 c 1
EndSplineSet
EndChar

StartChar: l
Encoding: 108 108 76
Width: 327
Flags: HMW
HStem: -12 80<142 266> 722 20G<389 389>
VStem: 97 144
LayerCount: 2
Fore
SplineSet
104 115 m 2
 229 633 l 2
 236 662 232 674 213 676 c 2
 155 683 l 1
 162 715 l 1
 389 742 l 1
 395 737 l 1
 244 115 l 2
 238 88 237 68 255 68 c 0
 277 68 316 118 342 166 c 1
 373 148 l 1
 332 65 271 -12 176 -12 c 0
 108 -12 84 32 104 115 c 2
EndSplineSet
EndChar

StartChar: m
Encoding: 109 109 77
Width: 914
Flags: MW
HStem: -12 80<724.5 857> 422 80<435.857 546.592 723.61 838.828> 440 33<116 167>
DStem2: 81 -12 219 0 0.253533 0.967327<46.5955 315.894 337.082 453.438> 370 -12 508 0 0.262483 0.964937<47.8019 324.078 339.43 441.788> 687 107 828 115 0.28358 0.958949<4.9907 319.12>
LayerCount: 2
Fore
SplineSet
81 -12 m 1xc0
 182 391 l 2
 189 418 186 432 167 434 c 2
 109 440 l 1
 116 473 l 1xa0
 344 502 l 1
 349 496 l 1
 285 283 l 1
 290 283 l 1
 352 401 446 502 535 502 c 0
 614 502 621 439 596 356 c 2
 575 284 l 1
 580 283 l 1
 642 402 731 502 830 502 c 0
 909 502 925 435 901 357 c 2
 828 115 l 2
 819 89 819 68 838 68 c 0
 862 68 900 121 925 166 c 1
 952 148 l 1
 912 65 852 -12 754 -12 c 0
 695 -12 666 29 687 107 c 2
 763 364 l 2
 773 398 772 422 745 422 c 0
 698 422 609 289 578 214 c 0
 555 156 536 102 508 0 c 1
 370 -12 l 1
 475 374 l 2
 484 409 479 422 455 422 c 0
 408 422 318 287 288 212 c 0
 266 156 248 102 219 0 c 1
 81 -12 l 1xc0
EndSplineSet
EndChar

StartChar: n
Encoding: 110 110 78
Width: 635
Flags: MW
HStem: -12 80<442.5 578> 422 80<437 590> 440 33<116 168>
DStem2: 80 -12 221 0 0.258509 0.966009<48.0419 314.51> 405 107 548 115 0.284598 0.958647<5.88329 316.847>
LayerCount: 2
Fore
SplineSet
80 -12 m 1xc0
 183 391 l 2
 191 418 187 432 168 434 c 2
 108 440 l 1
 116 473 l 1xa0
 349 502 l 1
 354 497 l 1
 286 280 l 1
 292 280 l 1
 354 396 445 502 548 502 c 0
 632 502 646 436 623 357 c 2
 548 115 l 2
 540 89 541 68 559 68 c 0
 583 68 621 121 645 166 c 1
 674 148 l 1
 633 64 573 -12 473 -12 c 0
 412 -12 383 30 405 107 c 2
 481 363 l 2
 490 393 492 422 461 422 c 0
 413 422 323 288 293 213 c 0
 270 155 250 102 221 0 c 1
 80 -12 l 1xc0
EndSplineSet
EndChar

StartChar: o
Encoding: 111 111 79
Width: 562
Flags: HMW
HStem: -12 46<263.5 334.5 263.5 347> 456 46<365.5 412.5>
VStem: 77 145<120 140.5 82 196.5> 446 145<337 385 285.5 395>
LayerCount: 2
Fore
SplineSet
77 174 m 0
 77 219 90 300 136 371 c 0
 181 441 252 502 381 502 c 0
 484 502 591 462 591 308 c 0
 591 263 575 188 529 115 c 0
 482 40 410 -12 284 -12 c 0
 139 -12 77 66 77 174 c 0
222 107 m 0
 222 57 245 34 282 34 c 0
 387 34 446 300 446 374 c 0
 446 416 436 456 389 456 c 0
 342 456 305 408 274 339 c 0
 242 266 222 174 222 107 c 0
EndSplineSet
EndChar

StartChar: p
Encoding: 112 112 80
Width: 606
Flags: HW
HStem: -242 21G<39.3602 175> -12 46<252.727 372.659> 422 80<455.184 572.5> 440 33<106 158>
VStem: 494 154<252.753 417.376>
DStem2: 35 -242 172.23 -242 0.224951 0.97437<43.1856 288.882 335.09 554.745 571.155 600.349>
LayerCount: 2
Back
SplineSet
35 -242 m 1xe8
 173 391 l 2
 179 417 177 432 158 434 c 2
 99 440 l 1
 106 473 l 1xd8
 335 502 l 1
 340 497 l 1
 283 286 l 1
 287 286 l 1
 364 429 449 502 536 502 c 0
 609 502 645 459 648 374 c 0
 652 300 581 -12 339 -12 c 0
 287 -12 252 -3 232 9 c 1
 175 -230 l 1
 35 -242 l 1xe8
243 64 m 1
 261 46 287 34 318 34 c 0
 435 34 497 299 494 367 c 0
 494 403 483 422 457 422 c 0xe8
 418 422 366 364 321 283 c 0
 285 217 255 117 243 64 c 1
EndSplineSet
Fore
SplineSet
35 -242 m 1xe8
 173 391 l 2
 179 417 177 432 158 434 c 2
 99 440 l 1
 106 473 l 1xd8
 335 502 l 1
 340 497 l 1
 283 286 l 1
 287 286 l 1
 364 429 449 502 536 502 c 0
 612 502 648 452 648 374 c 0
 648 286 578 -12 339 -12 c 0
 287 -12 252 -3 232 9 c 1
 175 -230 l 1
 35 -242 l 1xe8
243 64 m 1
 261 46 287 34 318 34 c 0
 433 34 494 284 494 367 c 0
 494 403 483 422 457 422 c 0xe8
 418 422 366 364 321 283 c 0
 285 217 255 117 243 64 c 1
EndSplineSet
EndChar

StartChar: q
Encoding: 113 113 81
Width: 584
Flags: HMW
HStem: -242 21G -12 80<143 266.5> 456 46<363 440.5>
VStem: 64 154
LayerCount: 2
Fore
SplineSet
64 98 m 0
 60 237 162 502 419 502 c 0
 474 502 515 491 543 479 c 1
 583 513 l 1
 639 513 l 1
 465 -221 l 1
 320 -242 l 1
 418 190 l 1
 415 190 l 1
 340 64 259 -12 171 -12 c 0
 115 -12 67 21 64 98 c 0
218 122 m 0
 218 95 224 68 252 68 c 0
 281 68 311 92 360 161 c 0
 412 234 458 335 483 442 c 1
 469 451 450 456 431 456 c 0
 295 456 218 217 218 122 c 0
EndSplineSet
EndChar

StartChar: r
Encoding: 114 114 82
Width: 440
Flags: HW
HStem: -12 21G<86 86> 357 145<455 484> 477 20G<330 330>
VStem: 86 446<-12 463>
LayerCount: 2
Fore
SplineSet
86 -12 m 1
 179 391 l 2
 185 418 183 432 164 434 c 2
 105 440 l 1
 112 473 l 1
 325 502 l 1
 330 497 l 1xb0
 293 352 l 1
 298 352 l 1
 348 443 409 502 470 502 c 0
 508 502 532 483 532 443 c 0
 532 404 504 357 464 357 c 0
 446 357 430 366 416 376 c 0
 403 385 390 392 378 392 c 0xd0
 346 392 312 322 281 213 c 0
 262 146 244 65 226 0 c 1xb0
 86 -12 l 1
EndSplineSet
EndChar

StartChar: s
Encoding: 115 115 83
Width: 417
Flags: HMW
HStem: -12 46<235.5 266 235.5 293.5> 456 46<275 301>
VStem: 127 114 303 114<70.5 178>
LayerCount: 2
Fore
SplineSet
45 89 m 0
 45 126 81 158 111 158 c 0
 134 158 147 144 155 128 c 0
 192 54 220 34 251 34 c 0
 281 34 303 55 303 86 c 0
 300 131 259 168 217 202 c 0
 175 236 130 281 127 340 c 0
 123 424 188 502 309 502 c 4
 422 502 467 448 467 415 c 4
 467 375 428 356 401 356 c 4
 383 356 372 362 362 382 c 4
 334 436 314 456 288 456 c 4
 262 456 240 435 241 404 c 0
 243 366 270 337 326 295 c 0
 371 261 417 211 417 145 c 0
 417 62 362 -12 225 -12 c 0
 100 -12 45 45 45 89 c 0
EndSplineSet
EndChar

StartChar: t
Encoding: 116 116 84
Width: 359
Flags: MW
HStem: -12 80<152 279.5> 442 48<122 193 110 203 343 451>
VStem: 103 145
DStem2: 109 111 251 111 0.25212 0.967696<-2.82287 341.485 425.753 467.108>
LayerCount: 2
Fore
SplineSet
109 111 m 2
 193 442 l 1
 110 442 l 1
 122 490 l 1
 203 490 l 1
 223 564 l 1
 374 641 l 1
 387 633 l 1
 343 490 l 1
 463 490 l 1
 451 442 l 1
 333 442 l 1
 251 111 l 2
 246 89 245 68 265 68 c 0
 294 68 334 116 364 166 c 1
 392 147 l 1
 344 56 274 -12 181 -12 c 0
 123 -12 87 24 109 111 c 2
EndSplineSet
EndChar

StartChar: u
Encoding: 117 117 85
Width: 634
Flags: MW
HStem: -12 80<178.209 295.942 485.64 581> 443 59<109 348>
DStem2: 82.5241 -12 226.678 -12 0.224951 0.97437<120.92 456.256> 390.066 -12 521.68 -12 0.224951 0.97437<116.669 228.893 269.446 516.113>
LayerCount: 2
Fore
SplineSet
109 443 m 1
 117 476 l 1
 348 502 l 1
 353 497 l 1
 259 128 l 2
 249 91 250 68 278 68 c 0
 325 68 407 199 443 285 c 0
 465 335 481 388 510 490 c 1
 652 502 l 1
 551 115 l 2
 543 89 544 68 563 68 c 0
 586 68 623 121 649 166 c 1
 678 148 l 1
 637 65 576 -12 479 -12 c 0
 425 -12 397 28 415 96 c 2
 446 210 l 1
 442 210 l 1
 379 94 296 -12 183 -12 c 0
 103 -12 95 53 116 133 c 2
 183 391 l 2
 191 421 187 435 168 437 c 2
 109 443 l 1
EndSplineSet
EndChar

StartChar: v
Encoding: 118 118 86
Width: 518
Flags: HW
HStem: -12 80<166.5 291> 477 20G<341 341> 482 20G<336 336 533 555>
VStem: 110 145 456 126<355 445.5>
LayerCount: 2
Fore
SplineSet
103 443 m 1
 110 476 l 1
 336 502 l 1
 341 497 l 1xf8
 258 137 l 2
 248 94 260 68 291 68 c 0
 359 67 448 209 456 355 c 0
 456 407 454 446 444 481 c 1
 477 494 515 502 551 502 c 0
 559 502 582 467 582 424 c 0xb8
 581 362 534 253 457 157 c 0
 385 66 299 -12 205 -12 c 0
 128 -12 94 32 116 128 c 2
 177 391 l 2
 184 421 180 435 162 437 c 2
 103 443 l 1
EndSplineSet
EndChar

StartChar: w
Encoding: 119 119 87
Width: 795
Flags: HW
HStem: -12 80<163.5 295.5> 473 20G<630 630> 477 20G<344 344> 482 20G<339 339 812.5 834>
VStem: 110 144 422 130 741 120<355 445.5>
LayerCount: 2
Fore
SplineSet
105 443 m 1
 112 476 l 1
 339 502 l 1
 344 497 l 1xae
 259 140 l 2
 246 86 261 68 284 68 c 0
 307 68 336 94 376 159 c 0
 430 249 462 361 494 487 c 1xde
 630 493 l 1xce
 561 185 l 2
 543 106 550 68 592 68 c 0
 656 68 735 216 741 355 c 0
 741 404 737 442 727 481 c 1
 764 494 795 502 830 502 c 0
 838 502 861 466 861 425 c 0x9e
 860 365 818 256 747 158 c 0
 680 66 602 -12 512 -12 c 0
 448 -12 422 29 422 81 c 0
 422 117 430 156 439 195 c 1
 435 195 l 1
 372 74 286 -12 193 -12 c 0
 134 -12 93 33 116 128 c 2
 179 391 l 2
 186 422 182 435 164 437 c 2
 105 443 l 1
EndSplineSet
EndChar

StartChar: x
Encoding: 120 120 88
Width: 516
Flags: W
HStem: -12 102<56.5129 150.52> -12 80<341.5 446.704> 399 103<434 545.068> 421 31<106 132.4>
DStem2: 351 352 206 393 0.226397 -0.974035<-108.073 0 29.4649 119.77 156.446 296.344>
LayerCount: 2
Fore
SplineSet
9 50 m 0x80
 9 89 37 124 67 124 c 0
 86 124 103 111 115 103 c 0
 126 95 135 90 147 90 c 0
 165 90 191 129 223 190 c 0
 228 200 240 221 245 232 c 1
 206 393 l 2
 200 419 190 423 166 423 c 2
 106 421 l 1
 103 452 l 1x90
 313 502 l 1
 320 498 l 1
 351 352 l 1
 353 352 l 1
 363 370 383 402 399 424 c 0
 437 476 474 502 520 502 c 0
 552 502 581 484 581 445 c 0
 581 408 554 376 525 376 c 0
 510 376 494 383 483 388 c 0
 469 395 458 399 447 399 c 0
 421 399 391 350 363 301 c 1
 406 128 l 2
 417 84 425 68 442 68 c 0
 467 69 497 122 523 179 c 1
 554 164 l 1
 523 78 467 -12 372 -12 c 0x60
 311 -12 290 37 275 102 c 2
 259 170 l 1
 256 170 l 1
 248 154 230 121 223 107 c 0
 186 40 151 -12 87 -12 c 0
 38 -12 9 15 9 50 c 0x80
EndSplineSet
EndChar

StartChar: y
Encoding: 121 121 89
Width: 489
Flags: W
HStem: -242 73<48 158.159> 424 30<57 88.6458> 482 20G<183.583 282 534 550>
VStem: 200 117<72 218.351> 442 125<380.5 484.975>
LayerCount: 2
Fore
SplineSet
-14 -180 m 0
 -16 -141 18 -100 54 -99 c 0
 76 -99 85 -110 101 -132 c 0
 116 -154 131 -169 145 -169 c 0
 162 -169 177 -152 189 -112 c 0
 198 -82 200 -48 200 -10 c 0
 200 86 171 285 156 363 c 0
 148 408 141 425 119 424 c 2
 57 424 l 1
 57 454 l 1
 274 502 l 1
 282 498 l 1
 297 444 316 222 317 72 c 1
 320 72 l 1
 377 175 420 271 433 339 c 0
 441 381 443 442 442 477 c 1
 482 495 522 502 546 502 c 0
 554 502 567 472 567 448 c 0
 567 406 508 309 450 213 c 0
 389 113 332 5 311 -29 c 0
 229 -163 180 -242 77 -242 c 0
 19 -242 -14 -211 -14 -180 c 0
EndSplineSet
EndChar

StartChar: z
Encoding: 122 122 90
Width: 466
Flags: HW
HStem: -12 117<367 406 367 419.5> 396 94<197 225 225 370> 474 16<170 541>
VStem: 18 105<20 20 20 29> 18 523<11.5 474>
LayerCount: 2
Fore
SplineSet
18 19 m 0
 18 39 32 63 45 78 c 0xb0
 147 189 263 295 370 394 c 1
 370 396 l 1
 225 396 l 2
 169 396 150 365 118 306 c 1
 93 318 l 1
 115 404 147 465 170 490 c 1xc8
 533 490 l 1xc8
 541 474 l 1
 417 360 293 249 207 156 c 1
 207 150 l 1
 226 147 253 137 278 128 c 0
 314 116 354 105 380 105 c 0
 432 105 457 157 486 211 c 1
 515 201 l 1
 488 87 457 -12 382 -12 c 0
 339 -12 288 6 231 28 c 0
 155 58 138 68 129 68 c 0
 123 68 119 61 119 50 c 2
 123 20 l 2
 124 -3 96 -12 56 -12 c 0
 25 -12 18 4 18 19 c 0
EndSplineSet
EndChar

StartChar: braceleft
Encoding: 123 123 91
Width: 340
Flags: W
HStem: -128 34<262 296> 265 34<132 163.5> 672 20G<431 474 474 474>
VStem: 133 97 196 102
LayerCount: 2
Fore
SplineSet
125 265 m 1xf8
 132 299 l 1
 226 299 236 340 245 411 c 2
 257 505 l 2
 267 588 289 692 431 692 c 2
 474 692 l 1
 466 658 l 1
 386 652 371 605 362 539 c 2
 352 462 l 2
 340 362 335 309 221 285 c 1
 220 279 l 1
 333 255 297 182 271 102 c 2xe8
 244 25 l 2
 221 -41 217 -88 296 -94 c 1
 289 -128 l 1
 262 -128 l 2xf0
 104 -128 125 -24 152 59 c 2
 184 153 l 2
 207 224 202 265 125 265 c 1xf8
EndSplineSet
EndChar

StartChar: bar
Encoding: 124 124 92
Width: 265
Flags: MW
HStem: -250 1000<152 256 152 256>
VStem: 152 104<-250 750 -250 750>
LayerCount: 2
Fore
SplineSet
152 -250 m 1
 152 750 l 1
 256 750 l 1
 256 -250 l 1
 152 -250 l 1
EndSplineSet
EndChar

StartChar: braceright
Encoding: 125 125 93
Width: 340
Flags: HW
HStem: 265 34<303.5 335> 658 34<171 205>
VStem: 169 102 237 97
LayerCount: 2
Fore
SplineSet
-7 -128 m 1
 1 -94 l 1
 81 -88 96 -41 105 25 c 2
 115 102 l 2
 127 202 132 255 246 279 c 1
 247 285 l 1
 134 309 170 382 196 462 c 2xe0
 223 539 l 2
 246 605 250 652 171 658 c 1
 178 692 l 1xd0
 205 692 l 2xd0
 363 692 342 588 315 505 c 2
 283 411 l 2
 260 340 265 299 342 299 c 1
 335 265 l 1
 236 265 231 224 222 153 c 2
 210 59 l 2
 200 -24 178 -128 36 -128 c 2
 -7 -128 l 1
EndSplineSet
EndChar

StartChar: asciitilde
Encoding: 126 126 94
Width: 600
Flags: HW
HStem: 177 89<449.5 482.5 449.5 493.5> 234 89<227 262.5>
VStem: 105 501<185 310>
LayerCount: 2
Fore
SplineSet
105 185 m 1
 129 242 168 323 260 323 c 0x60
 296 323 332 309 366 295 c 0
 400 280 434 266 465 266 c 0
 500 266 523 284 552 338 c 1xe0
 606 310 l 1
 578 244 537 177 450 177 c 0xa0
 407 177 373 191 342 206 c 0
 310 220 281 234 244 234 c 0
 210 234 185 208 161 157 c 1
 105 185 l 1
EndSplineSet
EndChar

StartChar: exclamdown
Encoding: 161 161 95
Width: 285
Flags: HMW
HStem: 324 178<210.5 253.5>
VStem: 143 180<392.5 432.5>
LayerCount: 2
Fore
SplineSet
37 -113 m 2
 178 273 l 1
 233 273 l 1
 197 -113 l 2
 190 -183 176 -217 94 -217 c 0
 11 -217 11 -183 37 -113 c 2
143 402 m 0
 143 463 185 502 236 502 c 0
 296 502 323 466 323 423 c 0
 323 362 280 324 227 324 c 0
 169 324 143 361 143 402 c 0
EndSplineSet
EndChar

StartChar: cent
Encoding: 162 162 96
Width: 560
Flags: HMW
HStem: 87 53<367 379> 553 46<418 428 428 471> 648 20G<443 497 497 497>
VStem: 115 145
LayerCount: 2
Fore
SplineSet
115 280 m 0
 115 339 134 418 183 484 c 0
 233 551 316 598 428 599 c 1
 443 668 l 1
 497 668 l 1
 482 597 l 1
 547 597 647 555 646 490 c 0
 645 450 603 431 572 432 c 0
 546 432 537 449 532 467 c 0
 513 530 490 554 471 553 c 1
 379 140 l 1
 439 136 503 160 558 234 c 1
 586 212 l 1
 536 125 452 88 367 87 c 1
 342 -21 l 1
 287 -21 l 1
 312 87 l 1
 215 90 115 139 115 280 c 0
260 269 m 0
 259 214 272 163 325 149 c 1
 418 553 l 1
 322 554 262 366 260 269 c 0
EndSplineSet
EndChar

StartChar: sterling
Encoding: 163 163 97
Width: 560
Flags: HW
HStem: 0 9 0 113<257 441 441 459 257 502> 290 48<115 215 115 226 104 215 375 507 375 375> 633 46<390.5 429.5>
VStem: 195 138<440.5 530> 226 149<290 290>
LayerCount: 2
Fore
SplineSet
31 9 m 1
 61 72 l 1
 149 93 228 137 234 207 c 0
 237 233 235 258 226 290 c 1xb4
 104 290 l 1
 115 338 l 1x78
 215 338 l 1
 203 372 195 419 195 462 c 0
 195 562 264 679 427 679 c 0
 581 679 618 598 618 563 c 0
 617 520 571 504 544 504 c 0
 517 504 504 517 497 538 c 0
 473 603 448 633 411 633 c 0
 370 633 335 596 333 530 c 0
 333 503 335 473 344 434 c 0
 351 400 362 366 370 338 c 1x78
 516 338 l 1
 507 290 l 1
 375 290 l 1
 376 270 375 256 371 238 c 0
 361 187 312 140 258 116 c 1
 257 113 l 1
 441 113 l 2
 477 113 502 123 519 143 c 2
 539 168 l 1
 572 151 l 1
 502 0 l 1x74
 41 0 l 1
 31 9 l 1
EndSplineSet
EndChar

StartChar: fraction
Encoding: 8260 8260 98
Width: 100
Flags: HMW
HStem: 675 20G<361 361>
VStem: -141 546
LayerCount: 2
Fore
SplineSet
-141 11 m 1
 361 695 l 1
 405 661 l 1
 -100 -27 l 1
 -141 11 l 1
EndSplineSet
EndChar

StartChar: yen
Encoding: 165 165 99
Width: 560
Flags: HMW
HStem: 0 36<134 191 390 442> 179 48<111 249 403 556> 314 48<145 258 459 577> 632 36<147 168 368 415 486 532 674 703>
VStem: 147 564<668 668>
DStem2: 227 79 370 79 0.217492 0.976062<-2.01161 102.391 182.736 237.933>
LayerCount: 2
Fore
SplineSet
100 179 m 1
 111 227 l 1
 259 227 l 1
 267 262 l 2
 273 286 271 301 269 314 c 1
 134 314 l 1
 145 362 l 1
 258 362 l 1
 233 469 213 544 201 589 c 0
 193 619 184 625 168 627 c 2
 138 632 l 1
 147 668 l 1
 424 668 l 1
 415 632 l 1
 368 628 l 2
 348 626 346 617 348 600 c 0
 356 542 375 454 395 361 c 1
 397 361 l 1
 457 453 526 573 540 598 c 0
 549 614 547 625 532 627 c 2
 477 632 l 1
 486 668 l 1
 711 668 l 1
 703 632 l 1
 674 629 l 2
 649 626 637 613 611 581 c 0
 597 564 527 466 459 362 c 1
 587 362 l 1
 577 314 l 1
 429 314 l 1
 425 306 416 285 411 263 c 2
 403 227 l 1
 566 227 l 1
 556 179 l 1
 392 179 l 1
 370 79 l 2
 365 58 366 43 390 41 c 2
 449 36 l 1
 442 0 l 1
 127 0 l 1
 134 36 l 1
 191 40 l 2
 213 42 222 58 227 79 c 2
 249 179 l 1
 100 179 l 1
EndSplineSet
EndChar

StartChar: florin
Encoding: 402 402 100
Width: 560
Flags: HMW
HStem: -135 46<154 163 154 169> 361 48<171 264 160 275 429 544> 645 46<498.5 515>
VStem: 19 651
LayerCount: 2
Fore
SplineSet
19 -64 m 0
 20 -33 48 -9 77 -9 c 0
 94 -9 104 -20 112 -36 c 0
 132 -72 149 -89 159 -89 c 0
 167 -89 174 -81 179 -58 c 2
 264 361 l 1
 160 361 l 1
 171 409 l 1
 275 409 l 1
 287 462 l 2
 302 525 327 585 368 629 c 0
 404 667 457 691 516 691 c 0
 642 691 672 627 670 601 c 0
 669 566 631 547 600 547 c 0
 578 547 568 558 558 579 c 0
 536 628 523 645 507 645 c 0
 490 645 477 626 466 575 c 2
 429 409 l 1
 554 409 l 1
 544 361 l 1
 417 361 l 1
 390 245 l 2
 351 76 318 -12 273 -71 c 0
 244 -109 197 -135 141 -135 c 0
 54 -135 19 -92 19 -64 c 0
EndSplineSet
EndChar

StartChar: section
Encoding: 167 167 101
Width: 568
Flags: HMW
HStem: -115 46<285.5 318.5 285.5 334> 661 46<395 426.5>
VStem: 119 78<387.5 391.5> 505 81<181 307>
LayerCount: 2
Fore
SplineSet
99 -12 m 0
 99 22 126 50 165 50 c 0
 184 50 197 37 205 18 c 0
 236 -52 270 -69 301 -69 c 0
 336 -69 370 -43 370 -1 c 0
 370 46 347 88 256 145 c 0
 144 215 119 283 119 344 c 0
 119 439 177 512 258 561 c 1
 261 617 313 707 438 707 c 0
 541 707 594 662 594 620 c 0
 594 587 561 567 532 567 c 0
 513 567 505 577 494 596 c 0
 467 645 441 661 412 661 c 0
 378 661 352 636 352 600 c 0
 352 568 367 532 465 469 c 0
 557 410 586 346 586 268 c 0
 586 184 521 98 466 49 c 1
 461 -43 391 -115 277 -115 c 0
 165 -115 99 -64 99 -12 c 0
197 409 m 0
 197 366 221 315 327 247 c 0
 394 204 447 148 455 109 c 1
 476 125 505 158 505 204 c 0
 505 248 488 302 395 366 c 0
 334 408 274 454 264 506 c 1
 228 494 197 456 197 409 c 0
EndSplineSet
EndChar

StartChar: currency
Encoding: 164 164 102
Width: 560
Flags: HMW
HStem: 98 89<332 376> 481 89<332 376 332 391.5>
VStem: 120 102<309.5 358.5> 486 102<309.5 358.5 309.5 375.5>
LayerCount: 2
Fore
SplineSet
114 88 m 0
 85 116 93 144 114 161 c 2
 163 200 l 1
 135 232 120 285 120 334 c 0
 120 383 135 436 163 468 c 1
 114 507 l 2
 93 524 85 552 114 580 c 0
 138 604 171 598 186 578 c 2
 224 529 l 1
 257 557 310 570 354 570 c 0
 398 570 451 557 484 529 c 1
 522 578 l 2
 537 598 570 604 594 580 c 0
 623 552 615 524 594 507 c 2
 545 468 l 1
 573 436 588 383 588 334 c 0
 588 285 573 232 545 200 c 1
 594 161 l 2
 615 144 623 116 594 88 c 0
 570 64 537 70 522 90 c 2
 484 139 l 1
 451 111 398 98 354 98 c 0
 310 98 257 111 224 139 c 1
 186 90 l 2
 171 70 138 64 114 88 c 0
222 334 m 0
 222 251 279 187 354 187 c 0
 429 187 486 251 486 334 c 0
 486 417 429 481 354 481 c 0
 279 481 222 417 222 334 c 0
EndSplineSet
EndChar

StartChar: quotesingle
Encoding: 39 39 103
Width: 246
Flags: HMW
HStem: 687 20G<230 292>
VStem: 174.5 145.5
LayerCount: 2
Fore
SplineSet
169 376 m 1
 180 630 l 2
 182 682 199 707 261 707 c 0
 323 707 331 683 311 630 c 2
 215 376 l 1
 169 376 l 1
EndSplineSet
EndChar

StartChar: guilsinglleft
Encoding: 8249 8249 106
Width: 360
Flags: HMW
HStem: 37 427<269 344>
VStem: 126 124
LayerCount: 2
Fore
SplineSet
132 231 m 2
 121 246 124 256 139 270 c 2
 344 464 l 1
 368 443 l 1
 258 272 l 2
 249 257 246 246 250 232 c 2
 297 54 l 1
 269 37 l 1
 132 231 l 2
EndSplineSet
EndChar

StartChar: guilsinglright
Encoding: 8250 8250 107
Width: 360
Flags: HMW
HStem: 37 427<117 192>
VStem: 211 124
LayerCount: 2
Fore
SplineSet
93 58 m 1
 203 229 l 2
 212 244 215 255 211 269 c 2
 164 447 l 1
 192 464 l 1
 329 270 l 2
 340 255 337 245 322 231 c 2
 117 37 l 1
 93 58 l 1
EndSplineSet
EndChar

StartChar: fi
Encoding: 64257 64257 108
Width: 651
Flags: HW
HStem: -242 46<-12.5 56> -12 80<458 586.5> 442 48<119 194 105 205 352 446 446 463> 474 20G<667 667> 696 46<450 488>
VStem: 414 146
LayerCount: 2
Fore
SplineSet
-94 -168 m 0
 -94 -137 -66 -109 -34 -109 c 0
 -12 -109 -4 -125 5 -140 c 0
 29 -182 42 -196 52 -196 c 0
 60 -196 67 -187 71 -169 c 2
 194 442 l 1
 105 442 l 1
 119 490 l 1
 205 490 l 1
 206 490 l 1
 212 516 l 2
 233 604 286 742 484 742 c 0
 611 742 680 688 680 631 c 0
 680 581 631 561 590 561 c 0
 552 561 549 586 545 605 c 0
 532 667 505 696 471 696 c 0
 429 696 391 663 362 536 c 2
 352 490 l 1
 446 490 l 2xec
 546 490 618 497 661 501 c 1
 667 494 l 1xdc
 564 115 l 2
 557 89 556 68 575 68 c 0
 598 68 636 121 661 166 c 1xec
 690 152 l 1
 650 65 589 -12 493 -12 c 0
 423 -12 400 30 421 107 c 2
 498 393 l 2
 508 433 497 442 463 442 c 2
 342 442 l 1
 245 28 l 2
 203 -151 147 -239 26 -242 c 0
 -51 -242 -94 -210 -94 -168 c 0
EndSplineSet
EndChar

StartChar: fl
Encoding: 64258 64258 109
Width: 652
Flags: HW
HStem: -242 46<47 56 47 85> -12 80<468 592> 442 48<119 194 105 205 351 457> 681 20G<594 594> 696 46<448.5 483.5>
VStem: 423 143
LayerCount: 2
Fore
SplineSet
-94 -168 m 0
 -94 -137 -66 -109 -34 -109 c 0
 -12 -109 -4 -125 5 -140 c 0
 29 -182 42 -196 52 -196 c 0
 60 -196 67 -187 71 -169 c 2
 194 442 l 1
 105 442 l 1
 119 490 l 1
 205 490 l 1
 209 506 l 2
 232 604 291 742 471 742 c 0xec
 525 742 565 724 594 701 c 1xf4
 704 742 l 1
 720 732 l 1
 570 115 l 2
 563 88 563 68 581 68 c 0
 603 68 642 118 668 166 c 1
 699 148 l 1
 658 65 597 -12 502 -12 c 0
 434 -12 410 32 430 115 c 2
 545 591 l 1
 537 671 498 696 469 696 c 0
 428 696 390 663 361 536 c 2
 351 490 l 1
 469 490 l 1
 457 442 l 1xec
 342 442 l 1
 245 28 l 2
 203 -151 144 -242 26 -242 c 0
 -51 -242 -94 -210 -94 -168 c 0
EndSplineSet
EndChar

StartChar: endash
Encoding: 8211 8211 110
Width: 500
Flags: HMW
HStem: 209 83<66 547 47 566>
VStem: 47 519<209 292>
LayerCount: 2
Fore
SplineSet
47 209 m 1
 66 292 l 1
 566 292 l 1
 547 209 l 1
 47 209 l 1
EndSplineSet
EndChar

StartChar: dagger
Encoding: 8224 8224 111
Width: 514
Flags: HMW
HStem: 407 92<172 178.5 538.5 546> 687 20G<386 441>
VStem: 327 69
LayerCount: 2
Fore
SplineSet
138 453 m 0
 146 486 161 499 183 499 c 0
 212 499 265 486 327 476 c 1
 331 525 329 626 336 657 c 0
 343 685 360 707 412 707 c 0
 470 707 479 685 472 657 c 0
 465 626 417 525 399 476 c 1
 468 486 525 499 552 499 c 0
 574 499 586 486 578 453 c 0
 570 416 557 407 535 407 c 0
 506 407 453 420 389 430 c 1
 396 386 399 353 391 316 c 0
 379 264 296 32 248 -125 c 1
 206 -125 l 1
 230 32 251 264 263 316 c 0
 271 353 290 386 317 430 c 1
 250 420 191 407 166 407 c 0
 142 407 130 416 138 453 c 0
EndSplineSet
EndChar

StartChar: daggerdbl
Encoding: 8225 8225 112
Width: 490
Flags: HMW
HStem: 107 88<104.5 111 443 449.5> 442 88<180.5 187 519 525.5> 687 20G
VStem: 325 60
LayerCount: 2
Fore
SplineSet
69 151 m 0
 77 187 95 195 114 195 c 0
 140 195 181 182 249 175 c 1
 250 211 246 281 256 327 c 0
 267 373 295 422 314 462 c 1
 243 455 200 442 174 442 c 0
 155 442 137 450 145 486 c 0
 153 522 171 530 190 530 c 0
 216 530 257 517 325 510 c 1
 326 551 320 633 327 666 c 0
 333 693 351 709 403 707 c 0
 457 709 467 693 460 661 c 0
 454 633 410 551 393 510 c 1
 463 517 506 530 532 530 c 0
 551 530 569 522 561 486 c 0
 553 450 535 442 516 442 c 0
 490 442 449 455 382 462 c 1
 383 422 389 373 378 327 c 0
 368 281 332 211 317 175 c 1
 387 182 430 195 456 195 c 0
 475 195 493 187 485 151 c 0
 477 115 459 107 440 107 c 0
 414 107 373 120 306 127 c 1
 301 32 300 -45 292 -78 c 0
 286 -105 269 -121 216 -119 c 0
 163 -121 152 -105 159 -73 c 0
 166 -45 199 32 238 127 c 1
 167 120 124 107 98 107 c 0
 79 107 61 115 69 151 c 0
EndSplineSet
EndChar

StartChar: paragraph
Encoding: 182 182 114
Width: 580
Flags: HMW
HStem: -101 38.5 654.5 37.5
VStem: 145 543<360.5 692>
LayerCount: 2
Fore
SplineSet
145 422 m 0
 145 576 265 692 445 692 c 1
 342 238 l 1
 230 238 145 299 145 422 c 0
231 -101 m 1
 238 -68 l 1
 321 -57 l 2
 340 -55 347 -36 353 -7 c 2
 512 692 l 1
 688 692 l 1
 681 659 l 1
 613 650 l 2
 594 648 589 637 583 608 c 2
 422 -101 l 1
 231 -101 l 1
EndSplineSet
EndChar

StartChar: bullet
Encoding: 8226 8226 115
Width: 465
Flags: HMW
HStem: 174 355<262.5 360.5>
VStem: 134 355<302.5 401 302.5 401>
LayerCount: 2
Fore
SplineSet
134 352 m 0
 134 450 211 529 312 529 c 0
 409 529 489 450 489 352 c 0
 489 253 409 174 312 174 c 0
 213 174 134 251 134 352 c 0
EndSplineSet
EndChar

StartChar: questiondown
Encoding: 191 191 122
Width: 454
Flags: HW
HStem: -217 46<196 222.5 196 290> 324 178<313.5 356.5>
VStem: 25 149<-124 -88 -137 -44.5> 246 180<392.5 432.5> 269 144<151.5 176>
LayerCount: 2
Fore
SplineSet
25 -83 m 0
 25 -6 86 35 163 65 c 0
 224 88 269 117 269 161 c 0
 269 191 241 206 220 208 c 0
 202 210 189 210 177 208 c 1
 170 237 l 1
 204 260 257 272 297 272 c 0
 365 272 413 234 413 177 c 0xe8
 413 126 373 89 306 53 c 0
 222 8 174 -51 174 -125 c 0
 174 -149 184 -171 208 -171 c 0
 237 -171 266 -137 297 -66 c 0
 306 -45 320 -32 346 -32 c 0
 375 -32 422 -49 422 -95 c 0
 422 -144 360 -217 220 -217 c 0xf0
 88 -217 25 -165 25 -83 c 0
246 402 m 0
 246 463 288 502 339 502 c 0
 399 502 426 466 426 423 c 0
 426 362 383 324 330 324 c 0
 272 324 246 361 246 402 c 0
EndSplineSet
EndChar

StartChar: grave
Encoding: 96 96 123
Width: 400
Flags: HMW
HStem: 511 229<185 395>
VStem: 144 272<541 692.5>
LayerCount: 2
Fore
SplineSet
144 680 m 0
 144 705 173 740 197 740 c 0
 217 740 234 728 271 690 c 2
 416 541 l 1
 395 511 l 1
 212 614 l 2
 176 634 144 654 144 680 c 0
EndSplineSet
EndChar

StartChar: acute
Encoding: 180 180 124
Width: 400
Flags: HMW
HStem: 511 229<242 452>
VStem: 221 272<541 692.5>
LayerCount: 2
Back
SplineSet
219 541 m 1
 364 690 l 2
 401 728 418 740 438 740 c 0
 462 740 491 705 491 680 c 0
 491 654 459 634 423 614 c 2
 240 511 l 1
 219 541 l 1
EndSplineSet
Fore
SplineSet
221 541 m 1
 366 690 l 2
 403 728 420 740 440 740 c 0
 464 740 493 705 493 680 c 0
 493 654 461 634 425 614 c 2
 242 511 l 1
 221 541 l 1
EndSplineSet
EndChar

StartChar: circumflex
Encoding: 710 710 125
Width: 400
Flags: HMW
HStem: 520 227<151 364.5 348.5 477>
VStem: 128 378<547 547>
LayerCount: 2
Fore
SplineSet
128 547 m 1
 308 720 l 2
 324 736 341 747 356 747 c 0
 373 747 382 734 392 719 c 2
 506 547 l 1
 477 520 l 1
 364 616 l 2
 354 625 344 633 334 633 c 0
 325 633 310 625 296 616 c 2
 151 520 l 1
 128 547 l 1
EndSplineSet
EndChar

StartChar: tilde
Encoding: 732 732 126
Width: 400
Flags: MW
HStem: 562 84<343.36 473.826> 604 84<188.279 328.01>
VStem: 129 408<567 684>
LayerCount: 2
Fore
SplineSet
129 567 m 1
 137 609 173 688 254 688 c 0
 282 688 315 677 348 666 c 0
 381 656 414 645 440 646 c 0
 461 648 479 656 515 697 c 1
 537 684 l 1
 505 620 483 562 410 562 c 0
 389 562 358 573 325 583 c 0
 292 594 256 604 226 604 c 0
 189 604 173 588 151 549 c 1
 129 567 l 1
EndSplineSet
EndChar

StartChar: macron
Encoding: 175 175 127
Width: 400
Flags: HMW
HStem: 592 72<183 479 168 494>
VStem: 168 326<592 664>
LayerCount: 2
Fore
SplineSet
168 592 m 1
 183 664 l 1
 494 664 l 1
 479 592 l 1
 168 592 l 1
EndSplineSet
EndChar

StartChar: breve
Encoding: 728 728 128
Width: 400
Flags: HMW
HStem: 556 83<276 377.5 276 379.5>
VStem: 181 45
LayerCount: 2
Back
SplineSet
189 716 m 1
 227 716 l 1
 224 692 229 641 331 641 c 0
 433 641 462 692 469 716 c 1
 508 716 l 1
 492 646 454 556 312 556 c 0
 169 556 172 640 189 716 c 1
EndSplineSet
Fore
SplineSet
192 714 m 1
 226 714 l 1
 221 688 226 639 326 639 c 0
 429 639 460 688 470 714 c 1
 504 714 l 1
 488 632 449 556 310 556 c 0
 171 556 169 642 192 714 c 1
EndSplineSet
EndChar

StartChar: dotaccent
Encoding: 729 729 129
Width: 402
Flags: HMW
HStem: 561 149<308.5 360>
VStem: 255 158<616 654>
LayerCount: 2
Fore
SplineSet
255 635 m 0
 255 673 283 710 334 710 c 0
 386 710 413 673 413 635 c 0
 413 597 386 561 334 561 c 0
 283 561 255 597 255 635 c 0
EndSplineSet
EndChar

StartChar: ring
Encoding: 730 730 131
Width: 400
Flags: HMW
HStem: 529 40<307.5 341.5 307.5 361> 722 40<320 354.5>
VStem: 201 68 390 68
LayerCount: 2
Back
SplineSet
201 627 m 0
 199 695 241 762 345 762 c 0
 412 762 456 726 458 660 c 0
 461 586 407 529 315 529 c 0
 249 529 203 562 201 627 c 0
269 624 m 0
 269 586 294 569 321 569 c 0
 362 569 392 612 390 667 c 0
 389 701 370 722 339 722 c 0
 301 722 269 684 269 624 c 0
EndSplineSet
Fore
SplineSet
201 627 m 0
 201 700 244 762 345 762 c 0
 416 762 458 721 458 660 c 0
 458 570 393 529 315 529 c 0
 247 529 201 566 201 627 c 0
269 624 m 0
 269 586 294 569 321 569 c 0
 358 569 390 603 390 667 c 0
 390 699 370 722 339 722 c 0
 301 722 269 684 269 624 c 0
EndSplineSet
EndChar

StartChar: cedilla
Encoding: 184 184 132
Width: 400
Flags: HMW
HStem: -243 32<120 150> -56 56<240 240>
VStem: 223 104
LayerCount: 2
Fore
SplineSet
120 -243 m 1
 122 -211 l 1
 178 -211 219 -196 223 -153 c 0
 228 -109 185 -100 163 -98 c 1
 160 -90 l 1
 226 0 l 1
 284 0 l 1
 240 -56 l 1
 270 -60 334 -79 327 -151 c 0
 319 -232 215 -246 168 -246 c 0
 148 -246 137 -245 120 -243 c 1
EndSplineSet
EndChar

StartChar: hungarumlaut
Encoding: 733 733 133
Width: 400
Flags: HMW
HStem: 546 204<221 301 279 388>
VStem: 193 324<563 722.5>
LayerCount: 2
Back
SplineSet
159 540 m 1
 222 698 l 2
 234 728 247 751 274 751 c 0
 299 751 336 728 336 704 c 0
 336 687 325 666 300 638 c 2
 191 521 l 1
 159 540 l 1
364 540 m 1
 427 698 l 2
 439 728 452 751 479 751 c 0
 504 751 541 728 541 704 c 0
 541 687 530 666 505 638 c 2
 396 521 l 1
 364 540 l 1
EndSplineSet
Fore
SplineSet
193 563 m 1
 247 703 l 2
 257 730 268 750 290 750 c 0
 312 750 351 733 351 712 c 0
 351 696 340 675 317 650 c 2
 221 546 l 1
 193 563 l 1
360 563 m 1
 414 703 l 2
 424 730 435 750 457 750 c 0
 478 750 517 733 517 712 c 0
 517 696 507 675 484 650 c 2
 388 546 l 1
 360 563 l 1
EndSplineSet
EndChar

StartChar: ogonek
Encoding: 731 731 134
Width: 350
Flags: HMW
HStem: -246 54<129 232>
VStem: 73 97
LayerCount: 2
Fore
SplineSet
73 -149 m 0
 77 -98 138 -35 207 0 c 1
 264 0 l 1
 206 -44 174 -90 170 -128 c 0
 168 -168 190 -192 224 -192 c 0
 240 -192 261 -187 274 -179 c 1
 288 -206 l 1
 248 -237 210 -246 181 -246 c 0
 77 -246 70 -182 73 -149 c 0
EndSplineSet
EndChar

StartChar: caron
Encoding: 711 711 135
Width: 400
Flags: MW
HStem: 520 227<194 322.5>
VStem: 165 378<720 720>
LayerCount: 2
Fore
SplineSet
165 720 m 1
 194 747 l 1
 307 651 l 2
 317 642 327 634 337 634 c 0
 346 634 361 642 375 651 c 2
 520 747 l 1
 543 720 l 1
 363 547 l 2
 347 531 330 520 315 520 c 0
 298 520 289 533 279 548 c 2
 165 720 l 1
EndSplineSet
EndChar

StartChar: emdash
Encoding: 8212 8212 136
Width: 1000
Flags: HMW
HStem: 209 83<66 1047 47 1066>
VStem: 47 1019<209 292>
LayerCount: 2
Fore
SplineSet
47 209 m 1
 66 292 l 1
 1066 292 l 1
 1047 209 l 1
 47 209 l 1
EndSplineSet
EndChar

StartChar: AE
Encoding: 198 198 137
Width: 890
Flags: HW
HStem: 0 40 0 46<624.5 707.5 624.5 856> 339 48<336 465 300 476 627 708> 640 52<522 532 522 522> 646 46<706.5 722 722 796> 650.5 41.5
VStem: -72 1065<0 692>
LayerCount: 2
Fore
SplineSet
-72 0 m 1x6a
 -65 38 l 1
 -29 43 l 2
 1 47 20 68 47 100 c 0
 107 172 301 436 402 571 c 0
 445 629 448 645 425 647 c 2
 357 654 l 1xa6
 367 692 l 1x6a
 993 692 l 1
 953 507 l 1
 915 507 l 1
 910 562 l 2
 906 609 884 646 796 646 c 2
 722 646 l 2
 691 646 684 642 677 611 c 2
 627 387 l 1
 719 387 l 2
 782 387 798 405 830 478 c 1
 868 478 l 1
 818 248 l 1
 780 248 l 1
 783 310 772 339 708 339 c 2
 616 339 l 1
 563 105 l 2
 550 48 580 46 669 46 c 0
 746 46 794 69 845 154 c 2
 877 208 l 1
 915 208 l 1
 856 0 l 1
 311 0 l 1x6a
 320 38 l 1
 365 42 l 2
 394 44 401 62 409 98 c 2
 465 339 l 1
 300 339 l 1
 196 185 160 134 125 80 c 0
 114 63 113 46 131 44 c 2
 199 38 l 1xaa
 192 0 l 1
 -72 0 l 1x6a
336 387 m 1x6a
 476 387 l 1
 532 640 l 1
 522 640 l 1x72
 460 556 396 472 336 387 c 1x6a
EndSplineSet
EndChar

StartChar: ordfeminine
Encoding: 170 170 138
Width: 444
Flags: HMW
HStem: 265 58<145 234> 556 34<302.5 341.5>
VStem: 97 110<341 381 341 382.5> 326 102
LayerCount: 2
Fore
SplineSet
97 341 m 0
 97 424 172 590 338 590 c 0
 357 590 378 586 391 579 c 1
 393 585 l 1
 497 585 l 1
 431 353 l 2
 427 338 425 323 436 323 c 0
 451 323 478 358 495 385 c 1
 517 373 l 1
 488 317 446 265 372 265 c 0
 336 265 315 291 332 348 c 2
 347 397 l 1
 343 398 l 1
 305 343 257 265 168 265 c 0
 122 265 97 298 97 341 c 0
207 350 m 0
 207 332 214 323 225 323 c 0
 243 323 265 346 293 381 c 0
 335 436 354 507 367 547 c 1
 358 554 347 556 336 556 c 0
 269 556 207 412 207 350 c 0
EndSplineSet
EndChar

StartChar: Lslash
Encoding: 321 321 139
Width: 592
Flags: HW
HStem: 0 40 0 46<353 427 353 574> 652 40
VStem: 46 586<0 201>
LayerCount: 2
Fore
SplineSet
46 0 m 1x70
 55 38 l 1
 100 42 l 2
 129 45 136 62 144 98 c 2xb0
 177 246 l 1
 70 178 l 1
 85 244 l 1
 192 311 l 1
 255 594 l 2
 263 630 264 648 236 650 c 2
 185 654 l 1
 195 692 l 1
 507 692 l 1
 497 654 l 1
 453 650 l 2
 424 647 417 630 409 594 c 2
 372 425 l 1
 520 519 l 1
 505 453 l 1x70
 357 359 l 1
 299 101 l 2
 288 52 316 46 390 46 c 0
 464 46 512 70 564 153 c 2
 594 201 l 1
 632 201 l 1
 574 0 l 1
 46 0 l 1x70
EndSplineSet
EndChar

StartChar: Oslash
Encoding: 216 216 140
Width: 761
Flags: HW
HStem: -15 46<384 476 375.5 510> 650 20G<675 675> 661 46<440 538 416.5 549.5> 682 20G<763 763>
VStem: 112 162<216.5 268.5 182 286.5> 642 162<410 470.5 392.5 514>
LayerCount: 2
Fore
SplineSet
112 260 m 0
 112 313 117 406 170 508 c 0
 224 611 326 707 507 707 c 0xac
 569 707 626 695 675 670 c 1
 724 734 l 1
 763 702 l 1xdc
 716 642 l 1x9c
 771 594 804 522 804 419 c 0
 804 366 796 274 745 176 c 0
 691 74 600 -15 420 -15 c 0
 348 -15 288 -1 241 24 c 1
 183 -51 l 1
 147 -16 l 1
 200 53 l 1
 142 101 112 173 112 260 c 0
274 188 m 0
 274 176 277 165 278 154 c 1xac
 623 602 l 1
 607 638 576 661 523 661 c 0
 357 661 274 349 274 188 c 0
294 94 m 1
 314 53 350 31 401 31 c 0
 551 31 642 312 642 508 c 0
 642 520 640 531 638 541 c 1
 294 94 l 1
EndSplineSet
EndChar

StartChar: OE
Encoding: 338 338 141
Width: 1016
Flags: HMW
HStem: 0 46<411.5 473 473 480.5 750.5 833.5> 339 48<753 834 742 845> 646 46<602 618.5 835.5 853 853 922>
VStem: 111 165<197.5 327.5>
LayerCount: 2
Fore
SplineSet
111 287 m 0
 111 368 136 692 602 692 c 2
 1119 692 l 1
 1079 507 l 1
 1041 507 l 1
 1036 562 l 2
 1032 609 1010 646 922 646 c 2
 853 646 l 2
 818 646 811 642 804 613 c 2
 753 387 l 1
 845 387 l 2
 908 387 924 405 956 478 c 1
 994 478 l 1
 944 249 l 1
 906 249 l 1
 909 310 898 339 834 339 c 2
 742 339 l 1
 689 105 l 2
 677 50 706 46 795 46 c 0
 872 46 920 67 971 154 c 2
 1003 208 l 1
 1041 208 l 1
 982 0 l 1
 473 0 l 2
 231 0 111 108 111 287 c 0
276 255 m 0
 276 99 364 46 459 46 c 0
 502 46 525 61 534 100 c 2
 647 599 l 2
 655 633 641 646 596 646 c 0
 377 646 276 418 276 255 c 0
EndSplineSet
EndChar

StartChar: ordmasculine
Encoding: 186 186 142
Width: 412
Flags: HMW
HStem: 265 34<255.5 299 255.5 320.5> 556 34<322.5 349.5>
VStem: 121 109<355 360 327.5 405.5> 372 109<488.5 510 441.5 524>
LayerCount: 2
Fore
SplineSet
121 391 m 0
 121 420 130 469 158 510 c 0
 188 554 234 590 323 590 c 0
 403 590 481 562 481 458 c 0
 481 425 472 379 445 341 c 0
 414 298 368 265 273 265 c 0
 166 265 121 319 121 391 c 0
230 340 m 0
 230 315 244 299 267 299 c 0
 331 299 372 465 372 512 c 0
 372 536 362 556 337 556 c 0
 308 556 282 526 263 482 c 0
 243 437 230 380 230 340 c 0
EndSplineSet
EndChar

StartChar: ae
Encoding: 230 230 143
Width: 789
Flags: HW
HStem: -12 66<583.5 594.5> -12 80<124 260> 456 46<361.5 423 290.5 427.5 671.5 691.5>
VStem: 61 154<101 167.5 101 173.5> 398 136<135 163 163 164 135 189> 718 127
LayerCount: 2
Fore
SplineSet
61 108 m 0
 61 239 171 502 410 502 c 0
 436 502 462 496 485 485 c 1
 514 509 l 1
 568 509 l 1
 548 443 l 1
 550 441 l 1
 595 483 648 502 695 502 c 0
 783 502 845 457 845 386 c 0
 845 355 838 322 799 286 c 0
 756 248 687 216 534 187 c 1
 534 163 l 2
 534 107 553 54 614 54 c 0
 674 54 721 100 774 176 c 1
 804 152 l 1
 731 20 637 -12 552 -12 c 0
 482 -12 398 23 398 161 c 0
 398 167 399 178 400 187 c 1
 398 189 l 1
 346 101 273 -12 160 -12 c 0
 88 -12 61 47 61 108 c 0
215 115 m 0
 215 87 221 68 244 68 c 0x7c
 276 68 315 116 364 194 c 0
 413 274 449 371 467 442 c 1xbc
 454 451 437 456 418 456 c 0
 305 456 215 220 215 115 c 0
538 232 m 1
 654 255 717 334 718 413 c 0
 717 440 704 456 679 456 c 0
 620 456 552 347 538 232 c 1
EndSplineSet
EndChar

StartChar: dotlessi
Encoding: 305 305 144
Width: 339
Flags: W
HStem: -12 80<144.5 280> 440 33<118 168> 482 20G<189.379 354>
DStem2: 108 107 251 115 0.260973 0.965346<2.15056 331.873>
LayerCount: 2
Fore
SplineSet
108 107 m 2
 185 392 l 2
 192 419 188 432 168 434 c 2
 110 440 l 1
 118 473 l 1
 348 502 l 1
 354 496 l 1
 251 115 l 2
 244 89 243 68 262 68 c 0
 285 68 323 121 348 166 c 1
 378 149 l 1
 336 65 275 -12 178 -12 c 0
 111 -12 87 30 108 107 c 2
EndSplineSet
EndChar

StartChar: lslash
Encoding: 322 322 145
Width: 339
Flags: HMW
HStem: -12 80<148 272> 722 20G<395 395>
VStem: 103 144
LayerCount: 2
Fore
SplineSet
53 216 m 1
 67 276 l 1
 163 334 l 1
 235 633 l 2
 242 662 238 674 219 676 c 2
 161 683 l 1
 168 715 l 1
 395 742 l 1
 401 737 l 1
 326 425 l 1
 455 504 l 1
 440 444 l 1
 311 365 l 1
 250 115 l 2
 244 88 243 68 261 68 c 0
 283 68 322 118 348 166 c 1
 379 148 l 1
 338 65 277 -12 182 -12 c 0
 114 -12 90 32 110 115 c 2
 149 274 l 1
 53 216 l 1
EndSplineSet
EndChar

StartChar: oslash
Encoding: 248 248 146
Width: 562
Flags: HW
HStem: -12 46<271 339 271 347> 0 21G<200 200> 456 46<360.5 396.5 316.5 399.5> 469 20G<471 471>
VStem: 77 135<138.5 140.5 104.5 196.5> 456 135<337 355 288.5 376.5>
LayerCount: 2
Fore
SplineSet
77 174 m 0
 77 219 90 300 135 371 c 0
 179 441 252 502 381 502 c 0x6c
 412 502 442 499 471 489 c 1
 510 549 l 1
 544 525 l 1x9c
 510 473 l 1
 558 447 591 398 591 312 c 0
 591 265 575 188 529 115 c 0
 482 40 410 -12 284 -12 c 0x9c
 252 -12 224 -8 200 0 c 1
 155 -69 l 1
 123 -42 l 1
 161 15 l 1
 103 46 77 103 77 174 c 0
212 107 m 0
 212 102 212 96 214 94 c 1xac
 438 437 l 1
 427 449 411 456 388 456 c 0
 333 456 295 408 264 339 c 0
 232 266 212 174 212 107 c 0
234 50 m 1
 245 39 261 34 281 34 c 0
 397 34 456 300 456 374 c 0
 456 379 456 384 455 387 c 1
 234 50 l 1
EndSplineSet
EndChar

StartChar: oe
Encoding: 339 339 147
Width: 811
Flags: HW
HStem: -12 46<262 309> -12 66<606.5 619.5> 456 46<364.5 409 316.5 411.5 686.5 714.5>
VStem: 77 144<120 140.5 82 196.5> 740 127<373.5 421.5 370.5 426.5>
LayerCount: 2
Fore
SplineSet
77 174 m 0
 77 219 90 300 135 371 c 0
 179 439 252 502 381 502 c 0
 437 502 504 479 538 421 c 1
 595 473 656 502 717 502 c 0
 804 502 867 457 867 386 c 0
 867 355 860 322 821 286 c 0
 778 248 707 216 559 187 c 1
 559 163 l 2
 559 107 576 54 637 54 c 0x78
 695 54 742 100 795 176 c 1
 825 152 l 1
 752 20 658 -12 581 -12 c 0
 533 -12 482 8 453 65 c 1
 410 16 338 -12 280 -12 c 0
 141 -12 77 66 77 174 c 0
221 107 m 0xb8
 221 57 244 34 280 34 c 0
 386 34 445 300 445 374 c 0
 445 416 435 456 388 456 c 0
 341 456 304 408 273 339 c 0
 241 266 221 174 221 107 c 0xb8
563 232 m 1
 675 255 740 334 740 413 c 0
 740 440 727 456 702 456 c 0
 643 456 577 347 563 232 c 1
EndSplineSet
EndChar

StartChar: germandbls
Encoding: 223 223 148
Width: 628
Flags: HW
HStem: -242 46<-12.5 56> -10 46<467.5 489.5 467.5 522.5> 442 48<119 194 105 205> 696 46<471 541.5>
VStem: 397 134<373 384.5> 521 119<68.5 173> 602 125<593.5 636>
LayerCount: 2
Fore
SplineSet
-94 -168 m 0
 -94 -137 -66 -109 -34 -109 c 0
 -12 -109 -4 -125 5 -140 c 0
 29 -182 42 -196 52 -196 c 0
 60 -196 67 -187 71 -169 c 2
 194 442 l 1
 105 442 l 1
 119 490 l 1
 205 490 l 1
 212 512 l 2
 240 604 309 742 512 742 c 0
 660 742 727 676 727 601 c 0
 727 565 717 520 661 479 c 1xfa
 546 479 531 424 531 392 c 0xfa
 531 354 567 309 587 281 c 0
 614 244 640 199 640 147 c 0
 640 77 589 -10 456 -10 c 0
 379 -10 323 21 323 58 c 0
 322 89 350 111 378 111 c 0
 394 111 404 103 412 91 c 0
 439 50 457 36 478 36 c 0
 501 36 521 53 521 84 c 0xf4
 521 122 490 161 453 212 c 0
 422 254 397 301 397 342 c 0
 397 427 465 488 539 492 c 1
 588 530 602 576 602 611 c 0
 602 661 566 696 517 696 c 0
 425 696 372 564 339 426 c 2
 245 28 l 2
 203 -151 147 -239 26 -242 c 0
 -51 -242 -94 -210 -94 -168 c 0
EndSplineSet
EndChar

StartChar: onesuperior
Encoding: 185 185 149
Width: 402
Flags: HW
HStem: 272 29.5 653 20G<396 396> 660 20G<390 390>
VStem: 119 277
LayerCount: 2
Fore
SplineSet
119 272 m 1
 125 299 l 1
 164 304 l 2
 186 307 196 314 201 340 c 2
 258 590 l 2
 264 614 257 621 242 624 c 2
 202 630 l 1
 208 656 l 1
 390 680 l 1
 396 673 l 1xd0
 320 340 l 2
 315 314 321 307 341 304 c 2
 378 299 l 1
 372 272 l 1xb0
 119 272 l 1
EndSplineSet
EndChar

StartChar: minus
Encoding: 8722 8722 150
Width: 600
Flags: MW
HStem: 210 80<118 602 118 602>
VStem: 118 484<210 290 210 290>
LayerCount: 2
Fore
SplineSet
118 210 m 1
 118 290 l 1
 602 290 l 1
 602 210 l 1
 118 210 l 1
EndSplineSet
EndChar

StartChar: degree
Encoding: 176 176 151
Width: 375
Flags: HMW
HStem: 360 58<269 318.5 269 340> 622 58<268.5 318>
VStem: 128 77<491 520> 383 77<491 550>
LayerCount: 2
Back
SplineSet
294 360 m 0
 201 360 128 430 128 520 c 0
 127 610 201 680 294 680 c 0
 386 680 460 610 460 520 c 0
 460 430 386 360 294 360 c 0
205 521 m 0
 205 461 244 418 294 418 c 0
 343 418 383 461 383 521 c 0
 383 579 343 622 293 622 c 0
 244 622 204 579 205 521 c 0
EndSplineSet
Fore
SplineSet
128 519 m 0
 128 609 202 680 294 680 c 0
 386 680 460 609 460 519 c 0
 460 429 386 360 294 360 c 0
 202 360 128 429 128 519 c 0
205 520 m 0
 205 461 245 418 294 418 c 0
 343 418 383 461 383 520 c 0
 383 579 343 622 294 622 c 0
 245 622 205 579 205 520 c 0
EndSplineSet
EndChar

StartChar: onequarter
Encoding: 188 188 157
Width: 940
Flags: HW
HStem: 0 28.5 102 43<601 705 827 873> 272 29.5 313 88<753 884 753 884> 660 20G<410 410> 675 20G<770 770>
VStem: 139 745<272 401>
LayerCount: 2
Fore
SplineSet
523 126 m 1
 616 226 706 324 792 401 c 1
 884 401 l 1
 827 145 l 1
 883 145 l 1
 873 102 l 1
 817 102 l 1
 807 54 l 2
 804 38 810 31 823 30 c 2
 847 27 l 1
 842 0 l 1
 621 0 l 1
 626 27 l 1
 666 30 l 2
 682 31 692 38 695 54 c 2
 705 102 l 1
 536 102 l 1
 523 126 l 1
601 145 m 1xe6
 716 145 l 1
 755 313 l 1
 753 313 l 1xf6
 708 263 648 200 601 145 c 1xe6
EndSplineSet
Refer: 98 8260 N 1 0 0 1 409 0 2
Refer: 149 185 N 1 0 0 1 20 0 2
EndChar

StartChar: logicalnot
Encoding: 172 172 158
Width: 600
Flags: HMW
HStem: 317 80<118 506 118 602>
VStem: 506 96<95 317 317 317>
LayerCount: 2
Fore
SplineSet
118 317 m 1
 118 397 l 1
 602 397 l 1
 602 95 l 1
 506 95 l 1
 506 317 l 1
 118 317 l 1
EndSplineSet
EndChar

StartChar: brokenbar
Encoding: 166 166 167
Width: 265
Flags: HMW
HStem: 655 20G<152 256 256 256>
VStem: 152 104<-175 175 -175 175 325 675>
LayerCount: 2
Fore
SplineSet
152 -175 m 1
 152 175 l 1
 256 175 l 1
 256 -175 l 1
 152 -175 l 1
152 325 m 1
 152 675 l 1
 256 675 l 1
 256 325 l 1
 152 325 l 1
EndSplineSet
EndChar

StartChar: thorn
Encoding: 254 254 168
Width: 600
Flags: HW
HStem: -242 21G<29 29> -12 46<307 370.5 296.5 454> 422 80<431.5 566.5> 675 20G<384 384> 680 20G<379 379>
VStem: 488 154
LayerCount: 2
Fore
SplineSet
29 -242 m 1
 209 580 l 2
 216 611 217 630 197 632 c 2
 138 638 l 1
 147 671 l 1
 379 700 l 1
 384 695 l 1xf4
 277 286 l 1
 281 286 l 1
 358 429 443 502 530 502 c 0
 603 502 639 459 642 374 c 0
 646 300 575 -12 333 -12 c 0
 281 -12 246 -3 226 9 c 1
 169 -230 l 1
 29 -242 l 1
237 64 m 1
 255 46 281 34 312 34 c 0
 429 34 491 299 488 367 c 0
 488 403 477 422 451 422 c 0xec
 412 422 360 364 315 283 c 0
 279 217 249 117 237 64 c 1
EndSplineSet
EndChar

StartChar: Aring
Encoding: 197 197 169
Width: 634
Flags: HW
HStem: 0 40 246 48<258 429 258 434 232 429> 647 20G<408 408 540 540> 672 20G<465 498> 840 39<483 516.5>
VStem: 364 66<726 770 724.5 779.5> 549 66<762.5 804.5>
LayerCount: 2
Back
SplineSet
364 750 m 0
 364 815 407 879 508 879 c 0
 580 879 615 838 615 782 c 0
 615 717 572 653 471 653 c 0
 399 653 364 694 364 750 c 0
430 745 m 0
 430 713 446 692 477 692 c 0
 514 692 549 732 549 787 c 0
 549 819 533 840 502 840 c 0
 465 840 430 800 430 745 c 0
EndSplineSet
Fore
SplineSet
-24 0 m 1
 -17 38 l 1
 10 41 l 2
 40 44 55 54 75 87 c 0
 103 133 166 243 226 349 c 2
 408 667 l 1
 381 681 364 709 364 743 c 0
 364 816 407 879 508 879 c 0
 573 879 615 844 615 782 c 0
 615 731 588 688 540 667 c 1xee
 572 375 l 2
 580 302 594 159 602 86 c 0
 606 58 610 43 633 41 c 2
 674 38 l 1
 666 0 l 1
 366 0 l 1
 374 38 l 1
 426 42 l 2
 446 43 451 55 449 79 c 2
 434 246 l 1
 232 246 l 1
 202 188 176 132 148 79 c 0
 138 59 139 43 161 42 c 2
 217 38 l 1
 210 0 l 1
 -24 0 l 1
258 294 m 1
 429 294 l 1
 405 555 l 1
 401 555 l 1
 384 528 271 319 258 294 c 1
430 741 m 0
 430 708 452 692 478 692 c 0
 518 692 549 736 549 789 c 0
 549 820 531 840 502 840 c 0
 464 840 430 799 430 741 c 0
EndSplineSet
EndChar

StartChar: trademark
Encoding: 8482 8482 172
Width: 1100
Flags: HW
HStem: 277 30 621 71<649 654 649 649 960 965 960 960> 658 34<223.5 246 246 274 392 392 392 420 593 593> 661.5 30.5
VStem: 138 26<574 692> 274 118<344 658> 502 26<574 692> 608 41<409 621> 965 111<343 621 621 621>
LayerCount: 2
Fore
SplineSet
138 574 m 1
 138 692 l 1
 528 692 l 1
 528 574 l 1
 502 574 l 1
 490 640 465 658 420 658 c 2
 392 658 l 1
 392 344 l 2
 392 323 394 314 409 312 c 2
 456 305 l 1
 456 277 l 1
 210 277 l 1
 210 305 l 1
 256 312 l 2
 271 314 274 323 274 344 c 2xaf80
 274 658 l 1
 246 658 l 2
 201 658 176 640 164 574 c 1
 138 574 l 1
557 277 m 1
 557 305 l 1
 586 309 l 2
 607 312 608 334 608 409 c 2
 608 631 l 2
 608 647 606 655 593 658 c 2
 559 664 l 1
 559 692 l 1
 744 692 l 1
 759 650 774 608 790 566 c 2
 842 432 l 1
 847 432 l 1
 898 566 l 2
 913 608 929 650 944 692 c 1
 1128 692 l 1
 1128 664 l 1xaf80
 1095 659 l 2
 1079 656 1076 647 1076 631 c 2x9f80
 1076 343 l 2
 1076 321 1078 312 1098 309 c 2
 1128 305 l 1
 1128 277 l 1
 917 277 l 1
 917 305 l 1
 945 310 l 2
 964 314 965 321 965 343 c 2
 965 621 l 1
 960 621 l 1
 835 288 l 1
 783 288 l 1
 654 621 l 1
 649 621 l 1xcf80
 649 409 l 2
 649 334 651 312 674 309 c 2
 713 305 l 1
 713 277 l 1
 557 277 l 1
EndSplineSet
EndChar

StartChar: registered
Encoding: 174 174 173
Width: 824
Flags: HMW
HStem: -15 63<412.5 567.5 412.5 590.5> 159 28 331 32<457 475 457 481> 508 32<474.5 503.5> 644 63<412.5 567.5>
VStem: 126 83<262 430 262 446> 357 100<219 331 363 481 481 488> 546 105<425 462.5> 771 83<262 430>
LayerCount: 2
Fore
SplineSet
126 346 m 0
 126 546 289 707 490 707 c 0
 691 707 854 546 854 346 c 0
 854 146 691 -15 490 -15 c 0
 289 -15 126 146 126 346 c 0
209 346 m 0
 209 178 335 48 490 48 c 0
 645 48 771 178 771 346 c 0
 771 514 645 644 490 644 c 0
 335 644 209 514 209 346 c 0
311 159 m 1
 311 185 l 1
 338 189 l 2
 354 191 357 201 357 219 c 2
 357 481 l 2
 357 498 354 508 338 510 c 2
 311 514 l 1
 311 540 l 1
 519 540 l 2
 618 540 651 500 651 448 c 0
 651 396 615 361 562 351 c 1
 562 349 l 1
 617 334 623 297 634 253 c 0
 640 228 649 205 661 196 c 0
 667 191 675 188 685 185 c 1
 685 159 l 1
 630 159 l 2
 572 159 554 174 541 204 c 0
 530 230 523 274 517 295 c 0
 511 316 502 331 475 331 c 2
 457 331 l 1
 457 219 l 2
 457 201 461 191 477 189 c 2
 504 185 l 1
 504 159 l 1
 311 159 l 1
457 363 m 1
 481 363 l 2
 506 363 521 370 531 382 c 0
 541 395 546 413 546 437 c 0
 546 488 519 508 488 508 c 0
 461 508 457 503 457 488 c 2
 457 363 l 1
EndSplineSet
EndChar

StartChar: eth
Encoding: 240 240 184
Width: 562
Flags: HW
HStem: -12 46<263 334 263 347> 456 46<365.5 399.5 321.5 412.5> 477 20G<425 425> 658 20G<593 593> 722 20G<305 305>
VStem: 77 145<119 140.5 82 196.5> 446 145<337 387.5 294 395>
LayerCount: 2
Fore
SplineSet
77 174 m 0
 77 219 90 300 135 371 c 0
 179 441 252 502 391 502 c 0xde
 408 502 417 500 425 497 c 1
 425 500 l 1
 415 526 396 557 372 588 c 1
 235 532 l 1
 206 572 l 1xbe
 339 626 l 1
 316 655 284 686 247 716 c 1
 248 727 l 1
 305 742 l 1
 344 718 386 689 420 659 c 1
 566 718 l 1
 593 678 l 1xde
 458 623 l 1
 534 545 591 452 591 323 c 0
 591 265 575 188 529 115 c 0
 482 40 410 -12 284 -12 c 0
 139 -12 77 64 77 174 c 0
222 107 m 0
 222 57 245 34 281 34 c 0
 387 34 446 300 446 374 c 0
 446 416 436 456 389 456 c 0
 342 456 304 407 274 339 c 0
 242 266 222 174 222 107 c 0
EndSplineSet
EndChar

StartChar: ccedilla
Encoding: 231 231 188
Width: 456
Flags: HW
HStem: -243 32<119 149> -11 21G<217 217> -11 65<217 330> 456 46<329.5 371>
VStem: 73 153<131.5 230 131.5 232.5> 222 104
LayerCount: 2
Fore
SplineSet
73 155 m 0
 73 310 179 502 384 502 c 0
 476 502 533 462 533 405 c 0
 533 369 481 342 446 342 c 0
 419 342 411 364 405 389 c 0
 392 442 381 456 361 456 c 0
 298 456 226 298 226 162 c 0
 226 101 244 54 297 54 c 0xb8
 363 54 410 119 448 180 c 1
 478 159 l 1
 419 42 343 2 277 -8 c 1
 239 -56 l 1
 269 -60 333 -79 326 -151 c 0
 318 -232 214 -246 167 -246 c 0
 147 -246 136 -245 119 -243 c 1
 121 -211 l 1
 177 -211 218 -196 222 -153 c 0
 227 -109 184 -100 162 -98 c 1
 159 -90 l 1xdc
 217 -11 l 1
 136 -5 73 43 73 155 c 0
EndSplineSet
EndChar

StartChar: multiply
Encoding: 215 215 189
Width: 600
Flags: HMW
HStem: 22 456<203 203 203 536>
VStem: 145 450<83 83 83 415>
LayerCount: 2
Fore
SplineSet
145 83 m 1
 310 249 l 1
 145 415 l 1
 203 478 l 1
 370 310 l 1
 536 478 l 1
 595 415 l 1
 430 249 l 1
 595 83 l 1
 536 22 l 1
 370 189 l 1
 203 22 l 1
 145 83 l 1
EndSplineSet
EndChar

StartChar: divide
Encoding: 247 247 190
Width: 600
Flags: HMW
HStem: 7 139<320.5 360> 210 80<98 582 98 582> 354 139<320.5 360>
VStem: 272 138<57.5 77 57.5 95.5 404.5 424>
LayerCount: 2
Fore
SplineSet
272 77 m 0
 272 114 301 146 340 146 c 0
 380 146 410 114 411 78 c 1
 410 77 l 1
 410 38 380 7 340 7 c 0
 301 7 272 38 272 77 c 0
272 424 m 0
 272 461 301 493 340 493 c 0
 380 493 410 461 411 425 c 1
 410 424 l 1
 410 385 380 354 340 354 c 0
 301 354 272 385 272 424 c 0
EndSplineSet
Refer: 150 8722 S 1 0 0 1 -20 0 2
EndChar

StartChar: twosuperior
Encoding: 178 178 191
Width: 402
Flags: HMW
HStem: 272 82<195 346 346 359.5 195 385> 642 38<293.5 315.5>
VStem: 333 125<571.5 595 527.5 608>
LayerCount: 2
Fore
SplineSet
64 282 m 1
 67 329 127 387 224 443 c 0
 299 487 333 549 333 594 c 0
 333 622 326 642 305 642 c 0
 282 642 257 616 232 561 c 0
 226 547 217 531 192 531 c 0
 166 531 135 551 135 579 c 0
 135 626 197 680 300 680 c 0
 419 680 458 624 458 566 c 0
 458 489 397 456 320 429 c 0
 254 406 215 381 195 354 c 1
 346 354 l 2
 373 354 384 359 404 387 c 1
 432 379 l 1
 385 272 l 1
 74 272 l 1
 64 282 l 1
EndSplineSet
EndChar

StartChar: threesuperior
Encoding: 179 179 205
Width: 402
Flags: HW
HStem: 265 38<236.5 262 236.5 308> 468 35<261 275.5> 483 20G<261 293.5> 642 38<293.5 314>
VStem: 307 128<370 415.5 351 433> 335 121<580.5 610 546 611>
LayerCount: 2
Fore
SplineSet
94 349 m 0
 94 379 125 403 154 403 c 0
 173 403 185 390 191 373 c 0
 207 324 223 303 250 303 c 0
 274 303 307 332 307 408 c 0
 307 458 285 468 266 468 c 0xd8
 244 468 218 457 204 457 c 0
 191 457 184 466 184 481 c 0
 184 500 192 517 206 517 c 0
 222 517 248 503 274 503 c 0xd4
 313 503 335 562 335 599 c 0
 335 623 325 642 303 642 c 0
 284 642 265 623 239 578 c 0
 229 561 220 548 198 548 c 0
 177 548 149 565 149 593 c 0
 149 633 206 680 306 680 c 0
 386 680 456 641 456 579 c 0xb4
 456 513 392 493 345 487 c 1
 344 485 l 1xb8
 395 474 435 441 435 390 c 0
 435 312 366 265 250 265 c 0
 152 265 94 304 94 349 c 0
EndSplineSet
EndChar

StartChar: threequarters
Encoding: 190 190 207
Width: 940
Flags: HW
HStem: 0 28.5 102 43<628 732 854 900> 265 38<272.5 298 272.5 344> 313 88<780 911 780 911> 468 35<297 311.5> 483 20G<297 329.5> 642 38<329.5 350> 660 20G<292 382> 675 20G<804 804>
VStem: 343 128<370 415.5 351 433> 371 121<580.5 610 546 611>
LayerCount: 2
Fore
SplineSet
550 126 m 1
 643 226 733 324 819 401 c 1
 911 401 l 1
 854 145 l 1
 910 145 l 1
 900 102 l 1
 844 102 l 1
 834 54 l 2
 831 38 837 31 850 30 c 2
 874 27 l 1
 869 0 l 1
 648 0 l 1
 653 27 l 1
 693 30 l 2
 709 31 719 38 722 54 c 2
 732 102 l 1xfa40
 563 102 l 1
 550 126 l 1
628 145 m 1
 743 145 l 1
 782 313 l 1
 780 313 l 1
 735 263 675 200 628 145 c 1
EndSplineSet
Refer: 98 8260 S 1 0 0 1 443 0 2
Refer: 205 179 S 1 0 0 1 36 0 2
EndChar

StartChar: Eth
Encoding: 208 208 208
Width: 780
Flags: HW
HStem: 0 40 0 46<342 367> 339 48<115 198 103 209 363 495> 646 46<464 470 195 567.5> 651.5 40.5
VStem: 260 151 662 163<395 456.5 382.5 501.5>
LayerCount: 2
Fore
SplineSet
46 0 m 1x76
 55 38 l 1
 100 42 l 2
 129 44 136 62 144 98 c 2xb6
 198 339 l 1
 103 339 l 1
 115 387 l 1
 209 387 l 1
 255 594 l 2
 263 630 264 647 236 649 c 2
 185 654 l 1x6e
 195 692 l 1
 470 692 l 2
 589 691 674 672 733 627 c 0
 792 582 825 510 825 403 c 0
 825 362 813 266 759 182 c 0
 690 73 585 0 367 0 c 2
 46 0 l 1x76
298 97 m 2
 288 54 318 46 366 46 c 0
 598 46 662 336 662 454 c 0
 662 549 639 646 496 646 c 0
 432 646 418 639 411 606 c 2x76
 363 387 l 1
 507 387 l 1
 495 339 l 1
 352 339 l 1
 298 97 l 2
EndSplineSet
EndChar

StartChar: plusminus
Encoding: 177 177 209
Width: 600
Flags: HMW
HStem: 0 80<118 602 118 602> 298 80<118 313 118 313 409 602>
VStem: 313 96<129 298 129 298 378 549>
LayerCount: 2
Fore
SplineSet
118 298 m 1
 118 378 l 1
 313 378 l 1
 313 549 l 1
 409 549 l 1
 409 378 l 1
 602 378 l 1
 602 298 l 1
 409 298 l 1
 409 129 l 1
 313 129 l 1
 313 298 l 1
 118 298 l 1
EndSplineSet
Refer: 150 8722 S 1 0 0 1 0 -210 2
EndChar

StartChar: copyright
Encoding: 169 169 217
Width: 824
Flags: HMW
HStem: -15 63<412.5 567.5 412.5 590.5> 151 32<484.5 535> 516 32<482.5 537.5 435 547> 644 63<412.5 567.5>
VStem: 126 83<262 430 262 446> 297 120<308 398.5 308 403> 621 27<415 415> 771 83<262 430>
LayerCount: 2
Fore
SplineSet
126 346 m 0
 126 546 289 707 490 707 c 0
 691 707 854 546 854 346 c 0
 854 146 691 -15 490 -15 c 0
 289 -15 126 146 126 346 c 0
209 346 m 0
 209 178 335 48 490 48 c 0
 645 48 771 178 771 346 c 0
 771 514 645 644 490 644 c 0
 335 644 209 514 209 346 c 0
297 348 m 0
 297 458 360 548 510 548 c 0
 565 548 616 538 648 519 c 1
 648 415 l 1
 621 415 l 1
 606 462 577 516 517 516 c 0
 448 516 417 443 417 354 c 0
 417 262 446 183 523 183 c 0
 580 183 609 238 631 290 c 1
 658 290 l 1
 647 182 l 1
 615 162 561 151 509 151 c 0
 353 151 297 236 297 348 c 0
EndSplineSet
EndChar

StartChar: Ccedilla
Encoding: 199 199 219
Width: 672
Flags: HMW
HStem: -243 33<286 318> -15 46<441 474> 661 46<458.5 583 458.5 615.5>
VStem: 111 169<232 310> 394 108 700 38<480 480>
LayerCount: 2
Fore
SplineSet
111 275 m 0
 111 345 128 444 180 524 c 0
 250 631 362 707 555 707 c 0
 611 707 717 696 777 659 c 1
 738 480 l 1
 700 480 l 1
 699 571 674 661 557 661 c 0
 354 661 280 412 280 235 c 0
 280 96 344 31 434 31 c 0
 546 31 601 116 665 220 c 1
 703 220 l 1
 648 26 l 1
 586 -6 507 -15 441 -15 c 1
 411 -53 l 1
 443 -58 509 -75 502 -147 c 0
 495 -231 385 -246 336 -246 c 0
 316 -246 304 -245 286 -243 c 1
 289 -210 l 1
 347 -210 389 -194 394 -149 c 0
 399 -109 354 -99 331 -97 c 1
 328 -89 l 1
 383 -13 l 1
 138 9 111 189 111 275 c 0
EndSplineSet
EndChar

StartChar: Thorn
Encoding: 222 222 223
Width: 629
Flags: HMW
HStem: 0 40.5 176 46<346 406 310 427> 502 46<414.5 456 456 468.5> 652 40
VStem: 536 159
LayerCount: 2
Fore
SplineSet
40 0 m 1
 49 38 l 1
 94 42 l 2
 123 44 130 62 138 98 c 2
 250 594 l 2
 258 630 259 647 231 649 c 2
 180 654 l 1
 190 692 l 1
 501 692 l 1
 491 654 l 1
 447 650 l 2
 418 648 411 630 403 594 c 2
 392 548 l 1
 456 548 l 2
 591 548 697 501 695 373 c 0
 693 310 663 260 614 226 c 0
 565 192 490 176 406 176 c 2
 310 176 l 1
 292 98 l 2
 284 64 283 45 313 43 c 2
 378 38 l 1
 370 0 l 1
 40 0 l 1
327 261 m 2
 321 233 328 222 364 222 c 0
 490 222 534 314 536 398 c 0
 537 463 500 502 437 502 c 0
 392 502 380 491 374 464 c 2
 327 261 l 2
EndSplineSet
EndChar

StartChar: .notdef
Encoding: 0 0 227
Width: 608
VWidth: 2048
Flags: W
HStem: 0 43<233 535> 649 43<233 534>
VStem: 170 43<93 600> 555 43<93 600>
DStem2: 233 649 213 600 0.500485 -0.865745<32.4118 300.667 374.255 642.51> 213 93 233 43 0.500485 0.865745<0 268.255 341.844 610.099>
LayerCount: 2
Fore
SplineSet
170 0 m 5
 170 692 l 5
 598 692 l 5
 598 0 l 5
 170 0 l 5
213 93 m 5
 360 346 l 5
 213 600 l 5
 213 93 l 5
233 43 m 5
 535 43 l 5
 384 304 l 5
 233 43 l 5
233 649 m 5
 384 389 l 5
 534 649 l 5
 233 649 l 5
408 346 m 5
 555 93 l 5
 555 600 l 5
 408 346 l 5
EndSplineSet
EndChar

StartChar: grave.cap
Encoding: 63182 63182 228
Width: 400
Flags: MW
HStem: 719 185<227 449>
VStem: 173 290
LayerCount: 2
Fore
SplineSet
173 840 m 0
 173 860 195 904 227 904 c 0
 245 904 260 897 291 874 c 2
 463 751 l 1
 449 719 l 1
 246 783 l 2
 193 800 173 811 173 840 c 0
EndSplineSet
EndChar

StartChar: acute.cap
Encoding: 63177 63177 229
Width: 400
Flags: MW
HStem: 719 185<297 519>
VStem: 283 290
LayerCount: 2
Back
SplineSet
283 751 m 1
 455 874 l 2
 486 897 501 904 519 904 c 0
 551 904 573 860 573 840 c 0
 573 811 553 800 500 783 c 2
 297 719 l 1
 283 751 l 1
EndSplineSet
Fore
SplineSet
283 751 m 1
 455 874 l 2
 486 897 501 904 519 904 c 0
 551 904 573 860 573 840 c 0
 573 811 553 800 500 783 c 2
 297 719 l 1
 283 751 l 1
EndSplineSet
EndChar

StartChar: circumflex.cap
Encoding: 61431 61431 230
Width: 400
Flags: W
HStem: 800 105<361.973 446.865>
LayerCount: 2
Fore
SplineSet
184 755 m 1
 356 879 l 2
 374 892 391 905 408 905 c 0
 426 905 439 892 453 877 c 2
 565 755 l 1
 541 725 l 1
 435 785 l 2
 416 796 406 800 394 800 c 0
 384 800 371 795 352 787 c 2
 201 725 l 1
 184 755 l 1
EndSplineSet
EndChar

StartChar: uni0237
Encoding: 567 567 232
Width: 333
Flags: W
HStem: -242 46<32.975 74.8154> 440 33<128 184> 482 20G<200 367>
DStem2: 59.5305 -242 197.284 -242 0.224951 0.97437<107.433 686.856>
LayerCount: 2
Fore
SplineSet
-85 -174 m 0
 -85 -147 -54 -114 -25 -114 c 0
 -6 -114 4 -132 14 -147 c 0
 39 -185 50 -196 59 -196 c 0
 67 -196 72 -189 78 -162 c 2
 200 391 l 2
 206 418 204 432 185 434 c 2
 121 440 l 1
 128 473 l 1
 360 502 l 1
 367 497 l 1
 252 -5 l 2
 230 -99 204 -163 161 -201 c 0
 129 -228 87 -242 41 -242 c 0
 -45 -242 -85 -210 -85 -174 c 0
EndSplineSet
EndChar

StartChar: caron.cap
Encoding: 63178 63178 233
Width: 400
Flags: HW
LayerCount: 2
Fore
SplineSet
214.049 886 m 1
 238.049 916 l 1
 344.049 856 l 2
 363.049 845 373.049 841 385.049 841 c 0
 395.049 841 408.049 846 427.049 854 c 2
 578.049 916 l 1
 595.049 886 l 1
 423.049 762 l 2
 405.049 749 388.049 736 371.049 736 c 0
 353.049 736 340.049 749 326.049 764 c 2
 214.049 886 l 1
EndSplineSet
EndChar

StartChar: perthousandzero
Encoding: 61698 61698 234
Width: 445
Flags: W
HStem: -12 40<199.777 276.57> 320 40<252.154 324.422>
VStem: 80 109<43.2836 221.711> 336 109<118.735 306.141>
LayerCount: 2
Fore
SplineSet
80 127 m 0
 80 165 93 249 152 306 c 0
 192 345 242 360 296 360 c 0
 418 360 445 290 445 219 c 0
 445 186 439 136 408 82 c 0
 375 26 323 -12 226 -12 c 0
 114 -12 80 55 80 127 c 0
189 97 m 0
 189 61 197 28 235 28 c 0
 316 28 336 208 336 248 c 0
 336 283 329 320 292 320 c 0
 212 320 189 132 189 97 c 0
EndSplineSet
EndChar

StartChar: uni00B5
Encoding: 181 181 237
Width: 634
Flags: HW
HStem: -230 21G<51.5 86.5> -10 78<192 301.5> 477 20G<353 353> 482 20G<348 348 652 652>
VStem: 32 119 410 137
LayerCount: 2
Fore
SplineSet
35 -180 m 2
 183 391 l 2
 191 421 187 435 168 437 c 2
 109 443 l 1
 117 476 l 1
 348 502 l 1
 353 497 l 1xec
 259 128 l 2
 249 91 250 68 278 68 c 0
 325 68 407 199 443 285 c 0
 465 335 481 388 510 490 c 1
 652 502 l 1
 551 115 l 2
 543 89 544 68 563 68 c 0
 586 68 623 121 649 166 c 1
 678 148 l 1
 637 65 576 -12 479 -12 c 0
 425 -12 397 28 415 96 c 2
 446 210 l 1xdc
 442 210 l 1xdc
 379 94 296 -12 196 -10 c 0
 188 -10 173 -6 160 4 c 1
 154 -19 l 2
 150 -35 149 -71 156 -102 c 0
 162 -125 166 -142 166 -161 c 0
 166 -197 110 -230 63 -230 c 0
 40 -230 26 -216 35 -180 c 2
EndSplineSet
EndChar

StartChar: tilde.cap
Encoding: 61429 61429 238
Width: 400
Flags: W
HStem: 736 85<396.885 528.681> 778 85<240.319 376.774>
LayerCount: 2
Fore
SplineSet
172 741 m 1x40
 190 784 225 863 307 863 c 0x40
 335 863 367 853 399 842 c 0
 432 832 464 821 490 821 c 0
 527 821 543 837 565 876 c 1
 597 858 l 1
 579 815 544 736 462 736 c 0x80
 437 736 406 747 374 757 c 0
 342 768 309 778 279 778 c 0
 242 778 226 762 204 723 c 1
 172 741 l 1x40
EndSplineSet
EndChar

StartChar: afii10020
Encoding: 1043 1043 269
Width: 566
Flags: HMW
HStem: 0 38<49 94 319 366> 499 21G<627.182 671.352> 646 46<410.086 590.17>
DStem2: 138 98 290 95 0.224951 0.97437<-13.0101 557.798>
LayerCount: 2
Back
SplineSet
40 0 m 5
 49 38 l 5
 94 42 l 6
 123 44 130 62 138 98 c 6
 249 594 l 6
 257 630 258 647 230 649 c 6
 179 654 l 5xd8
 189 692 l 5xe8
 718 692 l 5
 678 509 l 5
 640 509 l 5
 635 562 l 6
 631 612 609 646 521 646 c 6
 447 646 l 6
 422 646 413 639 408 617 c 6xe8
 353 368 l 5
 466 368 l 6
 529 368 546 386 578 459 c 5
 616 459 l 5
 566 229 l 5
 528 229 l 5
 531 292 520 320 456 320 c 6
 341 320 l 5
 290 95 l 6
 282 59 287 45 319 42 c 6
 374 38 l 5
 366 0 l 5
 40 0 l 5
EndSplineSet
Fore
SplineSet
40 0 m 1
 49 38 l 1
 94 42 l 2
 123 44 130 62 138 98 c 2
 249 594 l 2
 257 630 258 647 230 649 c 2
 179 654 l 1
 189 692 l 1
 709 692 l 1
 667 499 l 1
 629 499 l 1
 624 554 l 2
 619 609 592 646 507 646 c 2
 447 646 l 2
 422 646 413 639 408 617 c 2
 290 95 l 2
 282 59 287 45 319 42 c 2
 374 38 l 1
 366 0 l 1
 40 0 l 1
EndSplineSet
EndChar

StartChar: afii10048
Encoding: 1070 1070 270
Width: 1127
Flags: W
HStem: -15 46<727 843 727 876> 0 38<49 94 311 352> 339 48<357 606> 654 38<189 230 447 491> 661 46<805.5 932.5>
VStem: 479 165<179.5 269.5 139 290> 1004 165<409 520 392.5 550>
DStem2: 138 98 292 98 0.224951 0.97437<-14.5234 281.613 330.857 557.423>
LayerCount: 2
Fore
SplineSet
40 0 m 1x76
 49 38 l 1
 94 42 l 2
 123 44 130 62 138 98 c 2
 249 594 l 2
 257 630 258 647 230 649 c 2
 179 654 l 1
 189 692 l 1
 501 692 l 1
 491 654 l 1
 447 650 l 2
 418 648 411 630 403 594 c 2
 357 387 l 1
 617 387 l 1
 606 339 l 1
 346 339 l 1
 292 98 l 2
 284 62 283 45 311 42 c 2
 361 38 l 1
 352 0 l 1
 40 0 l 1x76
EndSplineSet
Refer: 47 79 N 1 0 0 1 366 0 2
EndChar

StartChar: afii10033
Encoding: 1055 1055 271
Width: 794
Flags: MW
HStem: 0 38<49 94 311 352 457 502 719 760> 646 46<423 489 501 672>
DStem2: 138 98 292 98 0.224951 0.97437<-14.5234 556.689> 546 98 700 98 0.224951 0.97437<-14.5234 545.605 562.299 605.647>
LayerCount: 2
Back
SplineSet
40 0 m 1
 49 38 l 1
 94 42 l 2
 123 44 130 62 138 98 c 2
 249 594 l 2
 257 630 258 647 230 649 c 2
 179 654 l 1
 189 692 l 1
 501 692 l 1
 491 654 l 1
 447 650 l 2
 418 648 411 630 403 594 c 2
 357 387 l 1
 617 387 l 1
 663 594 l 2
 671 630 672 647 644 649 c 2
 593 654 l 1
 603 692 l 1
 915 692 l 1
 905 654 l 1
 861 650 l 2
 832 648 825 630 817 594 c 2
 706 98 l 2
 698 62 697 45 725 42 c 2
 775 38 l 1
 766 0 l 1
 454 0 l 1
 463 38 l 1
 508 42 l 2
 537 44 544 62 552 98 c 2
 606 339 l 1
 346 339 l 1
 292 98 l 2
 284 62 283 45 311 42 c 2
 361 38 l 1
 352 0 l 1
 40 0 l 1
EndSplineSet
Fore
SplineSet
672 646 m 1
 412 646 l 1
 423 692 l 1
 683 692 l 1
 672 646 l 1
448 0 m 1
 457 38 l 1
 502 42 l 2
 531 44 538 62 546 98 c 2
 656 590 l 2
 666 637 655 639 585 646 c 1
 597 692 l 1
 909 692 l 1
 899 654 l 1
 855 650 l 2
 826 648 819 630 811 594 c 2
 700 98 l 2
 692 62 691 45 719 42 c 2
 769 38 l 1
 760 0 l 1
 448 0 l 1
40 0 m 1
 49 38 l 1
 94 42 l 2
 123 44 130 62 138 98 c 2
 249 594 l 2
 257 630 258 647 230 649 c 2
 179 654 l 1
 189 692 l 1
 501 692 l 1
 489 646 l 1
 424 640 412 637 402 590 c 2
 292 98 l 2
 284 62 283 45 311 42 c 2
 361 38 l 1
 352 0 l 1
 40 0 l 1
EndSplineSet
EndChar

StartChar: afii10042
Encoding: 1064 1064 272
Width: 1130
Flags: HW
HStem: 0 38<50 94 1055 1096> 0 46<277 352 364 724 736 816> 654 38<189 230 447 484 569 602 819 856 941 974 1191 1236>
DStem2: 138 98 293 102 0.224951 0.97437<-60.7727 -19.399 -3.62387 557.426> 352 0 412 0 0.224951 0.97437<13.4971 47.5204> 511 102 665 102 0.224951 0.97437<-6.48257 554.793> 724 0 784 0 0.224951 0.97437<13.4971 47.5204> 883 102 1036 98 0.224951 0.97437<-17.9115 554.789>
LayerCount: 2
Fore
SplineSet
724 0 m 1x60
 412 0 l 1
 424 46 l 1
 489 52 501 55 511 102 c 2
 621 594 l 2
 629 630 630 648 602 651 c 2
 560 654 l 1
 569 692 l 1
 865 692 l 1
 856 654 l 1
 819 651 l 2
 790 648 783 630 775 594 c 2
 665 102 l 2
 655 55 666 53 736 46 c 1
 724 0 l 1x60
1245 692 m 1
 1236 654 l 1
 1191 650 l 2
 1162 648 1155 630 1147 594 c 2
 1036 98 l 2
 1028 62 1027 45 1055 43 c 2
 1106 38 l 1
 1096 0 l 1xa0
 784 0 l 1
 796 46 l 1
 861 52 873 55 883 102 c 2
 993 594 l 2
 1001 630 1002 648 974 651 c 2
 932 654 l 1
 941 692 l 1
 1245 692 l 1
277 46 m 1x60
 827 46 l 1
 816 0 l 1
 266 0 l 1
 277 46 l 1x60
493 692 m 1
 484 654 l 1
 447 651 l 2
 418 648 411 630 403 594 c 2
 293 102 l 2
 283 55 294 53 364 46 c 1
 352 0 l 1
 40 0 l 1x60
 50 38 l 1xa0
 94 42 l 2
 123 44 130 62 138 98 c 2
 249 594 l 2
 257 630 258 647 230 650 c 2
 180 654 l 1
 189 692 l 1
 493 692 l 1
EndSplineSet
EndChar

StartChar: afii10026
Encoding: 1048 1048 273
Width: 806
Flags: MW
HStem: 0 38<49 94 311 352 469 514 731 772> 654 38<189 230 447 491 609 650 867 911>
DStem2: 138 98 292 98 0.218388 0.975862<-16.0107 72.2767 101.199 557.911> 558 98 712 98 0.218388 0.975862<-16.0107 475.409 504.332 557.911>
LayerCount: 2
Back
SplineSet
40 0 m 1
 49 38 l 1
 94 42 l 2
 123 44 130 62 138 98 c 2
 249 594 l 2
 257 630 258 647 230 649 c 2
 179 654 l 1
 189 692 l 1
 501 692 l 1
 491 654 l 1
 447 650 l 2
 418 648 411 630 403 594 c 2
 357 387 l 1
 617 387 l 1
 663 594 l 2
 671 630 672 647 644 649 c 2
 593 654 l 1
 603 692 l 1
 915 692 l 1
 905 654 l 1
 861 650 l 2
 832 648 825 630 817 594 c 2
 706 98 l 2
 698 62 697 45 725 42 c 2
 775 38 l 1
 766 0 l 1
 454 0 l 1
 463 38 l 1
 508 42 l 2
 537 44 544 62 552 98 c 2
 606 339 l 1
 346 339 l 1
 292 98 l 2
 284 62 283 45 311 42 c 2
 361 38 l 1
 352 0 l 1
 40 0 l 1
EndSplineSet
Fore
SplineSet
710.274 551.091 m 1
 295.909 136.726 l 1
 257.726 174.909 l 1
 672.091 589.274 l 1
 710.274 551.091 l 1
460 0 m 1
 469 38 l 1
 514 42 l 2
 543 44 550 62 558 98 c 2
 669 594 l 2
 677 630 678 647 650 649 c 2
 599 654 l 1
 609 692 l 1
 921 692 l 1
 911 654 l 1
 867 650 l 2
 838 648 831 630 823 594 c 2
 712 98 l 2
 704 62 703 45 731 42 c 2
 781 38 l 1
 772 0 l 1
 460 0 l 1
40 0 m 1
 49 38 l 1
 94 42 l 2
 123 44 130 62 138 98 c 2
 249 594 l 2
 257 630 258 647 230 649 c 2
 179 654 l 1
 189 692 l 1
 501 692 l 1
 491 654 l 1
 447 650 l 2
 418 648 411 630 403 594 c 2
 292 98 l 2
 284 62 283 45 311 42 c 2
 361 38 l 1
 352 0 l 1
 40 0 l 1
EndSplineSet
EndChar

StartChar: afii10046
Encoding: 1068 1068 274
Width: 680
Flags: MW
HStem: 0 46<294.66 442.484> 351 46<357.661 476.466> 654 38<189 230 447 505>
VStem: 520 165<126.026 290.384>
DStem2: 115.375 0 269.374 0 0.224951 0.97437<97.1724 395.617 433.384 658.001>
LayerCount: 2
Back
SplineSet
40 0 m 5x74
 49 38 l 5
 94 42 l 6
 123 44 130 62 138 98 c 6
 249 594 l 6
 257 630 258 647 230 649 c 6
 179 654 l 5xac
 189 692 l 5
 456 692 l 6
 566 693 632 677 670 647 c 4
 707 619 724 579 724 533 c 4x72
 724 450 665 379 534 365 c 5
 534 363 l 5
 603 351 685 304 685 196 c 4
 685 134 655 79 605 46 c 4
 551 11 470 0 373 0 c 6
 40 0 l 5x74
295 111 m 6
 286 71 291 46 351 46 c 4
 469 46 520 126 520 220 c 4
 520 299 473 343 388 343 c 6x74
 347 343 l 5
 295 111 l 6
357 389 m 5
 401 389 l 6
 499 389 569 446 569 544 c 4x72
 569 617 525 646 461 646 c 4
 417 646 413 639 406 609 c 6
 357 389 l 5
EndSplineSet
Fore
SplineSet
40 0 m 1
 49 38 l 1
 94 42 l 2
 123 44 130 62 138 98 c 2
 249 594 l 2
 257 630 258 647 230 649 c 2
 179 654 l 1
 189 692 l 1
 515 692 l 17
 505 654 l 1
 447 650 l 2
 418 648 411 630 403 594 c 2
 357 389 l 1
 370 392 414 397 438 397 c 0
 494 397 685 383 685 196 c 0
 685 134 655 79 605 46 c 0
 551 11 470 0 373 0 c 2
 40 0 l 1
295 111 m 2
 286 71 291 46 351 46 c 0
 469 46 520 126 520 220 c 0
 520 293 480 351 419 351 c 0
 392 351 358 346 346 339 c 1
 295 111 l 2
EndSplineSet
EndChar

StartChar: afii10018
Encoding: 1041 1041 276
Width: 682
Flags: W
HStem: 0 46<294.66 442.578> 0 38<49 94> 357 46<359.661 476.876> 499 21G<638.182 682.352> 646 46<410.086 601.17> 654 38<189 230>
VStem: 522 165<128.683 294.401>
DStem2: 138 98 295 111 0.224951 0.97437<-3.40539 302.051 341.051 557.798>
LayerCount: 2
Back
SplineSet
40 0 m 1x78
 49 38 l 1x78
 94 42 l 2
 123 44 130 62 138 98 c 2
 249 594 l 2
 257 630 258 647 230 649 c 2
 179 654 l 1
 189 692 l 1
 501 692 l 17
 491 654 l 1
 447 650 l 2
 418 648 411 630 403 594 c 2
 357 389 l 1
 370 392 414 397 438 397 c 0
 494 397 685 383 685 196 c 0
 685 134 655 79 605 46 c 0
 551 11 470 0 373 0 c 2xb8
 40 0 l 1x78
295 111 m 2
 286 71 291 46 351 46 c 0xb8
 469 46 520 126 520 220 c 0
 520 293 480 351 419 351 c 0
 392 351 358 346 346 339 c 1
 295 111 l 2
EndSplineSet
Fore
SplineSet
40 0 m 1x72
 49 38 l 1
 94 42 l 2
 123 44 130 62 138 98 c 2
 249 594 l 2
 257 630 258 647 230 649 c 2
 179 654 l 1
 189 692 l 1
 720 692 l 1x76
 678 499 l 1
 640 499 l 1
 635 554 l 2
 630 609 603 646 518 646 c 2
 447 646 l 2
 422 646 413 639 408 617 c 2
 359 397 l 1
 372 400 416 403 440 403 c 0
 498 403 687 387 687 199 c 0
 687 136 655 79 605 46 c 0
 551 11 470 0 373 0 c 2xba
 40 0 l 1x72
295 111 m 2
 286 71 291 46 351 46 c 0xb2
 469 46 522 127 522 223 c 0
 522 297 483 357 421 357 c 0
 394 357 360 354 348 347 c 1
 295 111 l 2
EndSplineSet
EndChar

StartChar: afii10040
Encoding: 1062 1062 277
Width: 792
Flags: HMW
HStem: -190 21G<693 735.153> 0 38<50 94> 0 46<277 352 364 531 535 758> 654 38<189 230 447 492 595 636 853 898>
VStem: 693 38<-190 -156.286>
DStem2: 138 98 293 102 0.224951 0.97437<-60.7727 -19.399 -3.62387 557.423> 545 102 699 102 0.224951 0.97437<-6.48257 553.301>
LayerCount: 2
Fore
SplineSet
446 0 m 1
 458 46 l 1
 523 52 535 55 545 102 c 2
 655 594 l 2
 663 630 664 647 636 650 c 2
 586 654 l 1
 595 692 l 1
 907 692 l 1
 898 654 l 1
 853 650 l 2
 824 648 817 630 809 594 c 2
 699 102 l 2
 689 55 700 53 770 46 c 1
 758 0 l 1
 446 0 l 1
516 0 m 9
 531 46 l 1
 780 46 l 1
 731 -190 l 1
 693 -190 l 1
 697 -155 698 -125 698 -101 c 0
 698 -26 655 0 516 0 c 9
277 46 m 1
 485 46 l 1
 474 0 l 1
 266 0 l 1
 277 46 l 1
501 692 m 1
 492 654 l 1
 447 650 l 2
 418 648 411 630 403 594 c 2
 293 102 l 2
 283 55 294 53 364 46 c 1
 352 0 l 1
 40 0 l 1
 50 38 l 1
 94 42 l 2
 123 44 130 62 138 98 c 2
 249 594 l 2
 257 630 258 647 230 650 c 2
 180 654 l 1
 189 692 l 1
 501 692 l 1
EndSplineSet
EndChar

StartChar: afii10043
Encoding: 1065 1065 278
Width: 1130
Flags: MW
HStem: -190 21 0 38<50 94 1055 1096> 0 46<277 352 364 724 736 816> 654 38<189 230 447 484 569 602 819 856 941 974 1191 1236>
VStem: 1031 38<-190 -156.286>
DStem2: 138 98 293 102 0.224951 0.97437<-60.7727 -19.399 -3.62387 557.426> 352 0 412 0 0.224951 0.97437<13.4971 47.5204> 511 102 665 102 0.224951 0.97437<-6.48257 554.793> 724 0 784 0 0.224951 0.97437<13.4971 47.5204> 883 102 1036 98 0.224951 0.97437<-17.9115 554.789>
LayerCount: 2
Fore
SplineSet
784 0 m 1x56
 796 46 l 1
 861 52 873 55 883 102 c 2
 993 594 l 2
 1001 630 1002 647 974 650 c 2
 924 654 l 1
 933 692 l 1
 1245 692 l 1
 1236 654 l 1
 1191 650 l 2
 1162 648 1155 630 1147 594 c 2
 1037 102 l 2
 1027 55 1038 53 1108 46 c 1
 1096 0 l 1
 784 0 l 1x56
854 0 m 9
 869 46 l 1
 1118 46 l 1
 1069 -190 l 1
 1031 -190 l 1
 1035 -155 1036 -125 1036 -101 c 0
 1036 -26 993 0 854 0 c 9
724 0 m 1
 412 0 l 1
 424 46 l 1
 489 52 501 55 511 102 c 2
 621 594 l 2
 629 630 630 648 602 651 c 2
 560 654 l 1
 569 692 l 1
 865 692 l 1
 856 654 l 1
 819 651 l 2
 790 648 783 630 775 594 c 2
 665 102 l 2
 655 55 666 53 736 46 c 1
 724 0 l 1
277 46 m 1
 827 46 l 1
 816 0 l 1
 266 0 l 1
 277 46 l 1
493 692 m 1
 484 654 l 1
 447 651 l 2
 418 648 411 630 403 594 c 2
 293 102 l 2
 283 55 294 53 364 46 c 1
 352 0 l 1
 40 0 l 1x56
 50 38 l 1x66
 94 42 l 2
 123 44 130 62 138 98 c 2
 249 594 l 2
 257 630 258 647 230 650 c 2
 180 654 l 1
 189 692 l 1
 493 692 l 1
EndSplineSet
EndChar

StartChar: afii10029
Encoding: 1051 1051 279
Width: 799
VWidth: 0
Flags: HMW
HStem: -15 46<157.004 207.855> 0 38<462 507 724 765> 646 46<518 576 588 677> 654 38<368 409 860 904>
VStem: 42 140<65.0504 167.401>
DStem2: 551 98 705 98 0.224951 0.97437<-14.5234 545.605 562.299 605.647> 576 646 590 646 0.224951 0.97437<3.14931 47.5204>
LayerCount: 2
Back
SplineSet
154.545 -87.1377 m 4
 37.3398 11.209 22.0645 112.794 60.3848 161.574 c 4
 89.0635 198.865 143.586 192.277 168.864 171.065 c 4
 193.378 150.497 185.734 124.275 176.833 104.331 c 4
 138.775 20.083 146.576 -20.4033 182.58 -50.6143 c 4
40 80 m 0
 40 119.305 41.3857 186 111 186 c 0
 135.522 186 153 166.114 153 144 c 0
 153 92.75 122 95.8252 122 62 c 0
 122 43.5996 138.3 39 153 39 c 0
 225.83 39 371.816 244.464 453.191 603.892 c 0
 454.252 608.612 454.907 613.565 454.907 618.222 c 0
 454.907 631.402 450.261 642.137 438.383 643.144 c 2
 369.161 647.66 l 1
 380.701 692 l 1
 615.759 692 l 1
 605.559 642.134 l 1
 599 642.134 l 2
 530.507 642.134 523.909 639.309 513.804 596.411 c 0
 428.928 236.126 286.644 -12 155 -12 c 0
 74.9365 -12 40 30.7705 40 80 c 0
EndSplineSet
Fore
SplineSet
677 646 m 1x28
 507 646 l 1
 518 692 l 1x28
 688 692 l 1x18
 677 646 l 1x28
453 0 m 1x58
 462 38 l 1
 507 42 l 2
 536 44 543 62 551 98 c 2
 661 590 l 2
 671 637 660 639 590 646 c 1
 602 692 l 1x68
 914 692 l 1
 904 654 l 1
 860 650 l 2
 831 648 824 630 816 594 c 2
 705 98 l 2
 697 62 696 45 724 42 c 2
 774 38 l 1
 765 0 l 1
 453 0 l 1x58
42 100 m 0
 42 138 57 188 111 188 c 0
 148 188 182 170 182 138 c 0
 182 102 156 66 156 48 c 0
 156 37 158 31 171 31 c 0
 234 31 351 259 428 594 c 0
 436 630 437 647 409 649 c 2
 358 654 l 1
 368 692 l 1x98
 588 692 l 1
 576 646 l 1
 511 640 500 637 489 590 c 0
 415 271 298 -15 173 -15 c 0xa8
 70 -15 42 54 42 100 c 0
EndSplineSet
EndChar

StartChar: afii10021
Encoding: 1044 1044 280
Width: 741
VWidth: 0
Flags: MW
HStem: -190 21G<-33 30.5 632 674.153> 0 46<117.617 269 275 423 470 707> 646 46<460 518 530 619>
VStem: -33 38<-190 -162> 632 38<-190 -156.286>
DStem2: 494 102 648 102 0.21819 0.975906<-8.52511 542.559>
LayerCount: 2
Back
SplineSet
677 646 m 5
 507 646 l 5
 518 692 l 5
 688 692 l 5
 677 646 l 5
453 0 m 5
 462 38 l 5
 507 42 l 6
 536 44 543 62 551 98 c 6
 661 590 l 6
 671 637 660 639 590 646 c 5
 602 692 l 5
 914 692 l 5
 904 654 l 5
 860 650 l 6
 831 648 824 630 816 594 c 6
 705 98 l 6
 697 62 696 45 724 42 c 6
 774 38 l 5
 765 0 l 5
 453 0 l 5
415 643 m 6
42 100 m 4
 42 138 57 188 111 188 c 4
 148 188 182 170 182 138 c 4
 182 102 156 66 156 48 c 4
 156 37 158 31 171 31 c 4
 234 31 351 259 428 594 c 4
 436 630 437 647 409 649 c 6
 358 654 l 5
 368 692 l 5
 588 692 l 5
 576 646 l 5
 511 640 500 637 489 590 c 4
 415 271 298 -15 173 -15 c 4
 70 -15 42 54 42 100 c 4
EndSplineSet
Fore
SplineSet
269 0 m 17
 84 0 56 -44 5 -190 c 1
 -33 -190 l 1
 26 46 l 1
 275 46 l 1
 269 0 l 17
455 0 m 9
 470 46 l 1
 719 46 l 1
 670 -190 l 1
 632 -190 l 1
 636 -155 637 -125 637 -101 c 0
 637 -26 594 0 455 0 c 9
219 46 m 1
 434 46 l 1
 423 0 l 1
 208 0 l 1
 219 46 l 1
619 646 m 1
 449 646 l 1
 460 692 l 1
 630 692 l 1
 619 646 l 1
648 102 m 2
 638 55 649 53 719 46 c 1
 707 0 l 1
 395 0 l 1
 407 46 l 1
 472 52 484 55 494 102 c 2
 603 590 l 2
 613 637 602 639 532 646 c 1
 544 692 l 1
 856 692 l 1
 846 654 l 1
 802 650 l 2
 773 648 766 630 758 594 c 2
 648 102 l 2
58 46 m 1
 130 46 298 284 370 594 c 0
 378 630 379 647 351 649 c 2
 300 654 l 1
 310 692 l 1
 530 692 l 1
 518 646 l 1
 453 640 442 637 431 590 c 0
 382 378 284 187 201 83 c 0
 179 55 200 46 254 46 c 1
 58 46 l 1
EndSplineSet
EndChar

StartChar: afii10044
Encoding: 1066 1066 281
Width: 850
Flags: HMW
HStem: 0 46<464.66 612.484> 351 46<527.661 646.466> 646 46<267.324 390.826>
VStem: 125 35<480 510.917> 690 165<126.026 290.384>
DStem2: 285.375 0 439.374 0 0.224951 0.97437<97.1724 395.617 433.384 646.183>
LayerCount: 2
Fore
SplineSet
125 480 m 1
 173 692 l 1
 685 692 l 1
 675 654 l 1
 617 650 l 2
 588 648 581 630 573 594 c 2
 527 389 l 1
 540 392 584 397 608 397 c 0
 664 397 855 383 855 196 c 0
 855 134 825 79 775 46 c 0
 721 11 640 0 543 0 c 2
 210 0 l 1
 219 38 l 1
 264 42 l 2
 293 44 300 62 308 98 c 2
 418 590 l 2
 428 637 417 639 347 646 c 1
 344 646 l 2
 272 646 210 596 160 480 c 1
 125 480 l 1
465 111 m 2
 456 71 461 46 521 46 c 0
 639 46 690 126 690 220 c 0
 690 293 650 351 589 351 c 0
 562 351 528 346 516 339 c 1
 465 111 l 2
EndSplineSet
EndChar

StartChar: afii10041
Encoding: 1063 1063 282
Width: 758
Flags: MW
HStem: 0 38<407 466 683 724> 247 82<280.5 453.974> 654 38<177 218 435 472 569 602 819 864>
DStem2: 99.4167 0 254.034 0 0.224951 0.97437<408.676 658.894> 487.375 0 641.375 0 0.224951 0.97437<86.0544 320.865 369.907 659.49>
LayerCount: 2
Back
SplineSet
781.486 595 m 2
 666.514 97 l 2
 654.739 46 661.585 41 731.893 38 c 1
 723.119 0 l 1
 405.119 0 l 1
 413.893 38 l 1
 485.585 41 494.739 46 506.514 97 c 2
 621.486 595 l 2
 633.261 646 625.184 650 564.107 654 c 1
 572.881 692 l 1
 882.881 692 l 1
 874.107 654 l 1
 802.415 651 793.261 646 781.486 595 c 2
166.107 654 m 1
 174.881 692 l 1
 484.881 692 l 1
 476.107 654 l 1
 413.184 650 403.261 646 391.486 595 c 2
 354.086 433 l 2
 338.617 366 340.075 329 413.075 329 c 0
 441.075 329 482.768 332 507.308 343 c 0
 560.849 367 571.85 380 579.007 411 c 1
 556.381 313 l 1
 484.532 279 413.145 247 312.145 247 c 0
 197.145 247 167.536 318 198.703 453 c 2
 231.486 595 l 2
 243.261 646 236.415 651 166.107 654 c 1
EndSplineSet
Fore
SplineSet
168 654 m 1
 177 692 l 1
 481 692 l 1
 472 654 l 1
 435 651 l 2
 406 648 399 630 391 594 c 2
 354 433 l 2
 340 370 350 329 431 329 c 0
 456 329 483 333 507 343 c 0
 560 364 573 382 580 411 c 2
 621 594 l 2
 629 630 630 648 602 651 c 2
 560 654 l 1
 569 692 l 1
 873 692 l 1
 864 654 l 1
 819 650 l 2
 790 648 783 630 775 594 c 2
 664 98 l 2
 656 62 655 45 683 43 c 2
 734 38 l 1
 724 0 l 1
 398 0 l 1
 407 38 l 1
 466 42 l 2
 495 44 502 62 510 98 c 2
 558 313 l 1
 556 313 l 1
 488 278 414 247 335 247 c 0
 226 247 178 340 204 453 c 2
 237 594 l 2
 245 630 246 647 218 650 c 2
 168 654 l 1
EndSplineSet
EndChar

StartChar: afii10038
Encoding: 1060 1060 283
Width: 898
Flags: HW
HStem: -2 38<305 350 567 608> 119 46<563 647.613> 541 46<658 724.41> 660 38<447 488 705 749>
VStem: 125 162<223.766 407.797> 771 162<298.203 482.234>
DStem2: 371.375 -2 525.375 -2 0.224951 0.97437<86.0544 666.246>
LayerCount: 2
Back
SplineSet
123.496 353 m 0
 151.2 473 246.52 587 506.52 587 c 9
 495.899 541 l 17
 375.899 541 325.046 468 298.496 353 c 0
 271.946 238 289.094 165 409.094 165 c 9
 398.474 119 l 17
 138.474 119 95.792 233 123.496 353 c 0
291.538 -2 m 1
 300.312 36 l 1
 372.004 39 381.158 44 392.933 95 c 2
 509.752 601 l 2
 521.526 652 514.681 657 444.373 660 c 1
 453.146 698 l 1
 771.146 698 l 1
 762.373 660 l 1
 690.681 657 681.526 652 669.752 601 c 2
 552.933 95 l 2
 541.158 44 548.004 39 618.312 36 c 1
 609.538 -2 l 1
 291.538 -2 l 1
766.496 353 m 0
 793.046 468 775.899 541 655.899 541 c 9
 666.52 587 l 17
 926.52 587 969.201 473 941.496 353 c 0
 913.792 233 818.474 119 558.474 119 c 9
 569.094 165 l 17
 689.094 165 739.946 238 766.496 353 c 0
EndSplineSet
Fore
SplineSet
125 329 m 0
 125 434 230 587 506 587 c 9
 495 541 l 17
 312 541 287 350 287 295 c 0
 287 220 314 165 411 165 c 9
 400 119 l 17
 180 119 125 212 125 329 c 0
771 411 m 0
 771 486 744 541 647 541 c 9
 658 587 l 17
 878 587 933 494 933 377 c 0
 933 272 828 119 552 119 c 9
 563 165 l 17
 746 165 771 356 771 411 c 0
282 -2 m 1
 291 36 l 1
 350 40 l 2
 379 42 386 60 394 96 c 2
 507 600 l 2
 515 636 516 653 488 655 c 2
 423 660 l 1
 433 698 l 1
 773 698 l 1
 763 660 l 1
 705 656 l 2
 676 654 669 636 661 600 c 2
 548 96 l 2
 540 60 539 42 567 40 c 2
 631 36 l 1
 622 -2 l 1
 282 -2 l 1
EndSplineSet
EndChar

StartChar: afii10047
Encoding: 1069 1069 284
Width: 660
Flags: HMW
HStem: -15 46<217.006 369.39> 346 48<288 288> 661 46<349.349 489.636>
VStem: 65 140<85.3529 192.377> 169 38<494 522.996> 537 165<312.049 528.334>
LayerCount: 2
Back
SplineSet
197.756 -55.1455 m 0
 70.9121 30.4102 45.1016 129.843 78.1143 182.361 c 0
 102.738 222.444 157.648 221.594 185.008 203.14 c 0
 211.537 185.246 206.677 158.369 199.908 137.604 c 0
 170.865 49.8389 182.855 10.3896 221.821 -15.8916 c 0
13 264 m 0
 13 316 17 406 70 508 c 0
 124 611 226 707 407 707 c 0
 575 707 703 621 703 419 c 0
 703 366 695 274 644 176 c 0
 591 74 500 -15 320 -15 c 0
 119 -15 13 95 13 264 c 0
178 190 m 0
 178 88 219 31 303 31 c 0
 451 31 538 312 538 506 c 0
 538 594 511 661 422 661 c 0
 257 661 178 349 178 190 c 0
EndSplineSet
Fore
SplineSet
526 346 m 1
 277 346 l 1
 288 394 l 1
 538 394 l 1
 526 346 l 1
65 126 m 0
 65 147 68 215 146 215 c 0
 180 215 205 195 205 165 c 0
 205 133 197 113 197 84 c 0
 197 60 234 31 292 31 c 0
 500 31 537 419 537 454 c 0
 537 517 534 661 437 661 c 0
 315 661 246 572 207 494 c 1
 169 494 l 1
 206 654 l 1
 275 694 383 707 433 707 c 0
 644 707 702 518 702 410 c 0
 702 354 683 208 582 90 c 0
 520 18 447 -15 276 -15 c 0
 141 -15 65 55 65 126 c 0
EndSplineSet
EndChar

StartChar: afii10025
Encoding: 1047 1047 287
Width: 634
Flags: MW
HStem: -15 46<212.051 384.653> 350 48<280 429.745> 661 46<320.274 470.986>
VStem: 65 140<92.8907 195.89> 169 38<494 524.27> 474 165<122.04 287.985> 508 155<474.353 614.835>
LayerCount: 2
Back
SplineSet
526 346 m 1
 277 346 l 1
 288 394 l 1
 538 394 l 1
 526 346 l 1
65 126 m 0
 65 147 68 215 146 215 c 0
 180 215 205 195 205 165 c 0
 205 133 197 113 197 84 c 0
 197 60 234 31 292 31 c 0
 500 31 537 419 537 454 c 0
 537 517 534 661 437 661 c 0
 315 661 246 572 207 494 c 1
 169 494 l 1
 206 654 l 1
 275 694 383 707 433 707 c 0
 644 707 702 518 702 410 c 0
 702 354 683 208 582 90 c 0
 520 18 447 -15 276 -15 c 0
 141 -15 65 55 65 126 c 0
EndSplineSet
Fore
SplineSet
65 129 m 0
 65 180 83 212 134 212 c 0
 174 212 205 198 205 158 c 0
 205 130 197 132 197 91 c 0
 197 57 216 31 299 31 c 0
 423 31 474 130 474 212 c 0
 474 288 456 350 345 350 c 2
 269 350 l 1
 280 398 l 1
 352 398 l 2
 488 398 508 501 508 550 c 0
 508 605 480 661 407 661 c 0
 290 661 246 576 207 494 c 1
 169 494 l 1
 206 654 l 1
 275 694 357 707 407 707 c 0
 531 707 663 666 663 537 c 0
 663 502 626 402 488 378 c 1
 488 376 l 1
 576 366 639 292 639 201 c 0
 639 104 581 -15 281 -15 c 0
 135 -15 65 44 65 129 c 0
EndSplineSet
EndChar

StartChar: afii10037
Encoding: 1059 1059 288
Width: 677
VWidth: 0
Flags: MW
HStem: -15 46<209.655 277.803> 654 38<135 179.245 365 419 577 627 738.582 804>
VStem: 89 140<59.2275 187.401>
DStem2: 381 466 191 603 0.287164 -0.957882<-180.904 187.351> 322 108 380 88 0.542014 0.84037<-101.107 21.6308 211.375 617.532>
LayerCount: 2
Back
SplineSet
641 595 m 10
 314 88 l 2
492 122 m 1
 348 603 l 18
714 595 m 10
 387 88 l 2
342 122 m 1
 198 603 l 18
134 654 m 1
 141 692 l 1
 433 692 l 1
 426 654 l 1
 366 648 l 2
 347 646 345 633 347 617 c 0
 349 597 369 399 371 377 c 2
 397 136 l 1
 399 136 l 1
 431 190 494 309 522 361 c 0
 578 467 625 557 652 616 c 0
 661 636 658 648 639 650 c 2
 583 654 l 1
 591 692 l 1
 825 692 l 1
 818 654 l 1
 781 650 l 2
 758 647 744 628 724 598 c 0
 684 538 629 439 570 333 c 2
 386 0 l 1
 266 0 l 1
 233 310 l 2
 220 438 206 539 198 604 c 0
 194 634 187 647 168 650 c 2
 134 654 l 1
EndSplineSet
Fore
SplineSet
89 120 m 0
 89 158 104 208 158 208 c 0
 195 208 229 190 229 158 c 0
 229 122 208 84 208 58 c 0
 208 44 215 31 233 31 c 0
 268 31 296 68 322 108 c 2
 334 126 l 1
 191 603 l 18
 179 642 177 653 127 654 c 1
 135 692 l 1
 426 692 l 1
 419 654 l 1
 365 649 l 2
 324 645 335 624 381 466 c 2
 433 286 l 1
 436 286 l 1
 533 438 l 2
 590 527 610 565 636 616 c 0
 644 632 646 647 627 649 c 2
 569 654 l 1
 577 692 l 1
 811 692 l 1
 804 654 l 1
 747 650 738 643 707 595 c 10
 380 88 l 2
 313 -7 278 -15 225 -15 c 0
 122 -15 89 66 89 120 c 0
EndSplineSet
EndChar

StartChar: afii10028
Encoding: 1050 1050 289
Width: 799
VWidth: 0
Flags: W
HStem: -15 46<709.02 763> 0 38<49 94 311 352> 341 48<349 452.07> 654 38<189 230 447 491> 661 46<679.476 735.675>
VStem: 517 155<73.1615 265.596> 736 114<557.19 660.677>
DStem2: 111.912 -15 265.912 -15 0.224951 0.97437<101.449 673.395>
LayerCount: 2
Back
SplineSet
716.238 751.002 m 0
 748.937 721.561 747.958 672.65 723.562 597.733 c 0
 716.868 576.849 712.925 557.522 733.732 538.787 c 0
 759.742 515.368 801.812 509.784 828.725 536.685 c 0
 864.337 573.247 862.205 681.472 750.733 781.84 c 0
40 0 m 1
 49 38 l 1
 94 42 l 2
 123 44 130 62 138 98 c 2
 249 594 l 2
 257 630 258 647 230 649 c 2
 179 654 l 1
 189 692 l 1
 501 692 l 1
 491 654 l 1
 447 650 l 2
 418 648 411 630 403 594 c 2
 292 98 l 2
 284 62 283 45 311 42 c 2
 361 38 l 1
 352 0 l 1
 40 0 l 1
338 341 m 1
 349 389 l 1
 383 389 l 2
 490 389 534 449 578 535 c 0
 624 626 679 707 759 707 c 0
 833 707 888 674 867 585 c 0
 861 559 837 521 788 521 c 0
 750 521 728 530 738 571 c 0
 745 601 756 614 761 637 c 0
 765 655 763 661 748 661 c 0
 721 661 682 617 646 541 c 0
 600 445 564 399 511 376 c 1
 511 375 l 1
 602 358 697 332 690 177 c 0
 686 72 720 31 768 31 c 2
 773 31 l 1
 763 -15 l 1
 695 -15 l 2
 583 -15 508 0 517 125 c 0
 527 258 489 341 375 341 c 2
 338 341 l 1
40 0 m 1
 49 38 l 1
 94 42 l 2
 123 44 130 62 138 98 c 2
 249 594 l 2
 257 630 258 647 230 649 c 2
 179 654 l 1
 189 692 l 1
 501 692 l 1
 491 654 l 1
 447 650 l 2
 418 648 411 630 403 594 c 2
 292 98 l 2
 284 62 283 45 311 42 c 2
 361 38 l 1
 352 0 l 1
 40 0 l 1
338 341 m 1
 349 389 l 1
 383 389 l 2
 490 389 534 449 578 535 c 0
 624 626 679 707 759 707 c 0
 833 707 888 674 867 585 c 0
 861 559 837 521 788 521 c 0
 750 521 728 530 738 571 c 0
 745 601 756 614 761 637 c 0
 765 655 763 661 748 661 c 0
 721 661 682 617 646 541 c 0
 600 445 564 399 511 376 c 1
 511 375 l 1
 602 358 697 332 690 177 c 0
 686 72 720 31 768 31 c 2
 773 31 l 1
 763 -15 l 1
 695 -15 l 2
 583 -15 508 0 517 125 c 0
 527 258 489 341 375 341 c 2
 338 341 l 1
EndSplineSet
Fore
SplineSet
40 0 m 1x76
 49 38 l 1
 94 42 l 2
 123 44 130 62 138 98 c 2
 249 594 l 2
 257 630 258 647 230 649 c 2
 179 654 l 1
 189 692 l 1
 501 692 l 1
 491 654 l 1
 447 650 l 2
 418 648 411 630 403 594 c 2
 292 98 l 2
 284 62 283 45 311 42 c 2
 361 38 l 1
 352 0 l 1
 40 0 l 1x76
338 341 m 1
 349 389 l 1
 383 389 l 2
 472 389 528 445 564 535 c 0
 604 636 636 707 732 707 c 0
 804 707 850 678 850 603 c 0
 850 565 839 524 782 524 c 0
 764 524 723 532 723 574 c 0
 723 604 736 629 736 644 c 0
 736 659 728 661 717 661 c 0
 689 661 656 624 627 541 c 0
 593 445 546 392 493 376 c 1
 493 375 l 1
 584 358 672 304 672 177 c 0
 672 58 720 31 768 31 c 2
 773 31 l 1
 763 -15 l 1
 695 -15 l 2xae
 583 -15 517 20 517 125 c 0
 517 252 489 341 375 341 c 2
 338 341 l 1
EndSplineSet
EndChar

StartChar: afii10024
Encoding: 1046 1046 290
Width: 1206
VWidth: 0
Flags: W
HStem: -15 46<47 119.482 1116.02 1170> 0 38<470 515 732 773> 341 48<534.221 606 770 860.651> 654 38<610 651 868 912> 661 46<348.028 402.724 1085.58 1142.68>
VStem: 235 112<555.696 659.464> 419 53<453.439 647.733> 924 155<73.1615 265.596> 1143 114<557.19 660.677>
DStem2: 532.912 -15 686.912 -15 0.224951 0.97437<101.449 397.734 446.979 673.395>
LayerCount: 2
Back
SplineSet
198.782 341 m 5
 169.782 341 l 6
 62.7822 341 -9.62598 252 -71.5684 125 c 4
 -122.78 20 -206.851 -15 -317.851 -15 c 6xae
 -385.851 -15 l 5
 -373.415 31 l 5
 -368.415 31 l 6
 -320.415 31 -259.246 58 -201.206 177 c 4
 -139.264 304 -26.9268 358 72.3652 375 c 5
 72.8525 376 l 5
 27.6562 392 8.50586 445 21.3291 541 c 4
 32.8105 624 17.8564 661 -10.1436 661 c 4
 -21.1436 661 -30.1191 659 -37.4346 644 c 4
 -44.751 629 -43.9443 604 -58.5762 574 c 4
 -79.0605 532 -123.963 524 -141.963 524 c 4
 -198.963 524 -189.966 565 -171.432 603 c 4
 -134.852 678 -74.708 707 -2.70801 707 c 4
 89.292 707 90.6631 636 81.4023 535 c 4
 73.5059 445 100.193 389 185.193 389 c 6
 211.193 389 l 5
 198.782 341 l 5
EndSplineSet
Fore
SplineSet
620 341 m 1xaf80
 591 341 l 2
 489 341 421 254 358 125 c 0
 307 20 215 -15 104 -15 c 2
 36 -15 l 1
 47 31 l 1
 52 31 l 2
 100 31 159 57 216 177 c 0
 281 314 381 352 493 375 c 1
 493 376 l 1
 448 392 419 444 419 541 c 0
 419 626 401 661 375 661 c 0
 367 661 347 652 347 637 c 0
 347 616 354 608 354 574 c 0
 354 536 320 524 298 524 c 0
 244 524 235 561 235 603 c 0
 235 670 290 707 371 707 c 0
 463 707 472 638 472 535 c 0
 472 444 533 389 606 389 c 2
 632 389 l 1
 620 341 l 1xaf80
461 0 m 1x7780
 470 38 l 1
 515 42 l 2
 544 44 551 62 559 98 c 2
 670 594 l 2
 678 630 679 647 651 649 c 2
 600 654 l 1
 610 692 l 1
 922 692 l 1
 912 654 l 1
 868 650 l 2
 839 648 832 630 824 594 c 2
 713 98 l 2
 705 62 704 45 732 42 c 2
 782 38 l 1
 773 0 l 1
 461 0 l 1x7780
759 341 m 1
 770 389 l 1
 796 389 l 2
 881 389 935 445 971 535 c 0
 1011 636 1047 707 1139 707 c 0
 1211 707 1257 678 1257 603 c 0
 1257 565 1246 524 1189 524 c 0
 1171 524 1130 532 1130 574 c 0
 1130 604 1143 629 1143 644 c 0
 1143 659 1135 661 1124 661 c 0
 1096 661 1063 624 1034 541 c 0
 1000 445 955 392 902 376 c 1
 902 375 l 1
 993 358 1079 304 1079 177 c 0
 1079 58 1127 31 1175 31 c 2
 1180 31 l 1
 1170 -15 l 1
 1102 -15 l 2xaf80
 991 -15 924 20 924 125 c 0
 924 252 895 341 788 341 c 2
 759 341 l 1
EndSplineSet
EndChar

StartChar: afii10049
Encoding: 1071 1071 291
Width: 764
Flags: HW
HStem: -15 46<47 101.146> 0 38<427 472 689 730> 299 46<442.943 559.25> 646 46<484.647 633.869> 654 38<825 869>
VStem: 245 159<400.573 561.574>
DStem2: 489.912 -15 643.912 -15 0.224951 0.97437<101.449 321.719 368.553 668.781>
LayerCount: 2
Back
SplineSet
340.032 325 m 1
 496.029 299 l 17
 399.029 299 364.254 235 317.858 125 c 0
 265.23 1 176.537 -15 71.5371 -15 c 2
 25.5371 -15 l 1
 36.1572 31 l 1
 37.1572 31 l 2
 72.1572 31 120.854 73 168.863 177 c 0
 218.566 284 256.261 300 339.34 322 c 1
 340.032 325 l 1
409 0 m 1
 417.773 38 l 1
 489.466 41 498.62 46 510.395 97 c 2
 557.029 299 l 1
 477.029 299 l 2
 395.029 299 319.263 326 276.65 358 c 0
 252.807 376 215.119 425 234.281 508 c 0
 265.218 642 395.761 692 556.761 692 c 2
 886.761 692 l 1
 877.988 654 l 1
 806.295 651 797.141 646 785.366 595 c 2
 670.395 97 l 2
 658.62 46 665.466 41 735.773 38 c 1
 727 0 l 1
 409 0 l 1
399.973 498 m 0
 382.657 423 390.649 345 488.649 345 c 2
 511.649 345 l 2
 550.649 345 568.804 350 577.577 388 c 2
 628.599 609 l 2
 635.063 637 629.141 646 578.141 646 c 2
 557.141 646 l 2
 490.141 646 422.598 596 399.973 498 c 0
EndSplineSet
Fore
SplineSet
36 -15 m 1xa4
 47 31 l 1
 48 31 l 2
 86 31 142 69 185 177 c 0
 217 258 265 291 349 322 c 1
 350 325 l 1
 507 299 l 17
 410 299 377 233 326 125 c 0
 270 6 187 -15 82 -15 c 2
 36 -15 l 1xa4
245 505 m 0
 245 590 306 692 560 692 c 2x74
 879 692 l 1
 869 654 l 1
 825 650 l 2
 796 648 789 630 781 594 c 2
 670 98 l 2
 662 62 661 45 689 42 c 2
 739 38 l 1
 730 0 l 1
 418 0 l 1
 427 38 l 1x6c
 472 42 l 2
 501 44 508 62 516 98 c 2
 560 299 l 17
 487 299 l 2
 405 299 332 321 296 360 c 0
 270 388 245 424 245 505 c 0
404 481 m 0
 404 402 432 345 505 345 c 2
 515 345 l 2
 554 345 572 350 581 388 c 2
 632 609 l 2
 638 637 632 646 581 646 c 2
 560 646 l 2
 464 646 404 560 404 481 c 0
EndSplineSet
EndChar

StartChar: cyrBreve
Encoding: 63185 63185 293
Width: 806
Flags: HMW
HStem: 745 45<528.062 645.353>
VStem: 400 139<825.941 927.551>
LayerCount: 2
Fore
SplineSet
400 867 m 0
 400 913 429 950 469 950 c 0
 499 950 539 942 539 902 c 0
 539 870 525 845 525 825 c 0
 525 799 552 790 569 790 c 0
 646 790 695 843 770 939 c 1
 799 913 l 1
 733 820 666 745 557 745 c 0
 466 745 400 799 400 867 c 0
EndSplineSet
EndChar

StartChar: afii10053
Encoding: 1028 1028 294
Width: 672
Flags: W
HStem: -15 46<356.857 524.185> 346 48<296 534> 661 46<462.73 638.224>
VStem: 111 169<154.604 403.104> 658 41<180.431 205> 700 38<480 512.128>
LayerCount: 2
Back
SplineSet
111 275 m 4
 111 345 128 444 180 524 c 4
 250 631 362 707 555 707 c 4
 611 707 717 696 777 659 c 5
 738 480 l 5
 700 480 l 5
 699 571 674 661 557 661 c 4
 354 661 280 412 280 235 c 4
 280 96 344 31 434 31 c 4
 546 31 601 116 665 220 c 5
 703 220 l 5
 648 26 l 5
 584 -7 503 -15 434 -15 c 4
 142 -15 111 183 111 275 c 4
EndSplineSet
Fore
SplineSet
534 346 m 1
 285 346 l 1
 296 394 l 1
 546 394 l 1
 534 346 l 1
111 275 m 0
 111 439.648 199.8 707 555 707 c 0
 611 707 717 696 777 659 c 1
 738 480 l 1
 700 480 l 1
 699 571 674 661 557 661 c 0
 354 661 280 412 280 235 c 0
 280 96 344 31 434 31 c 0
 544 31 599 106 658 205 c 1
 699 205 l 1
 648 26 l 1
 584 -7 503 -15 434 -15 c 0
 142 -15 111 183 111 275 c 0
EndSplineSet
EndChar

StartChar: afii10079
Encoding: 1085 1085 295
Width: 629
Flags: HMW
HStem: -12 80<439.5 571> 231 46<245 473> 443 59<109 348>
LayerCount: 2
Back
SplineSet
398 107 m 2
 475 392 l 2
 482 419 478 432 458 434 c 2
 400 440 l 1
 408 473 l 1
 638 502 l 1
 644 496 l 1xd0
 541 115 l 2
 534 89 533 68 552 68 c 0
 575 68 613 121 638 166 c 1xb0
 668 149 l 1
 626 65 565 -12 468 -12 c 0
 401 -12 377 30 398 107 c 2
109 443 m 1
 117 476 l 1
 348 502 l 1
 353 497 l 1xd8
 259 128 l 2
 249 91 250 68 278 68 c 0
 325 68 407 199 443 285 c 0
 465 335 481 388 510 490 c 1
 652 502 l 1
 551 115 l 2
 543 89 544 68 563 68 c 0
 586 68 623 121 649 166 c 1
 678 148 l 1
 637 65 576 -12 479 -12 c 0
 425 -12 397 28 415 96 c 2
 446 210 l 1xb8
 442 210 l 1xb8
 379 94 296 -12 183 -12 c 0
 103 -12 95 53 116 133 c 2
 183 391 l 2
 191 421 187 435 168 437 c 2
 109 443 l 1
EndSplineSet
Fore
SplineSet
468 231 m 1
 240 231 l 1
 250 277 l 1
 478 277 l 1
 468 231 l 1
400 107 m 2
 502 490 l 1
 645 502 l 1
 541 115 l 2
 533 89 534 68 553 68 c 0
 576 68 613 121 639 166 c 1
 668 148 l 1
 627 65 566 -12 469 -12 c 0
 400 -12 381 31 400 107 c 2
109 443 m 1
 117 476 l 1
 348 502 l 1
 353 497 l 1
 232 0 l 1
 90 -12 l 1
 183 391 l 2
 189.708 420.068 188 435 169 437 c 2
 109 443 l 1
EndSplineSet
EndChar

StartChar: afii10096
Encoding: 1102 1102 296
Width: 862
Flags: HW
HStem: -12 46<537.352 630.387> 231 46<250 468> 443 33<117 169> 456 46<638.986 730.881>
VStem: 377 145<78.5474 226.49> 746 145<245.834 408.929>
LayerCount: 2
Back
SplineSet
394 245 m 0
 431 405 530 502 712 502 c 0
 894 502 949 405 912 245 c 0
 875 85 776 -12 594 -12 c 0
 412 -12 357 85 394 245 c 0
553 245 m 0
 522 111 533 34 604 34 c 0
 675 34 722 111 753 245 c 0
 784 379 773 456 702 456 c 0
 631 456 584 379 553 245 c 0
392 231 m 1x27
 289 231 l 1
 299 277 l 1
 402 277 l 1
 392 231 l 1x27
19 0 m 1x77
 28 38 l 1
 86 41 95 45 105 87 c 2
 177 403 l 2
 187 445 180 449 124 452 c 1
 133 490 l 1
 414 490 l 1
 405 452 l 1
 347 449 338 445 328 403 c 2
 256 87 l 2
 246 45 253 41 309 38 c 1
 300 0 l 1
 19 0 l 1x77
EndSplineSet
Fore
SplineSet
377 174 m 0xdc
 377 271.9 437.8 502 681 502 c 0
 784 502 891 462 891 308 c 0
 891 263 875 188 829 115 c 0
 782 40 710 -12 584 -12 c 0
 439 -12 377 66 377 174 c 0xdc
689 456 m 0
 588.8 456 522 222.855 522 107 c 0
 522 57 545 34 582 34 c 0
 687 34 746 300 746 374 c 0
 746 416 736 456 689 456 c 0
468 231 m 1
 240 231 l 1
 250 277 l 1
 478 277 l 1
 468 231 l 1
109 443 m 1xec
 117 476 l 1xec
 348 502 l 1xdc
 353 497 l 1
 232 0 l 1
 90 -12 l 1
 183 391 l 2
 189.708 420.068 188 435 169 437 c 2
 109 443 l 1xec
EndSplineSet
EndChar

StartChar: afii10090
Encoding: 1096 1096 297
Width: 914
Flags: MW
HStem: -12 80<173.172 288.39 465.408 576.143 759.861 855> 443 59<109 642>
DStem2: 111 133 249 126 0.269919 0.962883<-18.785 308.589> 416 134 537 116 0.262483 0.964937<-28.3329 74.9876 129.977 366.616> 793 490 931 502 0.255218 0.966884<-269.336 0>
LayerCount: 2
Back
SplineSet
81 -12 m 1
 182 391 l 2
 189 418 186 432 167 434 c 2
 109 440 l 1
 116 473 l 1
 344 502 l 1
 349 496 l 1x9a
 285 283 l 1
 290 283 l 1
 352 401 446 502 535 502 c 0
 614 502 621 439 596 356 c 2
 575 284 l 1
 580 283 l 1
 642 402 731 502 830 502 c 0
 909 502 925 435 901 357 c 2x6a
 828 115 l 2
 819 89 819 68 838 68 c 0
 862 68 900 121 925 166 c 1
 952 148 l 1
 912 65 852 -12 754 -12 c 0
 695 -12 666 29 687 107 c 2xac
 763 364 l 2
 773 398 772 422 745 422 c 0
 698 422 609 289 578 214 c 0
 555 156 536 102 508 0 c 1
 370 -12 l 1
 475 374 l 2
 484 409 479 422 455 422 c 0
 408 422 318 287 288 212 c 0
 266 156 248 102 219 0 c 1xaa
 81 -12 l 1
EndSplineSet
Fore
SplineSet
109 443 m 1
 117 476 l 1
 348 502 l 1
 353 497 l 1
 249 126 l 2
 239 92 240 68 267 68 c 0
 314 68 403 201 434 276 c 0
 457 334 476 388 504 490 c 1
 642 502 l 1
 537 116 l 2
 528 81 533 68 557 68 c 0
 604 68 694 203 724 278 c 0
 746 334 764 388 793 490 c 1
 931 502 l 1
 825 115 l 2
 818 89 818 68 837 68 c 0
 860 68 897 121 923 166 c 1
 952 148 l 1
 911 64 850 -12 753 -12 c 0
 699 -12 667 29 689 96 c 2
 726 208 l 1
 722 208 l 1
 660 89 566 -12 477 -12 c 0
 398 -12 391 51 416 134 c 2
 437 206 l 1
 432 207 l 1
 370 88 281 -12 182 -12 c 0
 103 -12 89 54 111 133 c 2
 183 391 l 2
 191 421 187 435 168 437 c 2
 109 443 l 1
EndSplineSet
EndChar

StartChar: afii10088
Encoding: 1094 1094 298
Width: 641
Flags: MW
HStem: -215 32<471.812 496.874> -12 80<178.209 295.942 485.64 581> 443 59<109 348>
VStem: 544 81<-151.296 -17.7267>
DStem2: 35.6579 -215 179.812 -215 0.224951 0.97437<329.26 664.596> 343.2 -215 474.814 -215 0.224951 0.97437<325.009 437.232 477.786 724.453>
LayerCount: 2
Fore
SplineSet
544 -63 m 4
 544 -28 586 -5 586 19 c 4
 586 23 584 24 580 21 c 5
 636 78 l 5
 617 40 615 12 615 -9 c 4
 615 -42 625 -52 625 -102 c 4
 625 -160 560 -192 474 -215 c 5
 464 -183 l 5
 526 -158 547 -136 547 -105 c 4
 547 -94 544 -75 544 -63 c 4
109 443 m 1
 117 476 l 1
 348 502 l 1
 353 497 l 1
 259 128 l 2
 249 91 250 68 278 68 c 0
 325 68 407 199 443 285 c 0
 465 335 481 388 510 490 c 1
 652 502 l 1
 551 115 l 2
 543 89 544 68 563 68 c 0
 586 68 623 121 649 166 c 1
 678 148 l 1
 637 65 576 -12 479 -12 c 0
 425 -12 397 28 415 96 c 2
 446 210 l 1
 442 210 l 1
 379 94 296 -12 183 -12 c 0
 103 -12 95 53 116 133 c 2
 183 391 l 2
 191 421 187 435 168 437 c 2
 109 443 l 1
EndSplineSet
EndChar

StartChar: afii10094
Encoding: 1100 1100 299
Width: 564
Flags: HMW
HStem: -12 46<282.087 386.73> 273 46<329.98 466.5> 443 59<109 348>
VStem: 439 135<101.695 258.223>
DStem2: 84.3646 -12 225.519 -12 0.224951 0.97437<130.405 456.074>
LayerCount: 2
Back
SplineSet
468 231 m 1
 240 231 l 1
 250 277 l 1
 478 277 l 1
 468 231 l 1
403 107 m 2
 502 490 l 1
 645 502 l 1
 541 115 l 2
 533 89 534 68 553 68 c 0
 576 68 613 121 639 166 c 1
 668 148 l 1
 627 65 566 -12 469 -12 c 0
 410 -12 384 31 403 107 c 2
109 443 m 1
 117 476 l 1
 348 502 l 1
 353 497 l 1
 222 0 l 1
 80 -12 l 1
 183 391 l 2
 190 420 188 435 169 437 c 2
 109 443 l 1
EndSplineSet
Fore
SplineSet
109 443 m 1
 117 476 l 1
 348 502 l 1
 353 497 l 1
 271 185 l 2
 256 127 255 34 325 34 c 0
 368 34 439 67 439 184 c 0
 439 230 428 273 381 273 c 0
 348 273 302 251 271 185 c 1
 291 265 l 1
 294 265 l 1
 325 304 363 319 427 319 c 0
 506 319 574 282 574 169 c 0
 574 97 491 -12 308 -12 c 0
 178 -12 99 66 131 190 c 2
 183 391 l 2
 191 421 187 435 168 437 c 2
 109 443 l 1
EndSplineSet
EndChar

StartChar: afii10093
Encoding: 1099 1099 300
Width: 854
Flags: HMW
HStem: -12 46<282.087 386.73> -12 80<658.5 795> 273 46<329.98 466.5> 443 59<109 348>
VStem: 439 135<101.695 258.223>
DStem2: 84.3646 -12 225.519 -12 0.224951 0.97437<130.405 456.074> 624 107 765 115 0.259526 0.965736<1.51299 396.349>
LayerCount: 2
Fore
SplineSet
624 107 m 2x78
 726 490 l 1
 869 502 l 1
 765 115 l 2
 757 89 758 68 777 68 c 0
 800 68 837 121 863 166 c 1
 892 148 l 1
 851 65 790 -12 693 -12 c 0
 624 -12 605 31 624 107 c 2x78
EndSplineSet
Refer: 299 1100 N 1 0 0 1 0 0 2
EndChar

StartChar: afii10068
Encoding: 1075 1075 301
Width: 430
VWidth: 2048
Flags: W
HStem: -12 46<200.052 319.647> 456 46<210.18 336.214>
VStem: 58 127<49.3259 164.841> 347 107<330.114 445.523>
LayerCount: 2
Back
SplineSet
80 89 m 256
 80 219 199 232 301 308 c 256
 330 330 338 366 338 401 c 256
 338 444 310 467 275 467 c 256
 230 467 194 437 144 393 c 1
 123 412 l 1
 202 488 239 502 295 502 c 256
 397 502 417 443 417 412 c 256
 417 294 340 308 225 220 c 256
 175 182 170 137 170 91 c 256
 170 63 175 23 244 23 c 256
 306 23 347 66 410 141 c 9
 429 122 l 17
 359 34 315 -12 229 -12 c 256
 134 -12 80 34 80 89 c 256
EndSplineSet
Fore
SplineSet
58 92 m 0
 58 217 191 234 299 307 c 0
 341 336 347 366 347 397 c 0
 347 443 319 456 278 456 c 0
 230 456 178 416 143 383 c 1
 118 406 l 1
 170 460 212 502 307 502 c 0
 415 502 454 452 454 409 c 0
 454 293 382 300 254 221 c 0
 212 195 185 149 185 102 c 0
 185 62 204 34 259 34 c 0
 318 34 412 124 430 147 c 1
 455 124 l 1
 439 99 357 -12 222 -12 c 0
 130 -12 58 12 58 92 c 0
EndSplineSet
EndChar

StartChar: afii10092
Encoding: 1098 1098 302
Width: 644
Flags: W
HStem: -12 46<360.3 466.73> 273 46<408.702 546.5> 429 73<164.24 261.533> 432 45<333.743 391>
VStem: 519 135<101.695 258.223>
LayerCount: 2
Back
SplineSet
189 443 m 1
 197 476 l 1
 428 502 l 1
 433 497 l 1
 351 185 l 2
 336 127 335 34 405 34 c 0
 448 34 519 67 519 184 c 0
 519 230 508 273 461 273 c 0
 428 273 382 251 351 185 c 1
 372 265 l 1
 374 265 l 1
 405 304 443 319 507 319 c 0
 586 319 654 282 654 169 c 0
 654 97 571 -12 388 -12 c 0
 258 -12 179 66 211 190 c 2
 263 391 l 2
 271 421 267 435 248 437 c 2
 189 443 l 1
EndSplineSet
Fore
SplineSet
57 362 m 1xe8
 124 465 181 502 233 502 c 0xe8
 292 502 325 477 381 477 c 0xd8
 424 477 446 486 474 502 c 1xe8
 391 432 l 17
 377 432 l 1xd8
 334 409 317 402 287 402 c 0
 259 402 223 429 189 429 c 0
 164 429 112 384 85 342 c 1
 57 362 l 1xe8
200 137 m 0
 200 200 214 237 259 294 c 0
 351 410 420 458 474 502 c 1
 516 483 l 1
 368 343 358 209 351 185 c 0
 334 127 335 34 405 34 c 0
 448 34 519 67 519 184 c 0
 519 230 508 273 461 273 c 0
 428 273 382 251 351 185 c 1
 366 265 l 1
 373 265 l 1
 404 304 443 319 507 319 c 0
 586 319 654 282 654 169 c 0
 654 97 571 -12 388 -12 c 0
 269 -12 200 53 200 137 c 0
EndSplineSet
EndChar

StartChar: afii10089
Encoding: 1095 1095 303
Width: 617
Flags: W
HStem: -12 80<422.5 559> 130 80<170 307.313> 443 33<110 162> 482 20G<163.308 346 490 627.625>
DStem2: 388 107 529 115 0.259526 0.965736<1.51299 192.676>
LayerCount: 2
Back
SplineSet
415 87 m 2
 490 410 l 2
 497 443 487 448 467 450 c 2
 446 452 l 1
 455 490 l 1
 724 490 l 1
 715 452 l 1
 658 449 649 445 639 403 c 2
 566 87 l 2
 556 45 563 41 620 38 c 1
 611 0 l 1
 330 0 l 1
 339 38 l 1
 396 41 405 45 415 87 c 2
123 452 m 1
 132 490 l 1
 401 490 l 1
 392 452 l 1
 371 450 l 2
 349 448 337 443 330 410 c 2
 307 310 l 2
 297 267 304 251 352 251 c 0
 371 251 386 252 414 258 c 0
 448 266 460 283 465 304 c 1
 448 231 l 1
 386 198 340 174 262 174 c 0
 163 174 133 214 156 312 c 2
 177 403 l 2
 187 445 180 449 123 452 c 1
EndSplineSet
Fore
SplineSet
102 443 m 1
 110 476 l 1
 341 502 l 1
 346 497 l 1
 286 270 l 2
 276 233 277 210 305 210 c 0
 339 210 417 315 445 367 c 0
 479 430 490 490 490 490 c 1
 633 502 l 1
 529 115 l 2
 521 89 522 68 541 68 c 0
 564 68 601 121 627 166 c 1
 656 148 l 1
 615 65 554 -12 457 -12 c 0
 388 -12 366 32 388 107 c 2
 442 292 l 1
 438 292 l 1
 384 189 308 130 210 130 c 0
 130 130 122 195 143 275 c 2
 176 391 l 2
 184 420 181 435 162 437 c 2
 102 443 l 1
EndSplineSet
EndChar

StartChar: afii10077
Encoding: 1083 1083 304
Width: 573
Flags: W
HStem: -12 100<54.083 154.101> -12 80<378.5 515> 444 46<337.546 426.256> 461 29<215 240.667>
DStem2: 344 107 485 115 0.260066 0.965591<1.60149 341.23>
LayerCount: 2
Back
SplineSet
442 424 m 2
 448 450 433 455 417 455 c 2
 382 455 l 2
 347 455 336 434 326 392 c 8
 283.552 213.719 230 -12 86 -12 c 0
 46 -12 17 14 17 43 c 0
 17 71 36 96 65 96 c 0
 99 96 99 62 125 62 c 0
 165 62 208 147 232 203 c 0
 271 294 297 425 297 425 c 2
 303 450 288 457 274 460 c 2
 216 470 l 1
 221 490 l 1
 545 490 l 1
400 107 m 2
 502 490 l 1
 645 502 l 1
 541 115 l 2
 533 89 534 68 553 68 c 0
 576 68 613 121 639 166 c 1
 668 148 l 1
 627 65 566 -12 469 -12 c 0
 400 -12 381 31 400 107 c 2
EndSplineSet
Fore
SplineSet
8 50 m 0xa0
 8 89 30 126 64 126 c 0
 116 126 110 88 140 88 c 0xa0
 161 88 203 152 226 203 c 24
 261 281 287 414 287 414 c 2
 294 439 278 446 264 449 c 2
 208 461 l 1
 215 490 l 1
 586 490 l 1
 485 115 l 2
 478 89 478 68 497 68 c 0
 520 68 557 121 583 166 c 1
 612 148 l 1
 571 65 510 -12 413 -12 c 0x50
 344 -12 324 31 344 107 c 2
 425 411 l 2
 431 437 415 444 399 444 c 2
 379 444 l 2
 297.808 444 344.455 326.383 229 100 c 0
 197 36 148 -12 84 -12 c 0
 35 -12 8 15 8 50 c 0xa0
EndSplineSet
EndChar

StartChar: afii10069
Encoding: 1076 1076 305
Width: 586
Flags: W
HStem: -12 46<237.352 330.329> 456 46<338.557 432.13> 696 46<299.57 454.22>
VStem: 77 145<78.5474 252.123> 523 91<422.243 622.154>
LayerCount: 2
Back
SplineSet
77 174 m 4
 77 219 90 300 136 371 c 4
 181 441 252 502 381 502 c 4
 484 502 591 462 591 308 c 4
 591 263 575 188 529 115 c 4
 482 40 410 -12 284 -12 c 4
 139 -12 77 66 77 174 c 4
222 107 m 4
 222 57 245 34 282 34 c 4
 387 34 446 300 446 374 c 4
 446 416 436 456 389 456 c 4
 342 456 305 408 274 339 c 4
 242 266 222 174 222 107 c 4
EndSplineSet
Fore
SplineSet
77 174 m 0
 77 219 90 300 136 371 c 0
 181 441 252 502 381 502 c 0
 466 502 492 458 506 419 c 1
 512 420 l 1
 522 462 523 494 523 537 c 0
 523 626 462 696 390 696 c 0
 351 696 282 691 230 604 c 1
 203 627 l 1
 261 726 340 742 398 742 c 0
 520 742 614 652 614 522 c 0
 614 432 610 284 533 140 c 0
 479 40 410 -12 284 -12 c 0
 139 -12 77 66 77 174 c 0
222 107 m 0
 222 57 245 34 282 34 c 0
 387 34 446 300 446 374 c 0
 446 416 436 456 389 456 c 0
 342 456 305 408 274 339 c 0
 242 266 222 174 222 107 c 0
EndSplineSet
EndChar

StartChar: afii10066
Encoding: 1073 1073 306
Width: 562
Flags: MW
HStem: -12 46<237.352 330.387> 456 46<339.918 430.881> 739 20G<618 680>
VStem: 77 145<78.5474 248.089> 446 145<245.834 408.929>
LayerCount: 2
Back
SplineSet
84 242 m 17xd8
 107 343 l 2
 125 422 142 490 183 558 c 0
 212 606 304 712 464 719 c 0
 565 723 622 730 644 759 c 9
 680 759 l 17
 622 638 544.932 614.25 478 610 c 0
 352 602 292 588 228 504 c 0
 210.383 480.878 187.5 450.5 174 408 c 9
 178 406 l 25xe8
 84 242 l 17xd8
77 174 m 0
 77 219 90 300 136 371 c 0
 181 441 252 502 381 502 c 0
 484 502 591 462 591 308 c 0
 591 263 575 188 529 115 c 0
 482 40 410 -12 284 -12 c 0
 139 -12 77 66 77 174 c 0
222 107 m 0
 222 57 245 34 282 34 c 0
 387 34 446 300 446 374 c 0
 446 416 436 456 389 456 c 0
 342 456 305 408 274 339 c 0
 242 266 222 174 222 107 c 0
77 174 m 4
 77 219 90 300 136 371 c 4
 181 441 252 502 381 502 c 4
 484 502 591 462 591 308 c 4
 591 263 575 188 529 115 c 4
 482 40 410 -12 284 -12 c 4
 139 -12 77 66 77 174 c 4
222 107 m 4
 222 57 245 34 282 34 c 4
 387 34 446 300 446 374 c 4
 446 416 436 456 389 456 c 4
 342 456 305 408 274 339 c 4
 242 266 222 174 222 107 c 4
EndSplineSet
Fore
SplineSet
77 174 m 0
 77 230 122 459 183 558 c 0
 213 606 304 712 464 719 c 0
 565 723 622 730 644 759 c 9
 680 759 l 17
 556 499 380 703 228 504 c 0
 210 481 188 450 174 408 c 9
 178 406 l 17
 221 459 260 502 381 502 c 0
 484 502 591 462 591 308 c 0
 591 263 575 188 529 115 c 0
 482 40 410 -12 284 -12 c 0
 139 -12 77 66 77 174 c 0
222 107 m 0
 222 57 245 34 282 34 c 0
 387 34 446 300 446 374 c 0
 446 416 436 456 389 456 c 0
 289 456 222 223 222 107 c 0
EndSplineSet
EndChar

StartChar: afii10078
Encoding: 1084 1084 307
Width: 806
VWidth: 0
Flags: MW
HStem: -12 80<611.5 748> 0 21G<333.575 430.618> 461 29<192 217.667>
DStem2: 422 490 306 407 0.0710729 -0.997471<74.5457 341.843> 449 149 419 0 0.502289 0.8647<0 327.931> 577 107 718 115 0.260066 0.965591<1.60149 311.708>
LayerCount: 2
Back
SplineSet
648 491 m 1
 411 83 l 1
451 82 m 1
 422 489 l 1
656 408 m 1
 419 0 l 1
335 0 m 1
 306 407 l 1
EndSplineSet
Fore
SplineSet
8 50 m 0xa0
 8 89 30 126 64 126 c 0
 116 126 104 88 134 88 c 0
 155 88 184 154 203 203 c 24
 235 283 264 414 264 414 c 2
 271 437 255 446 241 449 c 2
 185 461 l 1
 192 490 l 1
 422 490 l 1
 446 149 l 1
 449 149 l 1
 648 490 l 1
 819 490 l 1
 718 115 l 2
 711 89 711 68 730 68 c 0
 753 68 790 121 816 166 c 1
 845 148 l 1
 804 65 743 -12 646 -12 c 0xa0
 577 -12 557 31 577 107 c 2
 658 408 l 17
 656 408 l 1
 419 0 l 1
 335 0 l 1x60
 306 407 l 1
 304 407 l 17
 294 365 284 254 214 100 c 0
 184 35 148 -12 84 -12 c 0
 35 -12 8 15 8 50 c 0xa0
EndSplineSet
EndChar

StartChar: afii10067
Encoding: 1074 1074 308
Width: 518
Flags: W
HStem: -12 58<244.316 352.709> 456 46<317.422 398.802>
VStem: 73 149<71.8201 201 247 283.047> 384 135<77.9169 211.579> 405 116<340.327 451.477>
LayerCount: 2
Back
SplineSet
73 161 m 0
 73 238 100 320 154 388 c 0
 208 456 285 502 384 502 c 0
 469 502 532 457 532 386 c 0
 532 355 525 322 486 286 c 0
 443 248 372 216 222 187 c 1
 222 163 l 2
 222 109 241 54 300 54 c 0
 360 54 407 100 460 176 c 1
 490 152 l 1
 417 20 323 -12 236 -12 c 0
 164 -12 73 23 73 161 c 0
226 232 m 1
 342 255 404 334 404 412 c 0
 404 440 391 456 367 456 c 0
 308 456 240 347 226 232 c 1
EndSplineSet
Fore
SplineSet
225 247 m 1xe8
 396 294 405 355 405 408 c 0
 405 437 392 456 364 456 c 0
 307 456 242 363 225 247 c 1xe8
73 166 m 0
 73 319 179 502 383 502 c 0
 463 502 521 456 521 413 c 0xe8
 521 366 508 350 482 318 c 0
 468 301 442 285 393 267 c 1
 393 265 l 1
 452 260 519 225 519 149 c 0xf0
 519 57 427 -12 259 -12 c 0
 185 -12 73 19 73 166 c 0
222 173 m 0
 222 95 237 46 290 46 c 0
 347 46 384 80 384 157 c 0xf0
 384 203 360 225 322 225 c 0
 306 225 293 219 265 212 c 2
 224 201 l 1
 224 193 222 180 222 173 c 0
EndSplineSet
EndChar

StartChar: afii10075
Encoding: 1081 1081 309
Width: 634
Flags: W
HStem: -12 80<178.209 295.942 485.64 581> 443 59<109 348> 568 46<408.95 493.024>
VStem: 290 123<650.935 726.325>
DStem2: 82.5241 -12 226.678 -12 0.224951 0.97437<120.92 456.256> 390.066 -12 521.68 -12 0.224951 0.97437<116.669 228.893 269.446 516.113>
LayerCount: 2
Back
SplineSet
324.773 604.771 m 0
 280.343 642.053 274.99 687.012 294.916 710.76 c 0
 318.452 741.921 370.853 751.474 399.073 729.1 c 0
 415.926 714.959 415.75 700.747 413.865 673.609 c 0
 411.214 647.114 413.062 625.982 423.788 616.982 c 0
 436.811 606.056 459.229 609.437 494.132 632.364 c 0
EndSplineSet
Fore
Refer: 310 63188 N 1 0 0 1 0 0 2
Refer: 252 1080 N 1 0 0 1 0 0 2
EndChar

StartChar: cyrbreve
Encoding: 63188 63188 310
Width: 634
Flags: MW
HStem: 568 46<408.95 493.024>
VStem: 290 123<650.935 726.325>
LayerCount: 2
Fore
SplineSet
290 673 m 0
 290 710 308 741 361 741 c 0
 391 741 413 724 413 706 c 0
 413 686 406 670 406 650 c 0
 406 626 418 614 446 614 c 0
 481 614 527 657 572 750 c 1
 603 733 l 1
 569 649 528 568 428 568 c 0
 329 568 290 628 290 673 c 0
EndSplineSet
EndChar

StartChar: afii10072
Encoding: 1078 1078 311
Width: 1042
Flags: W
HStem: -12 66<819 937.246> -12 46<173.697 233.036> 231 46<429 837> 436 66<222.754 341> 456 46<926.964 986.303>
VStem: 44 122<35.5768 118.119> 315 144<248.22 419.569> 701 144<70.431 225.194> 994 122<371.881 454.423>
DStem2: 449 -12 588.23 -12 0.224951 0.97437<43.6355 516.128>
LayerCount: 2
Back
SplineSet
701.172 155 m 0
 701.172 310 807.172 502 982.053 502 c 0
 1060.76 502 1117.76 462 1117.76 405 c 0
 1117.76 369 1065.76 342 1030.76 342 c 0
 1003.76 342 995.756 364 991.28 389 c 0
 984.59 442 977.148 456 962.146 456 c 0
 914.896 456 851.778 298 843.929 162 c 0
 840.408 101 851.195 54 890.945 54 c 0
 947.756 54 994.756 119 1032.76 180 c 1
 1062.76 159 l 1
 990.756 16 896.136 -12 839.886 -12 c 0
 773.886 -12 701.172 34 701.172 155 c 0
EndSplineSet
Fore
SplineSet
459 355 m 0x7780
 459 187 353 -12 178 -12 c 0
 99 -12 44 25 44 78 c 0
 44 114 81 135 120 135 c 0
 147 135 162 115 166 90 c 0
 173 37 183 34 198 34 c 0
 250 34 315 202 315 296 c 0
 315 374 313 436 257 436 c 0
 219 436 169 391 134 345 c 1
 104 366 l 1
 168 465 245 502 308 502 c 0
 374 502 459 478 459 355 c 0x7780
837 231 m 1
 419 231 l 1
 429 277 l 1
 847 277 l 1
 837 231 l 1
591 0 m 1
 449 -12 l 1
 569 490 l 1
 711 502 l 1x6f80
 591 0 l 1
701 135 m 0
 701 303 807 502 982 502 c 0
 1061 502 1116 465 1116 412 c 0
 1116 376 1079 355 1040 355 c 0
 1013 355 998 375 994 400 c 0
 987 453 977 456 962 456 c 0
 910 456 845 288 845 194 c 0
 845 116 847 54 903 54 c 0
 941 54 991 99 1026 145 c 1
 1056 124 l 1
 992 25 915 -12 852 -12 c 0xaf80
 786 -12 701 12 701 135 c 0
EndSplineSet
EndChar

StartChar: afii10086
Encoding: 1092 1092 312
Width: 834
Flags: MW
HStem: -242 46<235.948 292.705> -12 45<168 308.118 534.558 625.614> 456 46<313.533 407.068 632.882 773> 696 46<650.295 707.052>
VStem: 74 148<55.3489 285.652> 719 148<204.348 434.651>
DStem2: 288.368 -242 427.671 -242 0.224951 0.97437<134.775 906.578> 426.256 -242 426.896 -242 0.224951 0.97437<276.22 688.612 700.116 711.391>
LayerCount: 2
Back
SplineSet
107 -168 m 4
 107 -137 135 -109 167 -109 c 4
 189 -109 197 -125 206 -140 c 4
 230 -182 243 -196 253 -196 c 4
 261 -196 268 -187 272 -169 c 6
 395 442 l 5
 306 442 l 5
 320 490 l 5
 406 490 l 5
 413 516 l 6
 428 571 449 629 488 674 c 4
 524 715 575 743 646 742 c 4
 733 741 789 700 789 654 c 4
 789 618 751 594 720 594 c 4
 696 594 686 608 678 624 c 4
 651 682 638 696 623 696 c 4
 607 696 597 678 587 636 c 6
 552 490 l 5
 680 490 l 5
 668 442 l 5
 543 442 l 5
 446 28 l 6
 404 -151 348 -239 227 -242 c 4
 150 -242 107 -210 107 -168 c 4
31 245 m 0
 71 415 162 502 322 502 c 0
 355 502 376 492 400 459 c 1
 401 459 l 1
 377 355 l 1
 394 430 347 456 329 456 c 0
 264 456 210 330 190 245 c 0
 171 160 167 34 232 34 c 0
 250 34 312 75 326 135 c 1
 302 31 l 1
 301 31 l 1
 262 -2 236 -12 203 -12 c 0
 43 -12 -8 75 31 245 c 0
159 -230 m 1
 168 -192 l 1
 241 -189 252 -185 262 -143 c 2
 438 621 l 2
 448 661 442 670 426 673 c 2
 393 679 l 1
 401 715 l 1
 610 742 l 1
 616 736 l 1
 413 -143 l 2
 403 -185 412 -189 485 -192 c 1
 476 -230 l 1
 159 -230 l 1
822 245 m 0
 783 75 692 -12 532 -12 c 0
 499 -12 477 -2 454 31 c 1
 453 31 l 1
 477 135 l 1
 463 75 507 34 525 34 c 0
 590 34 644 160 663 245 c 0
 683 330 687 456 622 456 c 0
 604 456 545 430 528 355 c 1
 552 459 l 1
 553 459 l 1
 591 492 618 502 651 502 c 0
 811 502 862 415 822 245 c 0
EndSplineSet
Fore
SplineSet
74 161 m 0
 74 333 195 502 351 502 c 0
 386 502 427 496 450 463 c 1
 452 463 l 1
 432 377 l 1
 429 424 393 456 362 456 c 0
 262 456 222 236 222 121 c 0
 222 80 229 33 269 33 c 0
 314 33 380 148 394 209 c 10
 360 61 l 1
 357 61 l 1
 334 10 284 -12 221 -12 c 0
 115 -12 74 60 74 161 c 0
326 -79 m 2
 347 9 l 2
 353 35 362 70 362 70 c 1
 452 463 l 1
 452 463 458 491 459 497 c 2
 465 524 l 2
 477 578 507 633 539 674 c 0
 575 720 629 742 702 742 c 0
 800 742 830 693 830 647 c 0
 830 607 801 592 763 592 c 0
 740 592 731 598 724 624 c 0
 709 678 702 696 680 696 c 0
 651 696 634 651 617 579 c 2
 594 481 l 2
 588 455 581 429 581 429 c 1
 489 27 l 1
 489 27 483 -1 482 -7 c 2
 478 -24 l 2
 466 -78 436 -133 404 -174 c 0
 368 -220 314 -242 241 -242 c 0
 143 -242 113 -193 113 -147 c 0
 113 -107 142 -92 180 -92 c 0
 203 -92 212 -98 219 -124 c 0
 234 -178 241 -196 263 -196 c 0
 292 -196 309 -151 326 -79 c 2
867 329 m 0
 867 157 746 -12 590 -12 c 0
 555 -12 514 -6 491 27 c 1
 489 27 l 1
 509 113 l 1
 512 66 548 34 579 34 c 0
 679 34 719 254 719 369 c 0
 719 410 712 457 672 457 c 0
 627 457 561 342 547 281 c 10
 581 429 l 1
 584 429 l 1
 607 480 657 502 720 502 c 0
 826 502 867 430 867 329 c 0
EndSplineSet
EndChar

StartChar: afii10076
Encoding: 1082 1082 313
Width: 599
Flags: HMW
HStem: -12 80<439 538.771> 212 60<334.815 469.5> 405 97<484.736 583.272> 443 33<117 169>
VStem: 390 122<91.7203 210.067>
DStem2: 90 -12 232 0 0.236551 0.971619<45.2497 66.8364 254.341 454.924>
LayerCount: 2
Back
SplineSet
447 424 m 0
 485 476 522 502 568 502 c 0
 600 502 629 484 629 445 c 0
 629 408 602 376 573 376 c 0
 558 376 542 383 531 388 c 0
 517 395 506 399 495 399 c 0
518 68 m 0
 541 68 578 121 604 166 c 1
 633 148 l 1
 592 65 531 -12 434 -12 c 0
18 0 m 1x76
 27 38 l 1
 85 41 94 45 104 87 c 2
 176 403 l 2
 186 445 179 449 123 452 c 1
 132 490 l 1
 413 490 l 1
 404 452 l 1
 346 449 337 445 327 403 c 2
 255 87 l 2
 245 45 252 41 308 38 c 1
 299 0 l 1
 18 0 l 1x76
288 231 m 1
 298 277 l 1
 309 277 l 2
 380 277 403 322 427 381 c 0
 457 452 511 502 579 502 c 0
 658 502 677 445 668 406 c 0
 664 390 646 348 594 348 c 0
 571 348 544 356 551 389 c 0
 556 409 566 427 570 443 c 0
 572 453 565 456 558 456 c 0
 541 456 505 426 489 385 c 0
 458 300 413 264 392 257 c 1
 391 254 l 1
 430 253 531 228 529 125 c 0
 528 47 560 34 591 34 c 2
 596 34 l 1
 586 -12 l 1
 561 -12 l 2xae
 473 -12 376 3 377 88 c 0
 378 174 377 231 304 231 c 2
 288 231 l 1
EndSplineSet
Fore
SplineSet
555 502 m 0xe8
 607 502 622 476 622 444 c 0
 622 419 600 378 572 378 c 0
 532 378 520 405 489 405 c 0
 469 405 445 387 433 371 c 0
 392 317 380 300 346 248 c 1
 346 245 l 17
 378 266 403 272 437 272 c 0
 502 272 512 226 512 204 c 0
 512 160 501 130 501 108 c 0
 501 87 504 68 529 68 c 0
 554 68 591 127 609 165 c 1
 638 148 l 1
 603 70 550 -12 474 -12 c 0
 404 -12 379 35 379 73 c 0
 379 103 390 129 390 172 c 0
 390 203 376 212 357 212 c 0
 337 212 300 190 277 148 c 0
 264 124 237 21 237 21 c 1
 260 186 l 1
 279 208 l 1
 283 208 l 1
 302 228 l 1
 321 280 385 380 433 434 c 0
 485 492 520 502 555 502 c 0xe8
90 -12 m 1
 183 391 l 2
 190 420 188 435 169 437 c 2
 109 443 l 1
 117 476 l 1xd8
 348 502 l 1
 353 497 l 1
 278 204 l 1
 280 197 l 1
 232 0 l 1
 90 -12 l 1
EndSplineSet
EndChar

StartChar: afii10097
Encoding: 1103 1103 314
Width: 616
VWidth: 0
Flags: W
HStem: -12 100<72.5 170.104> -12 80<421.5 558> 208 46<317.075 414> 444 46<331.012 469.256>
VStem: 144 149<283.2 408.028>
DStem2: 387 107 528 115 0.260066 0.965591<1.60149 104.546 152.084 341.23>
LayerCount: 2
Back
SplineSet
244 100 m 0
 212 36 163 -12 99 -12 c 0
 50 -12 23 15 23 50 c 0
 23 89 45 126 79 126 c 0
 131 126 125 88 155 88 c 0
 176 88 218 152 241 203 c 24
7 -12 m 1xbc
 18 34 l 1
 23 34 l 2xbc
 49 34 78 47 111 125 c 0
 144 204 219 215 269 219 c 1
 270 222 l 1
 186 247 131 277 150 360 c 0
 171 450 258 490 410 490 c 2
 701 490 l 1
 692 452 l 1
 634 449 626 445 616 403 c 2
 543 87 l 2
 533 45 540 41 597 38 c 1
 588 0 l 1
 307 0 l 1
 316 38 l 1x7c
 373 41 382 45 392 87 c 2
 420 208 l 1
 371 208 l 2
 311 208 280 168 246 88 c 0
 212 6 114 -12 32 -12 c 2
 7 -12 l 1xbc
307 350 m 0
 290 277 331 254 385 254 c 2
 430 254 l 1
 465 402 l 2
 472 435 453 446 418 446 c 0
 368 446 324 424 307 350 c 0
EndSplineSet
Fore
SplineSet
16 54 m 0xb8
 16 78 29 125 73 125 c 0
 117 125 118 88 144 88 c 0xb8
 161 88 181 107 208 154 c 0
 224 183 241 213 273 220 c 1
 273 226 l 1
 210 234 144 278 144 343 c 0
 144 440 256 490 403 490 c 2
 629 490 l 1
 528 115 l 2
 521 89 521 68 540 68 c 0
 563 68 600 121 626 166 c 1
 655 148 l 1
 614 65 553 -12 456 -12 c 0x78
 387 -12 367 31 387 107 c 2
 414 208 l 1
 392 208 l 2
 319 208 292 193 245 96 c 0
 214 32 160 -12 92 -12 c 0
 53 -12 16 9 16 54 c 0xb8
293 333 m 0
 293 285 322 254 395 254 c 2
 426 254 l 1
 468 411 l 2
 474 437 458 444 442 444 c 2
 438 444 l 2
 334 444 293 417 293 333 c 0
EndSplineSet
EndChar

StartChar: afii10095
Encoding: 1101 1101 315
Width: 484
Flags: W
HStem: -12 46<164.521 254.795> 235 46<191 368> 456 46<214.708 354.185>
VStem: 46 111<51.7517 160.304> 368 145<232.746 409.522>
LayerCount: 2
Back
SplineSet
137.152 10.3955 m 0
 45.0625 43.9141 33.6309 100.22 49.3633 143.445 c 0
 63.0439 181.033 95.4258 185.21 131.134 172.213 c 0
 152.747 164.347 159.152 155.63 156.837 128.804 c 0
 152.464 72.9307 152.885 53.6221 173.559 46.0977 c 0
-2 174 m 0
 -2 219 11 300 57 371 c 0
 102 441 173 502 302 502 c 0
 405 502 512 462 512 308 c 0
 512 263 496 188 450 115 c 0
 403 40 331 -12 205 -12 c 0
 60 -12 -2 66 -2 174 c 0
143 107 m 0
 143 57 166 34 203 34 c 0
 308 34 367 300 367 374 c 0
 367 416 357 456 310 456 c 0
 263 456 226 408 195 339 c 0
 163 266 143 174 143 107 c 0
EndSplineSet
Fore
SplineSet
180 235 m 5
 191 281 l 5
 379 281 l 5
 368 235 l 5
 180 235 l 5
46 113 m 0
 46 149 73 175 109 175 c 0
 138 175 157 168 157 134 c 0
 157 63 159 34 203 34 c 0
 319 34 368 295 368 373 c 0
 368 454 329 456 298 456 c 0
 249 456 201 440 147 374 c 1
 118 396 l 1
 169 469 232 502 319 502 c 0
 430 502 513 440 513 311 c 0
 513 184 423 -12 215 -12 c 0
 111 -12 46 52 46 113 c 0
EndSplineSet
EndChar

StartChar: afii10073
Encoding: 1079 1079 316
Width: 474
VWidth: 0
Flags: W
HStem: -12 46<164.938 286.692> 240 46<209 302.371> 456 46<214.549 354.813>
VStem: 46 109<47.149 159.556> 331 142<78.1359 207.885> 367 114<337.645 442.898>
LayerCount: 2
Back
SplineSet
176 247 m 1xe8
 347 294 356 355 356 408 c 0
 356 437 343 456 315 456 c 0
 258 456 193 363 176 247 c 1xe8
24 166 m 0
 24 319 130 502 334 502 c 0
 414 502 472 456 472 413 c 0xe8
 472 366 459 350 433 318 c 0
 419 301 393 285 344 267 c 1
 344 265 l 1
 403 260 470 225 470 149 c 0xf0
 470 57 378 -12 210 -12 c 0
 136 -12 24 19 24 166 c 0
173 173 m 0
 173 95 188 46 241 46 c 0
 298 46 335 80 335 157 c 0xf0
 335 203 311 225 273 225 c 0
 257 225 244 219 216 212 c 2
 175 201 l 1
 175 193 173 180 173 173 c 0
180 235 m 1
 191 281 l 1
 379 281 l 1
 368 235 l 1
 180 235 l 1
46 113 m 0
 46 149 73 175 109 175 c 0
 138 175 157 168 157 134 c 0
 157 63 159 34 203 34 c 0
 319 34 368 295 368 373 c 0
 368 454 329 456 298 456 c 0
 249 456 201 440 147 374 c 1
 118 396 l 1
 169 469 232 502 319 502 c 0
 430 502 513 440 513 311 c 0
 513 184 423 -12 215 -12 c 0
 111 -12 46 52 46 113 c 0
EndSplineSet
Fore
SplineSet
46 114 m 0xf8
 46 146 73 175 108 175 c 0
 145 175 157 160 157 141 c 0
 157 129 155 117 155 107 c 0
 155 54 169 34 221 34 c 0
 287 34 331 84 331 145 c 0xf8
 331 194 309 240 231 240 c 2
 198 240 l 25
 209 286 l 25
 238 286 l 2
 329 286 367 353 367 397 c 0
 367 441 334 456 295 456 c 0
 248 456 193 436 147 373 c 1
 118 395 l 1
 163 465 225 502 317 502 c 0
 399 502 481 485 481 398 c 0xf4
 481 342 427 287 345 268 c 1
 345 265 l 1
 422 259 473 204 473 139 c 0
 473 46 394 -12 238 -12 c 0
 102 -12 46 41 46 114 c 0xf8
EndSplineSet
EndChar

StartChar: afii10091
Encoding: 1097 1097 317
Width: 915
Flags: HMW
HStem: -215 32<745.812 770.874> -12 80<173.172 288.39 465.408 576.143 759.861 855> 443 33<117 168> 482 20G<170.308 353 504 636.56 793 925.522>
VStem: 818 81<-151.296 -17.7267>
DStem2: 111 133 249 126 0.269919 0.962883<-18.785 308.589> 416 134 537 116 0.262483 0.964937<-28.3329 74.9876 129.977 366.616> 793 490 931 502 0.255218 0.966884<-269.336 0>
LayerCount: 2
Fore
SplineSet
818 -63 m 0
 818 -28 860 -5 860 19 c 0
 860 23 858 24 854 21 c 1
 910 78 l 1
 891 40 889 12 889 -9 c 0
 889 -42 899 -52 899 -102 c 0
 899 -160 834 -192 748 -215 c 1
 738 -183 l 1
 800 -158 821 -136 821 -105 c 0
 821 -94 818 -75 818 -63 c 0
EndSplineSet
Refer: 297 1096 N 1 0 0 1 0 0 2
EndChar

StartChar: ghe.ital
Encoding: 63172 63172 318
Width: 490
Flags: W
HStem: -12 21G<94.7887 232> 444 46<335.047 470.531> 461 29<120 145.667>
VStem: 495 39<322 352.154>
DStem2: 90 -12 229.23 -12 0.224951 0.97437<43.6355 466.121>
LayerCount: 2
Back
SplineSet
302 490 m 5
 584 490 l 5
 545 322 l 5
 506 322 l 5
 501 409 497 444 405 444 c 14
 355 444 l 29
 302 490 l 5
29 0 m 1
 38 38 l 1
 95 41 104 45 114 87 c 2
 187 403 l 2
 197 445 190 449 133 452 c 1
 142 490 l 1
 411 490 l 1
 401 444 l 1
 379 443 l 2
 358 441 346 439 339 405 c 2
 265 87 l 2
 255 45 262 41 333 38 c 1
 324 0 l 1
 29 0 l 1
EndSplineSet
Fore
SplineSet
90 -12 m 1xd0
 192 414 l 2
 199 439 183 446 169 449 c 2
 113 461 l 1
 120 490 l 1
 573 490 l 1xb0
 534 322 l 1
 495 322 l 1
 494 408 481 444 392 444 c 0
 347 444 336 436 328 402 c 2
 232 0 l 1
 90 -12 l 1xd0
EndSplineSet
EndChar

StartChar: uni2116
Encoding: 8470 8470 319
Width: 1154
VWidth: 0
Flags: MW
HStem: -15 46<160.508 226.334> 0 46<826 1075> 107 37<947.774 1018.08> 356 37<987.917 1058.23> 654 38<312 352> 661 46<886.666 952.492>
VStem: 45 136<53.8496 166.626> 858 85<146.86 302.751> 932 136<525.374 638.15> 1063 85<196.875 352.809>
DStem2: 234.359 -15 294.359 -15 0.224951 0.97437<64.9623 584.709> 514 692 425 542 0.355278 -0.934761<108.594 526.339> 654.363 -15 716.537 -15 0.224951 0.97437<220.655 692.999>
LayerCount: 2
Back
SplineSet
815 0 m 5
 826 46 l 5
 1086 46 l 5
 1075 0 l 5
 815 0 l 5
863 250 m 0
 883 340 956 393 1036 393 c 0
 1116 393 1163 340 1143 250 c 0
 1122 160 1050 107 970 107 c 0
 890 107 842 160 863 250 c 0
953 250 m 0
 934 170 938 145 978 145 c 0
 1018 145 1034 170 1053 250 c 0
 1071 330 1067 356 1027 356 c 0
 987 356 971 330 953 250 c 0
571 200 m 1
 365 742 l 1
501 0 m 1
 295 542 l 1
30 0 m 1
 38 38 l 1
 75 41 l 2
 99 43 114 57 125 91 c 0
 136 125 146 164 163 239 c 2
 241 594 l 2
 249 630 250 647 222 649 c 2
 172 654 l 1
 182 692 l 1
 404 692 l 1
 474 522 495 353 567 183 c 1
 570 183 l 1
 629 453 l 2
 645 527 654 566 657 601 c 0
 660 634 652 649 623 651 c 2
 569 654 l 1
 577 692 l 1
 823 692 l 1
 815 654 l 1
 778 651 l 2
 754 649 739 635 728 601 c 0
 717 567 707 528 690 453 c 2
 590 0 l 1
 486 0 l 1
 408 187 379 374 299 561 c 1
 295 561 l 1
 223 239 l 2
 208 165 200 126 196 91 c 0
 193 58 202 43 230 41 c 2
 284 38 l 1
 276 0 l 1
 30 0 l 1
EndSplineSet
Fore
SplineSet
858 211 m 0
 858 314 923 393 1031 393 c 0
 1098 393 1148 354 1148 288 c 0
 1148 185 1083 107 975 107 c 0
 908 107 858 145 858 211 c 0
943 182 m 0
 943 172 948 144 980 144 c 0
 1050 144 1063 274 1063 318 c 0
 1063 328 1058 356 1026 356 c 0
 956 356 943 226 943 182 c 0
815 0 m 1
 826 46 l 1
 1086 46 l 1
 1075 0 l 1
 815 0 l 1
45 100 m 0
 45 138 58 183 110 183 c 0
 147 183 181 165 181 133 c 0
 181 97 159 71 159 53 c 0
 159 42 162 31 182 31 c 0
 247 31 270 133 293 239 c 2
 371 594 l 2
 379 630 380 647 352 649 c 2
 302 654 l 1
 312 692 l 1
 514 692 l 1
 701 200 l 1
 704 200 l 1
 760 453 l 2
 799 628 822 707 925 707 c 0
 1043 707 1068 638 1068 592 c 0
 1068 554 1055 509 1003 509 c 0
 966 509 932 527 932 559 c 0
 932 595 954 621 954 639 c 0
 954 650 951 661 931 661 c 0
 866 661 843 559 820 453 c 2
 720 0 l 1
 631 0 l 1
 425 542 l 1
 421 542 l 1
 353 239 l 2
 314 64 291 -15 188 -15 c 0
 70 -15 45 54 45 100 c 0
EndSplineSet
EndChar

StartChar: uni0261
Encoding: 609 609 320
Width: 584
Flags: W
HStem: -243 46<173.569 273.92> -5 73<154 259.132> 456 46<364.419 481.775>
VStem: 64 154<70.5004 227.583>
DStem2: 318.505 -243 461.357 -243 0.224951 0.97437<176.171 444.284 492.012 709.174>
LayerCount: 2
Back
SplineSet
64 98 m 0
 60 237 162 502 419 502 c 0
 474 502 515 491 543 479 c 1
 583 513 l 1
 639 513 l 1
 465 -221 l 1
 320 -242 l 1
 418 190 l 1
 415 190 l 1
 340 64 259 -12 171 -12 c 0
 115 -12 67 21 64 98 c 0
218 122 m 0
 218 95 224 68 252 68 c 0
 281 68 311 92 360 161 c 0
 412 234 458 335 483 442 c 1
 469 451 450 456 431 456 c 0
 295 456 218 217 218 122 c 0
EndSplineSet
Fore
SplineSet
17 -140 m 0
 17 -89 55 -80 77 -80 c 0
 180 -80 124 -197 229 -197 c 0
 297 -197 362 -56 397 97 c 2
 418 190 l 1
 415 190 l 1
 340 64 264 -5 177 -5 c 0
 131 -5 64 12 64 106 c 0
 64 247 167 502 419 502 c 0
 474 502 515 491 543 479 c 1
 583 513 l 1
 639 513 l 1
 526 37 l 2
 482 -149 372 -243 225 -243 c 0
 190 -243 17 -239 17 -140 c 0
218 122 m 0
 218 95 224 68 252 68 c 0
 281 68 311 92 360 161 c 0
 412 234 458 335 483 442 c 1
 469 451 450 456 431 456 c 0
 295 456 218 217 218 122 c 0
EndSplineSet
EndChar

StartChar: afii10145
Encoding: 1039 1039 325
Width: 792
Flags: MW
HStem: -190 21G<333 394> 0 46<171 352 444 630 697.675 758> 654 38<189 230 447 492 595 636 853 898>
VStem: 333 38<-190 -134.608>
DStem2: 71.51 -190 225.586 -190 0.224951 0.97437<292.17 852.999> 477.586 -190 631.586 -190 0.224951 0.97437<293.198 852.981>
LayerCount: 2
Fore
SplineSet
501 692 m 1
 492 654 l 1
 447 650 l 2
 418 648 411 630 403 594 c 2
 293 102 l 2
 283 55 294 53 364 46 c 1
 352 0 l 1
 40 0 l 1
 50 38 l 1
 94 42 l 2
 123 44 130 62 138 98 c 2
 249 594 l 2
 257 630 258 647 230 650 c 2
 180 654 l 1
 189 692 l 1
 501 692 l 1
446 0 m 1
 458 46 l 1
 523 52 535 55 545 102 c 2
 655 594 l 2
 663 630 664 647 636 650 c 2
 586 654 l 1
 595 692 l 1
 907 692 l 1
 898 654 l 1
 853 650 l 2
 824 648 817 630 809 594 c 2
 699 102 l 2
 689 55 700 53 770 46 c 1
 758 0 l 1
 446 0 l 1
630 0 m 1
 444 0 417 -45 371 -190 c 1
 333 -190 l 17
 337 -155 338 -125 338 -101 c 0
 338 -26 295 0 156 0 c 1
 171 46 l 1
 635 46 l 1
 630 0 l 1
EndSplineSet
EndChar

StartChar: afii10194
Encoding: 1123 1123 326
Width: 857
Flags: MW
HStem: -12 46<575.076 679.73> 273 46<622.98 759.5> 422 80<428.5 566.5> 440 33<116 167>
VStem: 732 135<101.695 258.223>
DStem2: 81 -12 219 0 0.253533 0.967327<46.5955 292.392 319.37 453.438> 377.365 -12 518.519 -12 0.224951 0.97437<133.324 440.279>
LayerCount: 2
Back
SplineSet
398 443 m 5
 406 476 l 5
 637 502 l 5
 642 497 l 5
 560 185 l 6
 545 127 544 34 614 34 c 4
 657 34 728 67 728 184 c 4
 728 230 717 273 670 273 c 4
 637 273 591 251 560 185 c 5
 580 265 l 5
 583 265 l 5
 614 304 652 319 716 319 c 4
 795 319 863 282 863 169 c 4
 863 97 780 -12 597 -12 c 4
 467 -12 388 66 420 190 c 6
 472 391 l 6
 480 421 476 435 457 437 c 6
 398 443 l 5
81 -12 m 1xc0
 182 391 l 2
 189 418 186 432 167 434 c 2
 109 440 l 1
 116 473 l 1xa0
 344 502 l 1
 349 496 l 1
 285 283 l 1
 290 283 l 1
 352 401 446 502 535 502 c 0
 614 502 621 439 596 356 c 2
 575 284 l 1
 580 283 l 1
 642 402 731 502 830 502 c 0
 909 502 925 435 901 357 c 2
 828 115 l 2
 819 89 819 68 838 68 c 0
 862 68 900 121 925 166 c 1
 952 148 l 1
 912 65 852 -12 754 -12 c 0
 695 -12 666 29 687 107 c 2
 763 364 l 2
 773 398 772 422 745 422 c 0
 698 422 609 289 578 214 c 0
 555 156 536 102 508 0 c 1
 370 -12 l 1
 475 374 l 2
 484 409 479 422 455 422 c 0
 408 422 318 287 288 212 c 0
 266 156 248 102 219 0 c 1
 81 -12 l 1xc0
EndSplineSet
Fore
SplineSet
512 0 m 1,0,-1
602 331 m 2,1,-1
 564 185 l 2,2,-1
 549 127 548 34 618 34 c 0,5,-1
 661 34 732 67 732 184 c 0,8,-1
 732 230 721 273 674 273 c 0,11,-1
 641 273 595 251 564 185 c 1,14,-1
 584 265 l 1,15,-1
 587 265 l 1,16,-1
 618 304 656 319 720 319 c 0,19,-1
 799 319 867 282 867 169 c 0,22,-1
 867 97 784 -12 601 -12 c 0,25,-1
 471 -12 390 66 424 190 c 2,28,-1
 467 347 l 2,29,-1
 481 398 479 422 451 422 c 0,32,-1
 406 422 314 268 283 192 c 0,35,-1
 260 136 248 102 219 0 c 1,38,-1
 81 -12 l 1,39,-1
 182 391 l 2,40,-1
 189 418 186 432 167 434 c 2,43,-1
 109 440 l 1,44,-1
 116 473 l 1,45,-1
 344 502 l 1,46,-1
 349 496 l 1,47,-1
 280 266 l 1,48,-1
 285 266 l 1,49,-1
 346 386 438 502 527 502 c 0,52,-1
 606 502 633 450 602 331 c 2,1,-1
EndSplineSet
EndChar

StartChar: afii10146
Encoding: 1122 1122 327
Width: 844
Flags: MW
HStem: 0 46<458.66 606.484> 351 46<521.661 640.466> 561 46<228.73 397.404 570.25 728.532> 654 38<353 394 611 655>
VStem: 684 165<126.026 290.384>
DStem2: 279.375 0 433.374 0 0.224951 0.97437<97.1724 395.617 433.384 563.963>
LayerCount: 2
Back
SplineSet
119 448 m 1
 156 607 l 1
 416 607 l 1
 395 516 l 17
 403 549 397 561 331 561 c 0
 227 561 203 532 157 448 c 1
 119 448 l 1
570 607 m 1
 830 607 l 1
 793 448 l 1
 755 448 l 1
 749 532 739 561 635 561 c 0
 569 561 557 549 549 516 c 9
 570 607 l 1
204 0 m 1x78
 213 38 l 1x78
 258 42 l 2
 287 44 294 62 302 98 c 2
 413 594 l 2
 421 630 422 647 394 649 c 2
 343 654 l 1
 353 692 l 1
 665 692 l 17
 655 654 l 1
 611 650 l 2
 582 648 575 630 567 594 c 2
 521 389 l 1
 534 392 578 397 602 397 c 0
 658 397 849 383 849 196 c 0
 849 134 819 79 769 46 c 0
 715 11 634 0 537 0 c 2xb8
 204 0 l 1x78
459 111 m 2
 450 71 455 46 515 46 c 0xb8
 633 46 684 126 684 220 c 0
 684 293 644 351 583 351 c 0
 556 351 522 346 510 339 c 1
 459 111 l 2
EndSplineSet
Fore
SplineSet
119 448 m 1
 156 607 l 1
 416 607 l 1
 420 626 422 647 394 649 c 2
 343 654 l 1
 353 692 l 1
 665 692 l 17
 655 654 l 1
 611 650 l 2
 582 648 575 627 570 607 c 1
 830 607 l 1
 793 448 l 1
 755 448 l 1
 754 530 739 561 635 561 c 0
 569 561 557 549 549 516 c 2
 521 389 l 1
 534 392 578 397 602 397 c 0
 658 397 849 383 849 196 c 0
 849 134 819 79 769 46 c 0
 715 11 634 0 537 0 c 2
 204 0 l 1
 213 38 l 1
 258 42 l 2
 287 44 294 62 302 98 c 2
 395 516 l 2
 403 549 397 561 331 561 c 0
 227 561 208 532 157 448 c 1
 119 448 l 1
459 111 m 2
 450 71 455 46 515 46 c 0
 633 46 684 126 684 220 c 0
 684 293 644 351 583 351 c 0
 556 351 522 346 510 339 c 1
 459 111 l 2
EndSplineSet
EndChar

StartChar: afii10147
Encoding: 1138 1138 328
Width: 761
Flags: W
HStem: -15 46<361 477 361 510> 339 48<277 646> 661 46<439.5 566.5>
VStem: 113 165<179.5 269.5 139 290> 638 165<409 520 392.5 550>
LayerCount: 2
Fore
SplineSet
277 387 m 1
 657 387 l 1
 646 339 l 1
 266 339 l 1
 277 387 l 1
EndSplineSet
Refer: 47 79 N 1 0 0 1 0 0 2
EndChar

StartChar: afii10195
Encoding: 1139 1139 329
Width: 562
Flags: W
HStem: -12 46<263.5 334.5 263.5 347> 231 46<220 438> 456 46<365.5 412.5>
VStem: 77 145<120 140.5 82 196.5> 446 145<337 385 285.5 395>
LayerCount: 2
Fore
SplineSet
438 231 m 1
 210 231 l 1
 220 277 l 1
 448 277 l 1
 438 231 l 1
EndSplineSet
Refer: 79 111 N 1 0 0 1 0 0 2
EndChar

StartChar: afii10196
Encoding: 1141 1141 330
Width: 597
Flags: W
HStem: 0 21G<204 333.847> 402 100<566.528 663.917> 424 30<57 88.6458>
VStem: 204 113<86 203.531>
DStem2: 320 86 322 0 0.509638 0.860389<0 402.82>
LayerCount: 2
Back
SplineSet
96 452 m 1xd0
 105 490 l 1
 370 490 l 1
 361 452 l 1xd0
 323 447 l 2
 305 445 301 437 303 418 c 2
 334 132 l 1
 338 132 l 1
 482 381 l 2
 519 446 562 502 639 502 c 0
 718 502 737 445 728 406 c 0
 725 394 708 348 653 348 c 0
 626 348 603 357 612 392 c 0
 616 410 626 428 630 444 c 0
 632 453 623 456 617 456 c 0xb0
 597 456 568 416 549 385 c 2
 318 0 l 1
 208 0 l 1
 180 215 l 2
 171 280 162 344 151 408 c 0
 146 440 135 449 96 452 c 1xd0
EndSplineSet
Fore
SplineSet
57 424 m 1xb0
 57 454 l 1xb0
 274 502 l 1
 282 498 l 1
 297 444 315 230 317 86 c 1
 320 86 l 1
 377 189 424 280 489 390 c 0
 525 452 570 502 634 502 c 0
 683 502 710 475 710 440 c 0
 710 401 688 364 654 364 c 0
 602 364 608 402 578 402 c 0xd0
 557 402 521 335 492 287 c 18
 322 0 l 1
 204 0 l 1
 204 84 171 285 156 363 c 0
 148 408 141 425 119 424 c 1
 57 424 l 1xb0
EndSplineSet
EndChar

StartChar: afii10148
Encoding: 1140 1140 331
Width: 774
Flags: W
HStem: 0 21G<256.871 390.247> 654 38<134 161 359 419> 661 46<752.544 845>
VStem: 799 114<552.659 660.567>
DStem2: 340 617 191 604 0.111876 -0.993722<-28.4708 483.574> 392 136 379 0 0.490171 0.871626<0 618.762>
LayerCount: 2
Back
SplineSet
127 654 m 1
 136 692 l 1
 439 692 l 1
 430 654 l 1
 381 649 l 2
 357 647 354 634 356 613 c 2
 398 149 l 1
 403 149 l 1
 617 535 l 2
 677 645 725 707 800 707 c 0
 874 707 929 675 908 583 c 0
 902 557 875 521 831 521 c 0
 793 521 769 528 779 571 c 0
 786 601 797 614 802 637 c 0
 806 655 804 661 789 661 c 0
 757 661 719 598 687 541 c 2
 380 0 l 1
 254 0 l 1
 191 603 l 2
 187 646 178 652 127 654 c 1
EndSplineSet
Fore
SplineSet
127 654 m 1xd0
 134 692 l 1
 426 692 l 1
 419 654 l 1xd0
 359 648 l 2
 340 646 338 633 340 617 c 0
 342 597 362 399 364 377 c 2
 390 136 l 1
 392 136 l 1
 621 554 l 2
 661 629 716 707 802 707 c 0
 888 707 913 638 913 592 c 0
 913 554 898 504 844 504 c 0
 807 504 773 522 773 554 c 0
 773 590 799 626 799 644 c 0
 799 655 797 661 784 661 c 0xb0
 753 661 705 579 636 457 c 2
 379 0 l 1
 259 0 l 1
 226 310 l 2
 213 438 199 539 191 604 c 0
 187 634 180 647 161 650 c 2
 127 654 l 1xd0
EndSplineSet
EndChar

StartChar: pe.ital
Encoding: 63175 63175 335
Width: 634
Flags: W
HStem: -12 80<178.209 295.942 485.64 581> 443 59<109 348> 560 46<232.906 653.286>
DStem2: 82.5241 -12 226.678 -12 0.224951 0.97437<120.92 456.256> 390.066 -12 521.68 -12 0.224951 0.97437<116.669 228.893 269.446 516.113>
LayerCount: 2
Fore
SplineSet
222.286 560 m 1
 232.906 606 l 1
 663.906 606 l 1
 653.286 560 l 1
 222.286 560 l 1
EndSplineSet
Refer: 85 117 N 1 0 0 1 0 0 2
EndChar

StartChar: te.ital
Encoding: 63176 63176 336
Width: 914
Flags: W
HStem: -12 80<173.172 288.39 465.408 576.143 759.861 855> 443 59<109 642> 560 46<232.906 927.286>
DStem2: 111 133 249 126 0.269919 0.962883<-18.785 308.589> 416 134 537 116 0.262483 0.964937<-28.3329 74.9876 129.977 366.616> 793 490 931 502 0.255218 0.966884<-269.336 0>
LayerCount: 2
Fore
SplineSet
222.286 560 m 1
 232.906 606 l 1
 937.906 606 l 1
 927.286 560 l 1
 222.286 560 l 1
EndSplineSet
Refer: 297 1096 N 1 0 0 1 0 0 2
EndChar

StartChar: afii10193
Encoding: 1119 1119 337
Width: 634
Flags: MW
HStem: -215 32<213.812 238.874> -12 80<178.209 295.942 485.64 581> 443 59<109 348>
VStem: 289 78<-148.585 -20.523>
DStem2: 82.5241 -12 226.678 -12 0.224951 0.97437<120.92 456.256> 390.066 -12 521.68 -12 0.224951 0.97437<116.669 228.893 269.446 516.113>
LayerCount: 2
Back
SplineSet
286 -63 m 0
 286 -28 328 -5 328 19 c 0
 328 23 326 24 322 21 c 1
 378 78 l 1
 359 40 357 12 357 -9 c 0
 357 -42 367 -52 367 -102 c 0
 367 -160 302 -192 216 -215 c 1
 206 -183 l 1
 268 -158 289 -136 289 -105 c 0
 289 -94 286 -75 286 -63 c 0
EndSplineSet
Fore
SplineSet
206 -183 m 1
 268 -158 289 -136 289 -105 c 0
 289 -94 286 -75 286 -63 c 0
 286 -34 338 24 354 41 c 9
 371 24 l 1
 358 2 355 -5 355 -19 c 0
 355 -52 367 -52 367 -102 c 0
 367 -160 302 -192 216 -215 c 1
 206 -183 l 1
EndSplineSet
Refer: 85 117 N 1 0 0 1 0 0 3
EndChar

StartChar: ring.cap
Encoding: 61427 61427 338
Width: 400
Flags: W
HStem: 703 39<338.21 418.148> 890 39<358.852 438.79>
VStem: 263 66<748.527 861.479> 448 66<770.521 883.473>
LayerCount: 2
Fore
SplineSet
263 800 m 0
 263 865 306 929 407 929 c 0
 479 929 514 888 514 832 c 0
 514 767 471 703 370 703 c 0
 298 703 263 744 263 800 c 0
329 795 m 0
 329 763 345 742 376 742 c 0
 413 742 448 782 448 837 c 0
 448 869 432 890 401 890 c 0
 364 890 329 850 329 795 c 0
EndSplineSet
EndChar

StartChar: breve.cap
Encoding: 61422 61422 339
Width: 400
Flags: W
HStem: 746 77<303.833 478.762>
VStem: 241 41<847.74 892> 530 41<864.48 892>
LayerCount: 2
Back
SplineSet
50 896 m 5
 91 896 l 5
 93 872 116 827 215 827 c 4
 314 827 337 872 339 896 c 5
 380 896 l 5
 380 822 354 746 215 746 c 4
 76 746 50 822 50 896 c 5
EndSplineSet
Fore
SplineSet
241 892 m 1
 282 892 l 1
 278 868 295 823 390 823 c 0
 485 823 522 868 530 892 c 1
 571 892 l 1
 554 818 507 746 372 746 c 0
 237 746 224 818 241 892 c 1
EndSplineSet
EndChar

StartChar: macron.cap
Encoding: 63184 63184 341
Width: 400
Flags: W
HStem: 770 77<221 553>
LayerCount: 2
Fore
SplineSet
203 770 m 1
 221 847 l 1
 571 847 l 1
 553 770 l 1
 203 770 l 1
EndSplineSet
EndChar

StartChar: afii10101
Encoding: 1108 1108 342
Width: 456
Flags: W
HStem: -12 66<190 335.799> 235 46<216 393> 456 46<319.754 389.353>
VStem: 73 153<77.2383 276.288>
LayerCount: 2
Back
SplineSet
73 155 m 4
 73 310 179 502 384 502 c 4
 476 502 533 462 533 405 c 4
 533 369 481 342 446 342 c 4
 419 342 411 364 405 389 c 4
 392 442 381 456 361 456 c 4
 298 456 226 298 226 162 c 4
 226 101 244 54 297 54 c 4
 363 54 410 119 448 180 c 5
 478 159 l 5
 406 16 309 -12 234 -12 c 4
 146 -12 73 34 73 155 c 4
EndSplineSet
Fore
SplineSet
205 235 m 1
 216 281 l 1
 404 281 l 1
 393 235 l 1
 205 235 l 1
446 347 m 0
 387.072 347 413.951 456 361 456 c 0
 298 456 226 298 226 162 c 0
 226 101 244 54 297 54 c 0
 363 54 404 115 438 165 c 1
 470 143 l 1
 400 16 309 -12 234 -12 c 0
 146 -12 73 34 73 155 c 0
 73 310 179 502 384 502 c 0
 476 502 533 460 533 409 c 0
 533 375 481 347 446 347 c 0
EndSplineSet
EndChar

StartChar: hungarumlaut.cap
Encoding: 63183 63183 343
Width: 400
Flags: W
HStem: 723 184
LayerCount: 2
Back
SplineSet
30 758 m 1
 135 873 l 2
 151 890 167 907 185 907 c 0
 213 907 244 862 244 839 c 0
 244 821 230 809 196 791 c 2
 59 719 l 1
 30 758 l 1
238 758 m 1
 343 873 l 2
 359 890 375 907 393 907 c 0
 421 907 452 862 452 839 c 0
 452 821 438 809 404 791 c 2
 267 719 l 1
 238 758 l 1
EndSplineSet
Fore
SplineSet
192 754 m 1
 295 871 l 2
 311 889 327 907 344 907 c 0
 372 907 403 862 403 839 c 0
 403 822 388 810 354 793 c 2
 215 723 l 1
 192 754 l 1
391 754 m 1
 494 871 l 2
 510 889 526 907 543 907 c 0
 571 907 602 862 602 839 c 0
 602 822 587 810 553 793 c 2
 414 723 l 1
 391 754 l 1
EndSplineSet
EndChar

StartChar: space_uni030F
Encoding: 61861 61861 344
Width: 400
Flags: HW
HStem: 546 204
VStem: 178 324
LayerCount: 2
Fore
SplineSet
178 712 m 0
 178 733 217 750 238 750 c 0
 260 750 271 730 281 703 c 2
 335 563 l 1
 307 546 l 1
 211 650 l 2
 188 675 178 696 178 712 c 0
344 712 m 0
 344 733 383 750 405 750 c 0
 427 750 438 730 448 703 c 2
 502 563 l 1
 474 546 l 1
 378 650 l 2
 355 675 344 696 344 712 c 0
EndSplineSet
EndChar

StartChar: space_uni030F.cap
Encoding: 63187 63187 345
Width: 400
Flags: W
HStem: 723 184
LayerCount: 2
Fore
SplineSet
166 839 m 0
 166 862 197 907 225 907 c 0
 242 907 258 889 274 871 c 2
 377 754 l 1
 354 723 l 1
 215 793 l 2
 181 810 166 822 166 839 c 0
365 839 m 0
 365 862 396 907 424 907 c 0
 441 907 457 889 473 871 c 2
 576 754 l 1
 553 723 l 1
 414 793 l 2
 380 810 365 822 365 839 c 0
EndSplineSet
EndChar

StartChar: afii10108
Encoding: 1115 1115 350
Width: 629
Flags: MW
HStem: -12 80<440 551.544> 295 77<413.526 535> 444 46<116 535> 683 59<148 385>
DStem2: 79 -12 216.826 -12 0.224951 0.97437<42.9606 191.359 236.265 698.821>
LayerCount: 2
Back
SplineSet
79 -12 m 5
 222 633 l 6
 229 662 225 674 206 676 c 6
 148 683 l 5
 156 715 l 5
 385 742 l 5
 390 737 l 5
 283 295 l 5
 288 295 l 5
 342 397 431 502 536 502 c 4
 615 502 641 439 612 347 c 6xe8
 540 115 l 6
 532 87 532 68 551 68 c 4
 574 68 612 121 637 167 c 5
 666 152 l 5
 626 65 565 -12 470 -12 c 4
 406 -12 375 30 399 113 c 6xf0
 473 364 l 6
 485 401 475 422 453 422 c 4
 404 422 322 314 283 213 c 4
 260 156 245 102 218 0 c 5xe8
 79 -12 l 5
EndSplineSet
Fore
SplineSet
106 444 m 1
 116 490 l 1
 545 490 l 1
 535 444 l 1
 106 444 l 1
79 -12 m 1
 222 633 l 2
 229 662 225 674 206 676 c 2
 148 683 l 1
 156 715 l 1
 385 742 l 1
 390 737 l 1
 263 188 l 1
 268 188 l 1
 322 290 401 372 494 372 c 0
 576 372 607 309 575 217 c 2
 540 115 l 2
 530 87 532 68 551 68 c 0
 574 68 612 121 637 167 c 1
 666 152 l 1
 626 65 565 -12 470 -12 c 0
 410 -12 371 30 399 113 c 2
 439 234 l 2
 453 277 444 295 423 295 c 0
 379 295 289 188 248 88 c 0
 236 57 236 56 218 0 c 1
 79 -12 l 1
EndSplineSet
EndChar

StartChar: afii10099
Encoding: 1106 1106 351
Width: 605
Flags: HW
HStem: -242 21G<205 324.616> -12 21G<83.4341 218> 295 77<407.319 526> 444 46<116 535> 683 32<156 206> 722 20G<215.37 390>
VStem: 458 145<113.335 286.593>
DStem2: 25.9003 -242 163.727 -242 0.224951 0.97437<279.011 427.784 472.315 934.871>
LayerCount: 2
Back
SplineSet
106 444 m 5
 116 490 l 5
 545 490 l 5
 535 444 l 5
 106 444 l 5
79 -12 m 5
 222 633 l 6
 229 662 225 674 206 676 c 6
 148 683 l 5
 156 715 l 5
 385 742 l 5
 390 737 l 5
 263 188 l 5
 268 188 l 5
 322 290 401 372 494 372 c 4
 576 372 607 309 575 217 c 6
 540 115 l 6
 530 87 532 68 551 68 c 4
 574 68 612 121 637 167 c 5
 666 152 l 5
 626 65 565 -12 470 -12 c 4
 410 -12 371 30 399 113 c 6
 439 234 l 6
 453 277 444 295 423 295 c 4
 379 295 289 188 248 88 c 4
 236 57 236 56 218 0 c 5
 79 -12 l 5
EndSplineSet
Fore
SplineSet
106 444 m 1
 116 490 l 1
 545 490 l 1
 535 444 l 1
 106 444 l 1
79 -12 m 1
 222 633 l 2
 229 662 225 674 206 676 c 2
 148 683 l 1
 156 715 l 1
 385 742 l 1
 390 737 l 1
 263 188 l 1
 268 188 l 1
 321 292 404 372 478 372 c 0
 577 372 603 301 603 219 c 0
 603 27 432 -122 217 -242 c 1
 199 -212 l 1
 427 -63 458 133 458 223 c 0
 458 271 444 295 409 295 c 0
 377 295 290 189 248 88 c 0
 235 57 236 56 218 0 c 1
 79 -12 l 1
EndSplineSet
EndChar

StartChar: afii10060
Encoding: 1035 1035 352
Width: 860
Flags: MW
HStem: 0 38<131 190 407 462 537 574 791 832> 363 82<555.026 728.5> 646 46<246.596 358 512 650.005>
DStem2: 211.375 0 365.375 0 0.224951 0.97437<86.0544 662.427> 595.375 0 749.375 0 0.224951 0.97437<86.0517 336.349>
LayerCount: 2
Back
SplineSet
841 38 m 1
 832 0 l 1
 528 0 l 1
 537 38 l 1
 574 41 l 2
 603 44 610 62 618 98 c 2
 655 259 l 2
 669 322 659 363 578 363 c 0
 553 363 526 359 502 349 c 0
 447 327 435 308 428 277 c 1
 450 379 l 1
 453 379 l 1
 521 414 595 445 674 445 c 0
 783 445 832 352 805 239 c 2
 772 98 l 2
 764 62 763 45 791 42 c 2
 841 38 l 1
126 501 m 5
 169 692 l 1
 757 692 l 1
 714 501 l 5
 676 501 l 5
 673 562 l 2
 670 614 646 646 580 646 c 2
 512 646 l 1
 428 277 l 1
 388 98 l 2
 380 62 379 45 407 43 c 2
 471 38 l 1
 462 0 l 1
 122 0 l 1
 131 38 l 1
 190 42 l 2
 219 44 226 62 234 98 c 2
 358 646 l 1
 326 646 l 2
 260 646 222 615 195 562 c 2
 164 501 l 5
 126 501 l 5
EndSplineSet
Fore
SplineSet
841 38 m 1
 832 0 l 1
 528 0 l 1
 537 38 l 1
 574 41 l 2
 603 44 610 62 618 98 c 2
 655 259 l 2
 669 322 659 363 578 363 c 0
 553 363 526 359 502 349 c 0
 447 327 435 308 428 277 c 1
 450 379 l 1
 453 379 l 1
 521 414 595 445 674 445 c 0
 783 445 832 352 805 239 c 2
 772 98 l 2
 764 62 763 45 791 42 c 2
 841 38 l 1
128 511 m 1
 169 692 l 1
 757 692 l 1
 716 511 l 1
 678 511 l 1
 675 562 l 2
 670 614 648 646 582 646 c 2
 512 646 l 1
 428 277 l 1
 388 98 l 2
 380 62 379 45 407 43 c 2
 471 38 l 1
 462 0 l 1
 122 0 l 1
 131 38 l 1
 190 42 l 2
 219 44 226 62 234 98 c 2
 358 646 l 1
 324 646 l 2
 258 646 222 614 193 562 c 2
 166 511 l 1
 128 511 l 1
EndSplineSet
EndChar

StartChar: afii10051
Encoding: 1026 1026 353
Width: 824
Flags: HMW
HStem: -15 46<568.346 619.622> 0 38<131 190> 363 82<531.525 638.494> 646 46<246.596 358 512 650.005>
VStem: 456 127<48.7162 160.312> 666 165<135.801 333.064>
DStem2: 207.912 -15 360.586 -15 0.224951 0.97437<55.1996 677.821>
LayerCount: 2
Back
SplineSet
841 38 m 5
 832 0 l 5
 528 0 l 5
 537 38 l 5
 574 41 l 6
 603 44 610 62 618 98 c 6
 655 259 l 6
 669 322 659 363 578 363 c 4
 553 363 526 359 502 349 c 4
 447 327 435 308 428 277 c 5
 450 379 l 5
 453 379 l 5
 521 414 595 445 674 445 c 4
 783 445 832 352 805 239 c 6
 772 98 l 6
 764 62 763 45 791 42 c 6
 841 38 l 5
128 511 m 5
 169 692 l 5
 757 692 l 5
 716 511 l 5
 678 511 l 5
 675 562 l 6
 670 614 648 646 582 646 c 6
 512 646 l 5
 428 277 l 5
 388 98 l 6
 380 62 379 45 407 43 c 6
 471 38 l 5
 462 0 l 5
 122 0 l 5
 131 38 l 5
 190 42 l 6
 219 44 226 62 234 98 c 6
 358 646 l 5
 324 646 l 6
 258 646 222 614 193 562 c 6
 166 511 l 5
 128 511 l 5
EndSplineSet
Fore
SplineSet
456 100 m 0
 456 136 472 176 522 176 c 0
 558 176 583 155 583 127 c 0
 583 96 567 63 567 48 c 0
 567 37 569 31 582 31 c 0
 645 31 666 163 666 248 c 0
 666 313 653 363 569 363 c 0
 541 363 520 361 496 351 c 0
 446 330 435 308 428 277 c 1
 450 379 l 1
 453 379 l 1
 482 400 551 445 633 445 c 0
 753 445 831 401 831 232 c 0
 831 129 735 -15 574 -15 c 0
 481 -15 456 51 456 100 c 0
128 511 m 1
 169 692 l 1
 757 692 l 1
 716 511 l 1
 678 511 l 1
 675 562 l 2
 670 614 648 646 582 646 c 2
 512 646 l 1
 428 277 l 1
 366 0 l 1
 122 0 l 1
 131 38 l 1
 190 42 l 2
 219 44 226 62 234 98 c 2
 358 646 l 1
 324 646 l 2
 258 646 222 614 193 562 c 2
 166 511 l 1
 128 511 l 1
EndSplineSet
EndChar

StartChar: afii10106
Encoding: 1113 1113 354
Width: 799
Flags: MW
HStem: -12 100<54.083 154.101> -12 46<517.087 621.73> 273 46<564.98 701.5> 444 46<337.562 426.256>
VStem: 674 135<101.695 258.223>
DStem2: 319.365 -12 460.519 -12 0.224951 0.97437<130.405 462.938>
LayerCount: 2
Back
SplineSet
344 443 m 1
 352 476 l 1
 583 502 l 1
 588 497 l 1
 506 185 l 2
 491 127 490 34 560 34 c 0
 603 34 674 67 674 184 c 0
 674 230 663 273 616 273 c 0
 583 273 537 251 506 185 c 1
 526 265 l 1
 529 265 l 1
 560 304 598 319 662 319 c 0
 741 319 809 282 809 169 c 0
 809 97 726 -12 543 -12 c 0
 413 -12 334 66 366 190 c 2
 418 391 l 2
 426 421 422 435 403 437 c 2
 344 443 l 1
8 50 m 0xa0
 8 89 30 126 64 126 c 0
 116 126 110 88 140 88 c 0xa0
 161 88 203 152 226 203 c 24
 261 281 287 414 287 414 c 2
 294 439 278 446 264 449 c 2
 208 461 l 1
 215 490 l 1
 586 490 l 1
 485 115 l 2
 478 89 478 68 497 68 c 0
 520 68 557 121 583 166 c 1
 612 148 l 1
 571 65 510 -12 413 -12 c 0x50
 344 -12 324 31 344 107 c 2
 425 411 l 2
 431 437 415 444 399 444 c 2
 379 444 l 2
 297.808 444 344.455 326.383 229 100 c 0
 197 36 148 -12 84 -12 c 0
 35 -12 8 15 8 50 c 0xa0
EndSplineSet
Fore
SplineSet
8 50 m 0
 8 89 30 126 64 126 c 0
 116 126 110 88 140 88 c 0
 161 88 203 152 226 203 c 24
 261 281 287 414 287 414 c 2
 294 439 278 446 264 449 c 2
 208 461 l 1
 215 490 l 1
 586 490 l 1
 506 185 l 2
 491 127 490 34 560 34 c 0
 603 34 674 67 674 184 c 0
 674 230 663 273 616 273 c 0
 583 273 537 251 506 185 c 1
 526 265 l 1
 529 265 l 1
 560 304 598 319 662 319 c 0
 741 319 809 282 809 169 c 0
 809 97 726 -12 543 -12 c 0
 413 -12 334 66 366 190 c 2
 425 411 l 2
 431 437 415 444 399 444 c 2
 379 444 l 2
 298 444 344 326 229 100 c 0
 197 36 148 -12 84 -12 c 0
 35 -12 8 15 8 50 c 0
EndSplineSet
EndChar

StartChar: afii10107
Encoding: 1114 1114 355
Width: 855
Flags: MW
HStem: -12 46<573.087 677.73> 231 46<250 468> 273 46<620.98 757.5> 443 59<109 348>
VStem: 730 135<101.695 258.223>
DStem2: 90 -12 232 0 0.236551 0.971619<45.2497 271.586 318.646 454.924> 375.365 -12 516.519 -12 0.224951 0.97437<130.405 257.61 304.681 517.621>
LayerCount: 2
Back
SplineSet
400 443 m 1
 408 476 l 1
 639 502 l 1
 644 497 l 1
 562 185 l 2
 547 127 546 34 616 34 c 0
 659 34 730 67 730 184 c 0
 730 230 719 273 672 273 c 0
 639 273 593 251 562 185 c 1
 582 265 l 1
 585 265 l 1
 616 304 654 319 718 319 c 0
 797 319 865 282 865 169 c 0
 865 97 782 -12 599 -12 c 0
 469 -12 390 66 422 190 c 2
 474 391 l 2
 482 421 478 435 459 437 c 2
 400 443 l 1
468 231 m 1
 240 231 l 1
 250 277 l 1
 478 277 l 1
 468 231 l 1
400 107 m 2
 502 490 l 1
 645 502 l 1
 541 115 l 2
 533 89 534 68 553 68 c 0
 576 68 613 121 639 166 c 1
 668 148 l 1
 627 65 566 -12 469 -12 c 0
 400 -12 381 31 400 107 c 2
109 443 m 1
 117 476 l 1
 348 502 l 1
 353 497 l 1
 232 0 l 1
 90 -12 l 1
 183 391 l 2
 189.708 420.068 188 435 169 437 c 2
 109 443 l 1
EndSplineSet
Fore
SplineSet
645 502 m 1
 562 185 l 2
 547 127 546 34 616 34 c 0
 659 34 730 67 730 184 c 0
 730 230 719 273 672 273 c 0
 639 273 593 251 562 185 c 1
 582 265 l 1
 585 265 l 1
 616 304 654 319 718 319 c 0
 797 319 865 282 865 169 c 0
 865 97 782 -12 599 -12 c 0
 469 -12 390 66 422 190 c 2
 502 490 l 1
 645 502 l 1
468 231 m 1
 240 231 l 1
 250 277 l 1
 478 277 l 1
 468 231 l 1
109 443 m 1
 117 476 l 1
 348 502 l 1
 353 497 l 1
 232 0 l 1
 90 -12 l 1
 183 391 l 2
 190 420 188 435 169 437 c 2
 109 443 l 1
EndSplineSet
EndChar

StartChar: caron.alt
Encoding: 57480 57480 356
Width: 222
VWidth: 0
Flags: W
HStem: 532 279
VStem: 236 103<643.099 761.998>
LayerCount: 2
Back
SplineSet
198.894 749 m 0
 204.375 788 231.607 811 271.607 811 c 0
 324.607 811 345.002 764 337.132 708 c 0
 328.137 644 282.721 577 235.396 532 c 1
 206.629 555 l 1
 226.126 587 231.904 621 235.559 647 c 0
 241.462 689 192.851 706 198.894 749 c 0
EndSplineSet
Fore
SplineSet
198 742 m 0
 198 764 213 811 272 811 c 0
 317 811 339 776 339 731 c 0
 339 651 277 571 235 532 c 1
 207 555 l 1
 228 590 236 641 236 654 c 0
 236 689 198 706 198 742 c 0
EndSplineSet
EndChar

